<svg xmlns="http://www.w3.org/2000/svg" xmlns:xlink="http://www.w3.org/1999/xlink" width="500" zoomAndPan="magnify" viewBox="0 0 375 374.999991" height="500" preserveAspectRatio="xMidYMid meet" version="1.0"><defs><clipPath id="id1"><path d="M 68 37.5 L 307 37.5 L 307 275 L 68 275 Z M 68 37.5 " clip-rule="nonzero"/></clipPath><clipPath id="id2"><path d="M 182 37.5 L 242 37.5 L 242 157 L 182 157 Z M 182 37.5 " clip-rule="nonzero"/></clipPath><clipPath id="id3"><path d="M 133 37.5 L 194 37.5 L 194 159 L 133 159 Z M 133 37.5 " clip-rule="nonzero"/></clipPath><clipPath id="id4"><path d="M 62.4375 155 L 199 155 L 199 337.5 L 62.4375 337.5 Z M 62.4375 155 " clip-rule="nonzero"/></clipPath><clipPath id="id5"><path d="M 177 155 L 312.9375 155 L 312.9375 337.5 L 177 337.5 Z M 177 155 " clip-rule="nonzero"/></clipPath></defs><g clip-path="url(#id1)"><path fill="#e6e9ed" d="M 138.398438 274.992188 L 68.734375 205.433594 L 68.734375 107.0625 L 138.398438 37.503906 L 236.910156 37.503906 L 306.574219 107.0625 L 306.574219 205.433594 L 236.910156 274.992188 Z M 138.398438 274.992188 " fill-opacity="1" fill-rule="nonzero"/></g><path fill="#ed5564" d="M 187.65625 234.566406 C 187.65625 241.46875 182.050781 247.0625 175.136719 247.0625 C 168.222656 247.0625 162.621094 241.46875 162.621094 234.566406 C 162.621094 227.664062 168.222656 222.070312 175.136719 222.070312 C 182.050781 222.070312 187.65625 227.664062 187.65625 234.566406 Z M 187.65625 234.566406 " fill-opacity="1" fill-rule="nonzero"/><path fill="#ac92eb" d="M 162.621094 234.566406 C 162.621094 241.46875 157.015625 247.0625 150.101562 247.0625 C 143.1875 247.0625 137.582031 241.46875 137.582031 234.566406 C 137.582031 227.664062 143.1875 222.070312 150.101562 222.070312 C 157.015625 222.070312 162.621094 227.664062 162.621094 234.566406 Z M 162.621094 234.566406 " fill-opacity="1" fill-rule="nonzero"/><path fill="#a0d468" d="M 137.582031 234.566406 C 137.582031 241.46875 131.980469 247.0625 125.066406 247.0625 C 118.148438 247.0625 112.546875 241.46875 112.546875 234.566406 C 112.546875 227.664062 118.148438 222.070312 125.066406 222.070312 C 131.980469 222.070312 137.582031 227.664062 137.582031 234.566406 Z M 137.582031 234.566406 " fill-opacity="1" fill-rule="nonzero"/><path fill="#ac92eb" d="M 212.6875 234.566406 C 212.6875 241.46875 207.09375 247.0625 200.179688 247.0625 C 193.257812 247.0625 187.65625 241.46875 187.65625 234.566406 C 187.65625 227.664062 193.257812 222.070312 200.179688 222.070312 C 207.09375 222.070312 212.6875 227.664062 212.6875 234.566406 Z M 212.6875 234.566406 " fill-opacity="1" fill-rule="nonzero"/><path fill="#fc6e51" d="M 237.734375 234.566406 C 237.734375 241.46875 232.125 247.0625 225.210938 247.0625 C 218.296875 247.0625 212.6875 241.46875 212.6875 234.566406 C 212.6875 227.664062 218.296875 222.070312 225.210938 222.070312 C 232.125 222.070312 237.734375 227.664062 237.734375 234.566406 Z M 237.734375 234.566406 " fill-opacity="1" fill-rule="nonzero"/><path fill="#48cfad" d="M 262.765625 234.566406 C 262.765625 241.46875 257.15625 247.0625 250.242188 247.0625 C 243.328125 247.0625 237.734375 241.46875 237.734375 234.566406 C 237.734375 227.664062 243.328125 222.070312 250.242188 222.070312 C 257.15625 222.070312 262.765625 227.664062 262.765625 234.566406 Z M 262.765625 234.566406 " fill-opacity="1" fill-rule="nonzero"/><path fill="#ccd1d9" d="M 306.574219 107.0625 L 301.789062 102.277344 L 68.734375 198.667969 L 68.734375 205.433594 L 73.523438 210.222656 L 306.574219 113.828125 Z M 306.574219 107.0625 " fill-opacity="1" fill-rule="nonzero"/><g clip-path="url(#id2)"><path fill="#ccd1d9" d="M 236.910156 37.503906 L 230.144531 37.503906 L 182.894531 151.402344 L 194.453125 156.191406 L 241.707031 42.285156 Z M 236.910156 37.503906 " fill-opacity="1" fill-rule="nonzero"/></g><g clip-path="url(#id3)"><path fill="#ccd1d9" d="M 133.605469 42.285156 L 181.773438 158.40625 L 193.339844 153.625 L 145.171875 37.503906 L 138.398438 37.503906 Z M 133.605469 42.285156 " fill-opacity="1" fill-rule="nonzero"/></g><path fill="#ccd1d9" d="M 73.523438 102.277344 L 68.734375 107.0625 L 68.734375 113.828125 L 301.789062 210.222656 L 306.574219 205.433594 L 306.574219 198.667969 Z M 73.523438 102.277344 " fill-opacity="1" fill-rule="nonzero"/><path fill="#48cfad" d="M 175.136719 256.246094 C 175.136719 263.148438 169.535156 268.742188 162.621094 268.742188 C 155.703125 268.742188 150.101562 263.148438 150.101562 256.246094 C 150.101562 249.339844 155.703125 243.746094 162.621094 243.746094 C 169.535156 243.746094 175.136719 249.339844 175.136719 256.246094 Z M 175.136719 256.246094 " fill-opacity="1" fill-rule="nonzero"/><path fill="#fc6e51" d="M 150.101562 256.246094 C 150.101562 263.148438 144.496094 268.742188 137.582031 268.742188 C 130.667969 268.742188 125.066406 263.148438 125.066406 256.246094 C 125.066406 249.339844 130.667969 243.746094 137.582031 243.746094 C 144.496094 243.746094 150.101562 249.339844 150.101562 256.246094 Z M 150.101562 256.246094 " fill-opacity="1" fill-rule="nonzero"/><path fill="#ffce54" d="M 200.179688 256.246094 C 200.179688 263.148438 194.570312 268.742188 187.65625 268.742188 C 180.742188 268.742188 175.136719 263.148438 175.136719 256.246094 C 175.136719 249.339844 180.742188 243.746094 187.65625 243.746094 C 194.570312 243.746094 200.179688 249.339844 200.179688 256.246094 Z M 200.179688 256.246094 " fill-opacity="1" fill-rule="nonzero"/><path fill="#5d9cec" d="M 225.210938 256.246094 C 225.210938 263.148438 219.601562 268.742188 212.6875 268.742188 C 205.773438 268.742188 200.179688 263.148438 200.179688 256.246094 C 200.179688 249.339844 205.773438 243.746094 212.6875 243.746094 C 219.601562 243.746094 225.210938 249.339844 225.210938 256.246094 Z M 225.210938 256.246094 " fill-opacity="1" fill-rule="nonzero"/><path fill="#ed5564" d="M 250.242188 256.246094 C 250.242188 263.148438 244.648438 268.742188 237.734375 268.742188 C 230.8125 268.742188 225.210938 263.148438 225.210938 256.246094 C 225.210938 249.339844 230.8125 243.746094 237.734375 243.746094 C 244.648438 243.746094 250.242188 249.339844 250.242188 256.246094 Z M 250.242188 256.246094 " fill-opacity="1" fill-rule="nonzero"/><g clip-path="url(#id4)"><path fill="#434a54" d="M 112.546875 312.492188 L 109.992188 312.492188 L 198.179688 169.253906 L 177.125 155.742188 L 80.226562 312.492188 L 74.992188 312.492188 C 68.078125 312.492188 62.472656 318.085938 62.472656 324.988281 C 62.472656 331.890625 68.078125 337.496094 74.992188 337.496094 L 112.546875 337.496094 C 119.460938 337.496094 125.066406 331.890625 125.066406 324.988281 C 125.066406 318.085938 119.460938 312.492188 112.546875 312.492188 Z M 112.546875 312.492188 " fill-opacity="1" fill-rule="nonzero"/></g><g clip-path="url(#id5)"><path fill="#434a54" d="M 262.765625 312.492188 L 265.316406 312.492188 L 177.125 169.253906 L 198.183594 155.742188 L 295.085938 312.492188 L 300.320312 312.492188 C 307.234375 312.492188 312.84375 318.085938 312.84375 324.988281 C 312.84375 331.890625 307.234375 337.496094 300.320312 337.496094 L 262.765625 337.496094 C 255.851562 337.496094 250.242188 331.890625 250.242188 324.988281 C 250.242188 318.085938 255.851562 312.492188 262.765625 312.492188 Z M 262.765625 312.492188 " fill-opacity="1" fill-rule="nonzero"/></g><path fill="#434a54" d="M 206.433594 156.246094 C 206.433594 166.609375 198.027344 174.996094 187.65625 174.996094 C 177.285156 174.996094 168.878906 166.609375 168.878906 156.246094 C 168.878906 145.890625 177.285156 137.496094 187.65625 137.496094 C 198.027344 137.496094 206.433594 145.890625 206.433594 156.246094 Z M 206.433594 156.246094 " fill-opacity="1" fill-rule="nonzero"/><path fill="#656d78" d="M 187.65625 181.246094 C 173.851562 181.246094 162.621094 170.03125 162.621094 156.246094 C 162.621094 142.46875 173.851562 131.253906 187.65625 131.253906 C 201.464844 131.253906 212.6875 142.46875 212.6875 156.246094 C 212.6875 170.03125 201.464844 181.246094 187.65625 181.246094 Z M 187.65625 143.75 C 180.75 143.75 175.136719 149.359375 175.136719 156.246094 C 175.136719 163.140625 180.75 168.75 187.65625 168.75 C 194.558594 168.75 200.179688 163.140625 200.179688 156.246094 C 200.179688 149.359375 194.558594 143.75 187.65625 143.75 Z M 187.65625 143.75 " fill-opacity="1" fill-rule="nonzero"/></svg>