<svg xmlns="http://www.w3.org/2000/svg" xmlns:xlink="http://www.w3.org/1999/xlink" width="150" zoomAndPan="magnify" viewBox="0 0 112.5 101.249998" height="135" preserveAspectRatio="xMidYMid meet" version="1.0"><defs><clipPath id="id1"><path d="M 0.164062 3.300781 L 111.839844 3.300781 L 111.839844 42 L 0.164062 42 Z M 0.164062 3.300781 " clip-rule="nonzero"/></clipPath><clipPath id="id2"><path d="M 46 47 L 70 47 L 70 97.519531 L 46 97.519531 Z M 46 47 " clip-rule="nonzero"/></clipPath></defs><g clip-path="url(#id1)"><path fill="#7fcac9" d="M 104.539062 41.757812 L 7.960938 41.757812 C 3.699219 41.757812 0.234375 38.316406 0.234375 34.066406 L 0.234375 10.992188 C 0.234375 6.738281 3.699219 3.300781 7.960938 3.300781 L 104.539062 3.300781 C 108.808594 3.300781 112.265625 6.738281 112.265625 10.992188 L 112.265625 34.066406 C 112.265625 38.316406 108.808594 41.757812 104.539062 41.757812 " fill-opacity="1" fill-rule="nonzero"/></g><path fill="#195c85" d="M 75.566406 20.605469 L 72.503906 20.605469 L 75 18.117188 C 75.753906 17.367188 75.753906 16.152344 75 15.398438 C 74.246094 14.648438 73.023438 14.648438 72.269531 15.398438 L 69.769531 17.886719 L 69.769531 14.835938 C 69.769531 13.777344 68.902344 12.914062 67.839844 12.914062 C 66.777344 12.914062 65.90625 13.777344 65.90625 14.835938 L 65.90625 17.886719 L 63.410156 15.398438 C 62.65625 14.648438 61.433594 14.648438 60.679688 15.398438 C 59.925781 16.152344 59.925781 17.367188 60.679688 18.117188 L 63.175781 20.605469 L 60.113281 20.605469 C 59.050781 20.605469 58.179688 21.46875 58.179688 22.527344 C 58.179688 23.585938 59.050781 24.449219 60.113281 24.449219 L 63.175781 24.449219 L 60.679688 26.9375 C 59.925781 27.6875 59.925781 28.90625 60.679688 29.65625 C 61.054688 30.03125 61.546875 30.21875 62.042969 30.21875 C 62.542969 30.21875 63.03125 30.03125 63.410156 29.65625 L 65.90625 27.167969 L 65.90625 30.21875 C 65.90625 31.277344 66.777344 32.140625 67.839844 32.140625 C 68.902344 32.140625 69.769531 31.277344 69.769531 30.21875 L 69.769531 27.167969 L 72.269531 29.65625 C 72.644531 30.03125 73.136719 30.21875 73.632812 30.21875 C 74.132812 30.21875 74.621094 30.03125 75 29.65625 C 75.753906 28.90625 75.753906 27.6875 75 26.9375 L 72.503906 24.449219 L 75.566406 24.449219 C 76.628906 24.449219 77.496094 23.585938 77.496094 22.527344 C 77.496094 21.46875 76.628906 20.605469 75.566406 20.605469 " fill-opacity="1" fill-rule="nonzero"/><path fill="#195c85" d="M 52.386719 20.605469 L 49.324219 20.605469 L 51.820312 18.117188 C 52.574219 17.367188 52.574219 16.152344 51.820312 15.398438 C 51.066406 14.648438 49.84375 14.648438 49.089844 15.398438 L 46.59375 17.886719 L 46.59375 14.835938 C 46.59375 13.777344 45.722656 12.914062 44.660156 12.914062 C 43.597656 12.914062 42.730469 13.777344 42.730469 14.835938 L 42.730469 17.886719 L 40.230469 15.398438 C 39.476562 14.648438 38.253906 14.648438 37.5 15.398438 C 36.746094 16.152344 36.746094 17.367188 37.5 18.117188 L 39.996094 20.605469 L 36.933594 20.605469 C 35.871094 20.605469 35.003906 21.46875 35.003906 22.527344 C 35.003906 23.585938 35.871094 24.449219 36.933594 24.449219 L 39.996094 24.449219 L 37.5 26.9375 C 36.746094 27.6875 36.746094 28.90625 37.5 29.65625 C 37.878906 30.03125 38.367188 30.21875 38.867188 30.21875 C 39.363281 30.21875 39.855469 30.03125 40.230469 29.65625 L 42.730469 27.167969 L 42.730469 30.21875 C 42.730469 31.277344 43.597656 32.140625 44.660156 32.140625 C 45.722656 32.140625 46.59375 31.277344 46.59375 30.21875 L 46.59375 27.167969 L 49.089844 29.65625 C 49.46875 30.03125 49.957031 30.21875 50.457031 30.21875 C 50.953125 30.21875 51.445312 30.03125 51.820312 29.65625 C 52.574219 28.90625 52.574219 27.6875 51.820312 26.9375 L 49.324219 24.449219 L 52.386719 24.449219 C 53.449219 24.449219 54.320312 23.585938 54.320312 22.527344 C 54.320312 21.46875 53.449219 20.605469 52.386719 20.605469 " fill-opacity="1" fill-rule="nonzero"/><path fill="#195c85" d="M 29.207031 20.605469 L 26.144531 20.605469 L 28.640625 18.117188 C 29.398438 17.367188 29.398438 16.152344 28.640625 15.398438 C 27.886719 14.648438 26.664062 14.648438 25.910156 15.398438 L 23.414062 17.886719 L 23.414062 14.835938 C 23.414062 13.777344 22.546875 12.914062 21.480469 12.914062 C 20.417969 12.914062 19.550781 13.777344 19.550781 14.835938 L 19.550781 17.886719 L 17.054688 15.398438 C 16.296875 14.648438 15.074219 14.648438 14.320312 15.398438 C 13.566406 16.152344 13.566406 17.367188 14.320312 18.117188 L 16.820312 20.605469 L 13.753906 20.605469 C 12.691406 20.605469 11.824219 21.46875 11.824219 22.527344 C 11.824219 23.585938 12.691406 24.449219 13.753906 24.449219 L 16.820312 24.449219 L 14.320312 26.9375 C 13.566406 27.6875 13.566406 28.90625 14.320312 29.65625 C 14.699219 30.03125 15.1875 30.21875 15.6875 30.21875 C 16.183594 30.21875 16.675781 30.03125 17.054688 29.65625 L 19.550781 27.167969 L 19.550781 30.21875 C 19.550781 31.277344 20.417969 32.140625 21.480469 32.140625 C 22.546875 32.140625 23.414062 31.277344 23.414062 30.21875 L 23.414062 27.167969 L 25.910156 29.65625 C 26.289062 30.03125 26.777344 30.21875 27.277344 30.21875 C 27.773438 30.21875 28.265625 30.03125 28.640625 29.65625 C 29.398438 28.90625 29.398438 27.6875 28.640625 26.9375 L 26.144531 24.449219 L 29.207031 24.449219 C 30.273438 24.449219 31.140625 23.585938 31.140625 22.527344 C 31.140625 21.46875 30.273438 20.605469 29.207031 20.605469 " fill-opacity="1" fill-rule="nonzero"/><path fill="#195c85" d="M 98.746094 20.605469 L 95.679688 20.605469 L 98.179688 18.117188 C 98.933594 17.367188 98.933594 16.152344 98.179688 15.398438 C 97.425781 14.648438 96.203125 14.648438 95.445312 15.398438 L 92.949219 17.886719 L 92.949219 14.835938 C 92.949219 13.777344 92.082031 12.914062 91.019531 12.914062 C 89.953125 12.914062 89.085938 13.777344 89.085938 14.835938 L 89.085938 17.886719 L 86.589844 15.398438 C 85.835938 14.648438 84.613281 14.648438 83.859375 15.398438 C 83.101562 16.152344 83.101562 17.367188 83.859375 18.117188 L 86.355469 20.605469 L 83.292969 20.605469 C 82.226562 20.605469 81.359375 21.46875 81.359375 22.527344 C 81.359375 23.585938 82.226562 24.449219 83.292969 24.449219 L 86.355469 24.449219 L 83.859375 26.9375 C 83.101562 27.6875 83.101562 28.90625 83.859375 29.65625 C 84.234375 30.03125 84.726562 30.21875 85.222656 30.21875 C 85.722656 30.21875 86.210938 30.03125 86.589844 29.65625 L 89.085938 27.167969 L 89.085938 30.21875 C 89.085938 31.277344 89.953125 32.140625 91.019531 32.140625 C 92.082031 32.140625 92.949219 31.277344 92.949219 30.21875 L 92.949219 27.167969 L 95.445312 29.65625 C 95.824219 30.03125 96.316406 30.21875 96.8125 30.21875 C 97.3125 30.21875 97.800781 30.03125 98.179688 29.65625 C 98.933594 28.90625 98.933594 27.6875 98.179688 26.9375 L 95.679688 24.449219 L 98.746094 24.449219 C 99.808594 24.449219 100.675781 23.585938 100.675781 22.527344 C 100.675781 21.46875 99.808594 20.605469 98.746094 20.605469 " fill-opacity="1" fill-rule="nonzero"/><g clip-path="url(#id2)"><path fill="#fdbd40" d="M 62.042969 87.90625 C 62.042969 91.089844 59.449219 93.675781 56.25 93.675781 C 53.050781 93.675781 50.457031 91.089844 50.457031 87.90625 C 50.457031 84.722656 53.050781 82.136719 56.25 82.136719 C 59.449219 82.136719 62.042969 84.722656 62.042969 87.90625 Z M 67.839844 59.0625 L 58.179688 59.0625 L 58.179688 55.21875 L 67.839844 55.21875 C 68.902344 55.21875 69.769531 54.351562 69.769531 53.292969 C 69.769531 52.234375 68.902344 51.371094 67.839844 51.371094 L 58.179688 51.371094 L 58.179688 49.449219 C 58.179688 48.390625 57.3125 47.527344 56.25 47.527344 C 55.1875 47.527344 54.320312 48.390625 54.320312 49.449219 L 54.320312 78.488281 C 49.910156 79.382812 46.59375 83.265625 46.59375 87.90625 C 46.59375 93.210938 50.921875 97.519531 56.25 97.519531 C 61.578125 97.519531 65.90625 93.210938 65.90625 87.90625 C 65.90625 83.265625 62.589844 79.382812 58.179688 78.488281 L 58.179688 62.910156 L 67.839844 62.910156 C 68.902344 62.910156 69.769531 62.042969 69.769531 60.984375 C 69.769531 59.925781 68.902344 59.0625 67.839844 59.0625 " fill-opacity="1" fill-rule="nonzero"/></g><path fill="#32b1cc" d="M 40.796875 59.121094 C 40.230469 58.371094 39.558594 57.703125 38.804688 57.140625 C 39.558594 56.578125 40.230469 55.90625 40.796875 55.15625 C 41.363281 55.90625 42.035156 56.578125 42.789062 57.140625 C 42.035156 57.703125 41.363281 58.371094 40.796875 59.121094 Z M 48.523438 55.21875 C 45.324219 55.21875 42.730469 52.632812 42.730469 49.449219 C 42.730469 48.390625 41.863281 47.527344 40.796875 47.527344 C 39.734375 47.527344 38.867188 48.390625 38.867188 49.449219 C 38.867188 52.632812 36.269531 55.21875 33.070312 55.21875 C 32.007812 55.21875 31.140625 56.082031 31.140625 57.140625 C 31.140625 58.199219 32.007812 59.0625 33.070312 59.0625 C 36.269531 59.0625 38.867188 61.648438 38.867188 64.832031 C 38.867188 65.890625 39.734375 66.753906 40.796875 66.753906 C 41.863281 66.753906 42.730469 65.890625 42.730469 64.832031 C 42.730469 61.648438 45.324219 59.0625 48.523438 59.0625 C 49.585938 59.0625 50.457031 58.199219 50.457031 57.140625 C 50.457031 56.082031 49.585938 55.21875 48.523438 55.21875 " fill-opacity="1" fill-rule="nonzero"/><path fill="#32b1cc" d="M 77.496094 82.199219 C 76.929688 81.445312 76.257812 80.777344 75.503906 80.214844 C 76.257812 79.652344 76.929688 78.984375 77.496094 78.230469 C 78.0625 78.984375 78.734375 79.652344 79.488281 80.214844 C 78.734375 80.777344 78.0625 81.445312 77.496094 82.199219 Z M 85.222656 78.292969 C 82.023438 78.292969 79.429688 75.707031 79.429688 72.523438 C 79.429688 71.464844 78.5625 70.601562 77.496094 70.601562 C 76.433594 70.601562 75.566406 71.464844 75.566406 72.523438 C 75.566406 75.707031 72.96875 78.292969 69.769531 78.292969 C 68.707031 78.292969 67.839844 79.15625 67.839844 80.214844 C 67.839844 81.273438 68.707031 82.136719 69.769531 82.136719 C 72.96875 82.136719 75.566406 84.722656 75.566406 87.90625 C 75.566406 88.964844 76.433594 89.828125 77.496094 89.828125 C 78.5625 89.828125 79.429688 88.964844 79.429688 87.90625 C 79.429688 84.722656 82.023438 82.136719 85.222656 82.136719 C 86.289062 82.136719 87.15625 81.273438 87.15625 80.214844 C 87.15625 79.15625 86.289062 78.292969 85.222656 78.292969 " fill-opacity="1" fill-rule="nonzero"/></svg>