<svg xmlns="http://www.w3.org/2000/svg" xmlns:xlink="http://www.w3.org/1999/xlink" width="800" zoomAndPan="magnify" viewBox="0 0 600 225" height="300" preserveAspectRatio="xMidYMid meet" version="1.0"><defs><g/><clipPath id="id1"><path d="M 26 22.570312 L 169 22.570312 L 169 166 L 26 166 Z M 26 22.570312 " clip-rule="nonzero"/></clipPath><clipPath id="id2"><path d="M 94 22.570312 L 130 22.570312 L 130 94 L 94 94 Z M 94 22.570312 " clip-rule="nonzero"/></clipPath><clipPath id="id3"><path d="M 65 22.570312 L 101 22.570312 L 101 96 L 65 96 Z M 65 22.570312 " clip-rule="nonzero"/></clipPath><clipPath id="id4"><path d="M 22.5 93 L 104 93 L 104 202.570312 L 22.5 202.570312 Z M 22.5 93 " clip-rule="nonzero"/></clipPath><clipPath id="id5"><path d="M 91 93 L 172.5 93 L 172.5 202.570312 L 91 202.570312 Z M 91 93 " clip-rule="nonzero"/></clipPath></defs><g clip-path="url(#id1)"><path fill="#e6e9ed" d="M 67.984375 165.066406 L 26.273438 123.332031 L 26.273438 64.308594 L 67.984375 22.574219 L 126.972656 22.574219 L 168.6875 64.308594 L 168.6875 123.332031 L 126.972656 165.066406 Z M 67.984375 165.066406 " fill-opacity="1" fill-rule="nonzero"/></g><path fill="#ed5564" d="M 97.480469 140.8125 C 97.480469 144.953125 94.125 148.308594 89.984375 148.308594 C 85.84375 148.308594 82.492188 144.953125 82.492188 140.8125 C 82.492188 136.667969 85.84375 133.3125 89.984375 133.3125 C 94.125 133.3125 97.480469 136.667969 97.480469 140.8125 Z M 97.480469 140.8125 " fill-opacity="1" fill-rule="nonzero"/><path fill="#ac92eb" d="M 82.492188 140.8125 C 82.492188 144.953125 79.132812 148.308594 74.992188 148.308594 C 70.855469 148.308594 67.496094 144.953125 67.496094 140.8125 C 67.496094 136.667969 70.855469 133.3125 74.992188 133.3125 C 79.132812 133.3125 82.492188 136.667969 82.492188 140.8125 Z M 82.492188 140.8125 " fill-opacity="1" fill-rule="nonzero"/><path fill="#a0d468" d="M 67.496094 140.8125 C 67.496094 144.953125 64.140625 148.308594 60.003906 148.308594 C 55.859375 148.308594 52.507812 144.953125 52.507812 140.8125 C 52.507812 136.667969 55.859375 133.3125 60.003906 133.3125 C 64.140625 133.3125 67.496094 136.667969 67.496094 140.8125 Z M 67.496094 140.8125 " fill-opacity="1" fill-rule="nonzero"/><path fill="#ac92eb" d="M 112.46875 140.8125 C 112.46875 144.953125 109.121094 148.308594 104.980469 148.308594 C 100.835938 148.308594 97.480469 144.953125 97.480469 140.8125 C 97.480469 136.667969 100.835938 133.3125 104.980469 133.3125 C 109.121094 133.3125 112.46875 136.667969 112.46875 140.8125 Z M 112.46875 140.8125 " fill-opacity="1" fill-rule="nonzero"/><path fill="#fc6e51" d="M 127.46875 140.8125 C 127.46875 144.953125 124.109375 148.308594 119.96875 148.308594 C 115.828125 148.308594 112.46875 144.953125 112.46875 140.8125 C 112.46875 136.667969 115.828125 133.3125 119.96875 133.3125 C 124.109375 133.3125 127.46875 136.667969 127.46875 140.8125 Z M 127.46875 140.8125 " fill-opacity="1" fill-rule="nonzero"/><path fill="#48cfad" d="M 142.457031 140.8125 C 142.457031 144.953125 139.097656 148.308594 134.957031 148.308594 C 130.816406 148.308594 127.46875 144.953125 127.46875 140.8125 C 127.46875 136.667969 130.816406 133.3125 134.957031 133.3125 C 139.097656 133.3125 142.457031 136.667969 142.457031 140.8125 Z M 142.457031 140.8125 " fill-opacity="1" fill-rule="nonzero"/><path fill="#ccd1d9" d="M 168.6875 64.308594 L 165.820312 61.4375 L 26.273438 119.273438 L 26.273438 123.332031 L 29.140625 126.203125 L 168.6875 68.371094 Z M 168.6875 64.308594 " fill-opacity="1" fill-rule="nonzero"/><g clip-path="url(#id2)"><path fill="#ccd1d9" d="M 126.972656 22.574219 L 122.921875 22.574219 L 94.628906 90.914062 L 101.550781 93.785156 L 129.84375 25.441406 Z M 126.972656 22.574219 " fill-opacity="1" fill-rule="nonzero"/></g><g clip-path="url(#id3)"><path fill="#ccd1d9" d="M 65.117188 25.441406 L 93.960938 95.113281 L 100.886719 92.246094 L 72.042969 22.574219 L 67.984375 22.574219 Z M 65.117188 25.441406 " fill-opacity="1" fill-rule="nonzero"/></g><path fill="#ccd1d9" d="M 29.140625 61.4375 L 26.273438 64.308594 L 26.273438 68.371094 L 165.820312 126.203125 L 168.6875 123.332031 L 168.6875 119.273438 Z M 29.140625 61.4375 " fill-opacity="1" fill-rule="nonzero"/><path fill="#48cfad" d="M 89.984375 153.820312 C 89.984375 157.960938 86.628906 161.316406 82.492188 161.316406 C 78.347656 161.316406 74.992188 157.960938 74.992188 153.820312 C 74.992188 149.675781 78.347656 146.320312 82.492188 146.320312 C 86.628906 146.320312 89.984375 149.675781 89.984375 153.820312 Z M 89.984375 153.820312 " fill-opacity="1" fill-rule="nonzero"/><path fill="#fc6e51" d="M 74.992188 153.820312 C 74.992188 157.960938 71.636719 161.316406 67.496094 161.316406 C 63.359375 161.316406 60.003906 157.960938 60.003906 153.820312 C 60.003906 149.675781 63.359375 146.320312 67.496094 146.320312 C 71.636719 146.320312 74.992188 149.675781 74.992188 153.820312 Z M 74.992188 153.820312 " fill-opacity="1" fill-rule="nonzero"/><path fill="#ffce54" d="M 104.980469 153.820312 C 104.980469 157.960938 101.621094 161.316406 97.480469 161.316406 C 93.34375 161.316406 89.984375 157.960938 89.984375 153.820312 C 89.984375 149.675781 93.34375 146.320312 97.480469 146.320312 C 101.621094 146.320312 104.980469 149.675781 104.980469 153.820312 Z M 104.980469 153.820312 " fill-opacity="1" fill-rule="nonzero"/><path fill="#5d9cec" d="M 119.96875 153.820312 C 119.96875 157.960938 116.609375 161.316406 112.46875 161.316406 C 108.328125 161.316406 104.980469 157.960938 104.980469 153.820312 C 104.980469 149.675781 108.328125 146.320312 112.46875 146.320312 C 116.609375 146.320312 119.96875 149.675781 119.96875 153.820312 Z M 119.96875 153.820312 " fill-opacity="1" fill-rule="nonzero"/><path fill="#ed5564" d="M 134.957031 153.820312 C 134.957031 157.960938 131.605469 161.316406 127.46875 161.316406 C 123.324219 161.316406 119.96875 157.960938 119.96875 153.820312 C 119.96875 149.675781 123.324219 146.320312 127.46875 146.320312 C 131.605469 146.320312 134.957031 149.675781 134.957031 153.820312 Z M 134.957031 153.820312 " fill-opacity="1" fill-rule="nonzero"/><g clip-path="url(#id4)"><path fill="#434a54" d="M 52.507812 187.566406 L 50.976562 187.566406 L 103.785156 101.625 L 91.175781 93.515625 L 33.152344 187.566406 L 30.019531 187.566406 C 25.878906 187.566406 22.523438 190.921875 22.523438 195.066406 C 22.523438 199.207031 25.878906 202.570312 30.019531 202.570312 L 52.507812 202.570312 C 56.644531 202.570312 60.003906 199.207031 60.003906 195.066406 C 60.003906 190.921875 56.644531 187.566406 52.507812 187.566406 Z M 52.507812 187.566406 " fill-opacity="1" fill-rule="nonzero"/></g><g clip-path="url(#id5)"><path fill="#434a54" d="M 142.457031 187.566406 L 143.980469 187.566406 L 91.175781 101.625 L 103.785156 93.515625 L 161.808594 187.566406 L 164.941406 187.566406 C 169.082031 187.566406 172.441406 190.921875 172.441406 195.066406 C 172.441406 199.207031 169.082031 202.570312 164.941406 202.570312 L 142.457031 202.570312 C 138.316406 202.570312 134.957031 199.207031 134.957031 195.066406 C 134.957031 190.921875 138.316406 187.566406 142.457031 187.566406 Z M 142.457031 187.566406 " fill-opacity="1" fill-rule="nonzero"/></g><path fill="#434a54" d="M 108.726562 93.820312 C 108.726562 100.035156 103.691406 105.070312 97.480469 105.070312 C 91.273438 105.070312 86.238281 100.035156 86.238281 93.820312 C 86.238281 87.605469 91.273438 82.570312 97.480469 82.570312 C 103.691406 82.570312 108.726562 87.605469 108.726562 93.820312 Z M 108.726562 93.820312 " fill-opacity="1" fill-rule="nonzero"/><path fill="#656d78" d="M 97.480469 108.820312 C 89.214844 108.820312 82.492188 102.089844 82.492188 93.820312 C 82.492188 85.550781 89.214844 78.824219 97.480469 78.824219 C 105.75 78.824219 112.46875 85.550781 112.46875 93.820312 C 112.46875 102.089844 105.75 108.820312 97.480469 108.820312 Z M 97.480469 86.320312 C 93.347656 86.320312 89.984375 89.6875 89.984375 93.820312 C 89.984375 97.957031 93.347656 101.324219 97.480469 101.324219 C 101.617188 101.324219 104.980469 97.957031 104.980469 93.820312 C 104.980469 89.6875 101.617188 86.320312 97.480469 86.320312 Z M 97.480469 86.320312 " fill-opacity="1" fill-rule="nonzero"/><g fill="#ffc1b2" fill-opacity="0.302"><g transform="translate(296.646725, 109.711474)"><g><path d="M 41 -50.121094 C 39.167969 -52.296875 36.929688 -54.019531 34.40625 -55.222656 C 31.828125 -56.371094 29.015625 -57 26.035156 -57 L 7.742188 -57 C 7.339844 -57 7.054688 -56.828125 6.9375 -56.484375 C 6.765625 -56.140625 6.824219 -55.855469 7.109375 -55.566406 C 8.144531 -54.421875 8.714844 -53.042969 8.714844 -51.496094 L 8.714844 -5.503906 C 8.714844 -3.898438 8.144531 -2.582031 7.109375 -1.433594 C 6.824219 -1.089844 6.765625 -0.804688 6.9375 -0.457031 C 7.054688 -0.113281 7.339844 0 7.742188 0 L 20.703125 0 C 21.046875 0 21.332031 -0.113281 21.445312 -0.457031 C 21.5625 -0.804688 21.5625 -1.089844 21.332031 -1.433594 C 20.472656 -2.351562 20.070312 -3.382812 20.070312 -4.53125 L 20.070312 -12.902344 C 20.070312 -13.476562 20.242188 -13.992188 20.703125 -14.449219 C 21.101562 -14.851562 21.617188 -15.082031 22.25 -15.082031 L 26.035156 -15.082031 C 29.015625 -15.082031 31.828125 -15.65625 34.40625 -16.800781 C 36.929688 -17.949219 39.167969 -19.667969 41 -21.90625 C 42.550781 -23.796875 43.753906 -25.976562 44.558594 -28.386719 C 45.359375 -30.792969 45.820312 -33.316406 45.820312 -35.957031 C 45.820312 -38.59375 45.359375 -41.171875 44.558594 -43.582031 C 43.753906 -45.992188 42.550781 -48.167969 41 -50.121094 Z M 32.226562 -29.132812 C 30.792969 -27.296875 28.730469 -26.4375 26.035156 -26.4375 L 21.675781 -26.4375 C 21.21875 -26.4375 20.875 -26.550781 20.53125 -26.894531 C 20.183594 -27.179688 20.070312 -27.527344 20.070312 -27.984375 L 20.070312 -44.039062 C 20.070312 -44.441406 20.183594 -44.785156 20.53125 -45.128906 C 20.875 -45.472656 21.21875 -45.648438 21.675781 -45.648438 L 26.035156 -45.648438 C 28.097656 -45.648438 29.648438 -45.1875 30.792969 -44.269531 C 31.941406 -43.351562 32.742188 -42.320312 33.316406 -41.171875 C 33.832031 -40.027344 34.175781 -38.9375 34.292969 -37.90625 C 34.40625 -36.871094 34.464844 -36.183594 34.464844 -35.957031 C 34.464844 -34.578125 34.234375 -33.316406 33.890625 -32.171875 C 33.488281 -31.023438 32.917969 -29.992188 32.226562 -29.132812 Z M 32.226562 -29.132812 "/></g></g></g><g fill="#ffc1b2" fill-opacity="0.302"><g transform="translate(347.105841, 109.711474)"><g><path d="M 41.691406 -12.671875 L 41 -12.101562 C 40.371094 -11.527344 39.683594 -11.296875 38.9375 -11.296875 L 21.160156 -11.296875 C 20.757812 -11.296875 20.414062 -11.410156 20.183594 -11.640625 C 19.898438 -11.871094 19.785156 -12.214844 19.785156 -12.671875 L 19.785156 -51.898438 C 19.785156 -53.214844 20.242188 -54.421875 21.160156 -55.453125 L 21.21875 -55.511719 C 21.390625 -55.796875 21.390625 -56.082031 21.273438 -56.425781 C 21.101562 -56.714844 20.816406 -56.886719 20.472656 -56.886719 L 7.800781 -56.886719 C 7.398438 -56.886719 7.109375 -56.714844 6.996094 -56.425781 C 6.824219 -56.082031 6.824219 -55.796875 7.054688 -55.511719 C 7.972656 -54.476562 8.429688 -53.273438 8.429688 -51.953125 L 8.429688 -1.261719 C 8.429688 -0.859375 8.542969 -0.515625 8.832031 -0.285156 C 9.058594 0 9.40625 0.113281 9.804688 0.113281 L 38.9375 0.113281 C 39.683594 0.113281 40.371094 0.402344 41 0.917969 L 41.691406 1.492188 C 41.976562 1.71875 42.261719 1.71875 42.605469 1.546875 C 42.894531 1.433594 43.066406 1.148438 43.066406 0.746094 L 43.066406 -11.929688 C 43.066406 -12.273438 42.894531 -12.558594 42.605469 -12.730469 C 42.261719 -12.84375 41.976562 -12.84375 41.691406 -12.671875 Z M 41.691406 -12.671875 "/></g></g></g><g fill="#ffc1b2" fill-opacity="0.302"><g transform="translate(393.66584, 109.711474)"><g><path d="M 49.144531 -56.945312 L 36.472656 -56.945312 C 36.070312 -56.945312 35.785156 -56.773438 35.667969 -56.484375 C 35.496094 -56.140625 35.496094 -55.855469 35.726562 -55.566406 C 36.644531 -54.476562 37.160156 -53.273438 37.160156 -51.953125 L 37.160156 -18.523438 C 37.160156 -16.746094 36.699219 -15.367188 35.898438 -14.449219 C 35.09375 -13.476562 34.175781 -12.789062 33.144531 -12.328125 C 32.113281 -11.871094 31.136719 -11.582031 30.222656 -11.46875 C 29.304688 -11.355469 28.730469 -11.355469 28.5 -11.355469 C 28.269531 -11.355469 27.640625 -11.355469 26.722656 -11.46875 C 25.804688 -11.582031 24.832031 -11.871094 23.796875 -12.328125 C 22.765625 -12.789062 21.847656 -13.476562 21.046875 -14.449219 C 20.242188 -15.367188 19.839844 -16.746094 19.839844 -18.523438 L 19.839844 -51.953125 C 19.839844 -53.332031 20.300781 -54.535156 21.21875 -55.566406 C 21.390625 -55.855469 21.390625 -56.140625 21.273438 -56.484375 C 21.101562 -56.773438 20.816406 -56.945312 20.472656 -56.945312 L 7.800781 -56.945312 C 7.398438 -56.945312 7.109375 -56.773438 6.996094 -56.484375 C 6.824219 -56.140625 6.824219 -55.855469 7.054688 -55.566406 C 7.972656 -54.535156 8.429688 -53.332031 8.429688 -51.953125 L 8.429688 -18.523438 C 8.429688 -15.65625 9.003906 -13.015625 10.148438 -10.609375 C 11.296875 -8.199219 12.902344 -6.136719 15.082031 -4.414062 C 16.917969 -2.925781 18.980469 -1.835938 21.273438 -1.089844 C 23.570312 -0.285156 25.976562 0.0585938 28.5 0.0585938 C 31.023438 0.0585938 33.375 -0.285156 35.667969 -1.089844 C 37.960938 -1.835938 40.027344 -2.925781 41.863281 -4.414062 C 44.039062 -6.136719 45.648438 -8.199219 46.792969 -10.609375 C 47.941406 -13.015625 48.515625 -15.65625 48.515625 -18.523438 L 48.515625 -51.953125 C 48.515625 -53.214844 48.972656 -54.421875 49.890625 -55.566406 C 50.121094 -55.855469 50.121094 -56.140625 49.949219 -56.484375 C 49.777344 -56.773438 49.488281 -56.945312 49.144531 -56.945312 Z M 49.144531 -56.945312 "/></g></g></g><g fill="#ffc1b2" fill-opacity="0.302"><g transform="translate(450.661707, 109.711474)"><g><path d="M 47.136719 -42.894531 L 46.851562 -43.238281 C 46.046875 -44.039062 45.53125 -44.957031 45.1875 -45.992188 C 44.15625 -49.203125 42.035156 -51.839844 38.9375 -53.90625 C 37.21875 -54.992188 35.265625 -55.855469 33.089844 -56.425781 C 30.910156 -57 28.671875 -57.289062 26.265625 -57.289062 C 23.855469 -57.289062 21.503906 -56.945312 19.269531 -56.371094 C 17.03125 -55.796875 15.023438 -54.9375 13.246094 -53.847656 C 10.839844 -52.355469 9.058594 -50.578125 7.800781 -48.457031 C 6.539062 -46.335938 5.964844 -44.039062 5.964844 -41.519531 C 5.964844 -36.699219 8.199219 -32.570312 12.789062 -29.1875 C 14.394531 -27.925781 16.113281 -26.894531 18.007812 -25.976562 C 19.898438 -25.058594 21.847656 -24.140625 23.796875 -23.339844 C 24.945312 -22.765625 26.207031 -22.191406 27.46875 -21.617188 C 28.730469 -21.046875 29.875 -20.414062 30.910156 -19.839844 C 31.941406 -19.210938 32.800781 -18.578125 33.488281 -17.949219 C 34.175781 -17.261719 34.523438 -16.628906 34.523438 -16 C 34.523438 -15.195312 34.234375 -14.449219 33.660156 -13.878906 C 33.089844 -13.304688 32.34375 -12.789062 31.480469 -12.445312 C 30.621094 -12.101562 29.703125 -11.8125 28.671875 -11.640625 C 27.640625 -11.410156 26.722656 -11.355469 25.804688 -11.355469 C 24.660156 -11.355469 23.511719 -11.46875 22.25 -11.753906 C 20.988281 -11.984375 19.898438 -12.445312 19.039062 -13.074219 C 18.808594 -13.246094 18.636719 -13.476562 18.636719 -13.761719 C 18.578125 -14.050781 18.636719 -14.277344 18.867188 -14.507812 L 18.925781 -14.566406 C 19.097656 -14.851562 19.097656 -15.140625 18.980469 -15.484375 C 18.808594 -15.828125 18.523438 -16 18.179688 -16 L 5.503906 -16 C 5.105469 -16 4.816406 -15.828125 4.703125 -15.484375 C 4.53125 -15.140625 4.53125 -14.851562 4.757812 -14.566406 L 4.988281 -14.335938 C 5.792969 -13.417969 6.308594 -12.445312 6.652344 -11.46875 C 7.683594 -8.144531 9.75 -5.503906 12.960938 -3.496094 C 14.679688 -2.351562 16.6875 -1.492188 18.867188 -0.917969 C 21.046875 -0.285156 23.398438 0 25.804688 0 C 28.671875 0 31.367188 -0.402344 33.832031 -1.203125 C 36.300781 -2.007812 38.421875 -3.097656 40.199219 -4.53125 C 41.976562 -5.90625 43.351562 -7.625 44.386719 -9.578125 C 45.359375 -11.527344 45.875 -13.648438 45.875 -16 C 45.875 -18.464844 45.300781 -20.644531 44.214844 -22.480469 C 43.125 -24.3125 41.746094 -25.921875 40.027344 -27.296875 C 38.304688 -28.671875 36.472656 -29.820312 34.40625 -30.851562 C 32.34375 -31.882812 30.335938 -32.800781 28.386719 -33.71875 C 27.066406 -34.292969 25.746094 -34.867188 24.429688 -35.496094 C 23.109375 -36.070312 21.90625 -36.699219 20.875 -37.390625 C 19.839844 -38.019531 18.980469 -38.707031 18.292969 -39.394531 C 17.605469 -40.085938 17.316406 -40.773438 17.316406 -41.519531 C 17.316406 -42.148438 17.546875 -42.722656 18.121094 -43.296875 C 18.636719 -43.867188 19.324219 -44.328125 20.183594 -44.730469 C 20.988281 -45.074219 21.964844 -45.359375 23.050781 -45.589844 C 24.085938 -45.820312 25.175781 -45.933594 26.265625 -45.933594 C 27.527344 -45.933594 28.789062 -45.761719 29.933594 -45.53125 C 31.082031 -45.246094 32 -44.84375 32.800781 -44.328125 C 33.03125 -44.15625 33.203125 -43.925781 33.203125 -43.640625 C 33.203125 -43.351562 33.144531 -43.125 32.972656 -42.953125 L 32.972656 -42.894531 C 32.742188 -42.550781 32.742188 -42.261719 32.917969 -41.976562 C 33.03125 -41.632812 33.316406 -41.519531 33.71875 -41.519531 L 46.390625 -41.519531 C 46.734375 -41.519531 47.023438 -41.632812 47.195312 -41.976562 C 47.308594 -42.261719 47.308594 -42.550781 47.136719 -42.894531 Z M 47.136719 -42.894531 "/></g></g></g><g fill="#ffc1b2" fill-opacity="0.502"><g transform="translate(298.164523, 110.355738)"><g><path d="M 41 -50.121094 C 39.167969 -52.296875 36.929688 -54.019531 34.40625 -55.222656 C 31.828125 -56.371094 29.015625 -57 26.035156 -57 L 7.742188 -57 C 7.339844 -57 7.054688 -56.828125 6.9375 -56.484375 C 6.765625 -56.140625 6.824219 -55.855469 7.109375 -55.566406 C 8.144531 -54.421875 8.714844 -53.042969 8.714844 -51.496094 L 8.714844 -5.503906 C 8.714844 -3.898438 8.144531 -2.582031 7.109375 -1.433594 C 6.824219 -1.089844 6.765625 -0.804688 6.9375 -0.457031 C 7.054688 -0.113281 7.339844 0 7.742188 0 L 20.703125 0 C 21.046875 0 21.332031 -0.113281 21.445312 -0.457031 C 21.5625 -0.804688 21.5625 -1.089844 21.332031 -1.433594 C 20.472656 -2.351562 20.070312 -3.382812 20.070312 -4.53125 L 20.070312 -12.902344 C 20.070312 -13.476562 20.242188 -13.992188 20.703125 -14.449219 C 21.101562 -14.851562 21.617188 -15.082031 22.25 -15.082031 L 26.035156 -15.082031 C 29.015625 -15.082031 31.828125 -15.65625 34.40625 -16.800781 C 36.929688 -17.949219 39.167969 -19.667969 41 -21.90625 C 42.550781 -23.796875 43.753906 -25.976562 44.558594 -28.386719 C 45.359375 -30.792969 45.820312 -33.316406 45.820312 -35.957031 C 45.820312 -38.59375 45.359375 -41.171875 44.558594 -43.582031 C 43.753906 -45.992188 42.550781 -48.167969 41 -50.121094 Z M 32.226562 -29.132812 C 30.792969 -27.296875 28.730469 -26.4375 26.035156 -26.4375 L 21.675781 -26.4375 C 21.21875 -26.4375 20.875 -26.550781 20.53125 -26.894531 C 20.183594 -27.179688 20.070312 -27.527344 20.070312 -27.984375 L 20.070312 -44.039062 C 20.070312 -44.441406 20.183594 -44.785156 20.53125 -45.128906 C 20.875 -45.472656 21.21875 -45.648438 21.675781 -45.648438 L 26.035156 -45.648438 C 28.097656 -45.648438 29.648438 -45.1875 30.792969 -44.269531 C 31.941406 -43.351562 32.742188 -42.320312 33.316406 -41.171875 C 33.832031 -40.027344 34.175781 -38.9375 34.292969 -37.90625 C 34.40625 -36.871094 34.464844 -36.183594 34.464844 -35.957031 C 34.464844 -34.578125 34.234375 -33.316406 33.890625 -32.171875 C 33.488281 -31.023438 32.917969 -29.992188 32.226562 -29.132812 Z M 32.226562 -29.132812 "/></g></g></g><g fill="#ffc1b2" fill-opacity="0.502"><g transform="translate(348.623639, 110.355738)"><g><path d="M 41.691406 -12.671875 L 41 -12.101562 C 40.371094 -11.527344 39.683594 -11.296875 38.9375 -11.296875 L 21.160156 -11.296875 C 20.757812 -11.296875 20.414062 -11.410156 20.183594 -11.640625 C 19.898438 -11.871094 19.785156 -12.214844 19.785156 -12.671875 L 19.785156 -51.898438 C 19.785156 -53.214844 20.242188 -54.421875 21.160156 -55.453125 L 21.21875 -55.511719 C 21.390625 -55.796875 21.390625 -56.082031 21.273438 -56.425781 C 21.101562 -56.714844 20.816406 -56.886719 20.472656 -56.886719 L 7.800781 -56.886719 C 7.398438 -56.886719 7.109375 -56.714844 6.996094 -56.425781 C 6.824219 -56.082031 6.824219 -55.796875 7.054688 -55.511719 C 7.972656 -54.476562 8.429688 -53.273438 8.429688 -51.953125 L 8.429688 -1.261719 C 8.429688 -0.859375 8.542969 -0.515625 8.832031 -0.285156 C 9.058594 0 9.40625 0.113281 9.804688 0.113281 L 38.9375 0.113281 C 39.683594 0.113281 40.371094 0.402344 41 0.917969 L 41.691406 1.492188 C 41.976562 1.71875 42.261719 1.71875 42.605469 1.546875 C 42.894531 1.433594 43.066406 1.148438 43.066406 0.746094 L 43.066406 -11.929688 C 43.066406 -12.273438 42.894531 -12.558594 42.605469 -12.730469 C 42.261719 -12.84375 41.976562 -12.84375 41.691406 -12.671875 Z M 41.691406 -12.671875 "/></g></g></g><g fill="#ffc1b2" fill-opacity="0.502"><g transform="translate(395.183639, 110.355738)"><g><path d="M 49.144531 -56.945312 L 36.472656 -56.945312 C 36.070312 -56.945312 35.785156 -56.773438 35.667969 -56.484375 C 35.496094 -56.140625 35.496094 -55.855469 35.726562 -55.566406 C 36.644531 -54.476562 37.160156 -53.273438 37.160156 -51.953125 L 37.160156 -18.523438 C 37.160156 -16.746094 36.699219 -15.367188 35.898438 -14.449219 C 35.09375 -13.476562 34.175781 -12.789062 33.144531 -12.328125 C 32.113281 -11.871094 31.136719 -11.582031 30.222656 -11.46875 C 29.304688 -11.355469 28.730469 -11.355469 28.5 -11.355469 C 28.269531 -11.355469 27.640625 -11.355469 26.722656 -11.46875 C 25.804688 -11.582031 24.832031 -11.871094 23.796875 -12.328125 C 22.765625 -12.789062 21.847656 -13.476562 21.046875 -14.449219 C 20.242188 -15.367188 19.839844 -16.746094 19.839844 -18.523438 L 19.839844 -51.953125 C 19.839844 -53.332031 20.300781 -54.535156 21.21875 -55.566406 C 21.390625 -55.855469 21.390625 -56.140625 21.273438 -56.484375 C 21.101562 -56.773438 20.816406 -56.945312 20.472656 -56.945312 L 7.800781 -56.945312 C 7.398438 -56.945312 7.109375 -56.773438 6.996094 -56.484375 C 6.824219 -56.140625 6.824219 -55.855469 7.054688 -55.566406 C 7.972656 -54.535156 8.429688 -53.332031 8.429688 -51.953125 L 8.429688 -18.523438 C 8.429688 -15.65625 9.003906 -13.015625 10.148438 -10.609375 C 11.296875 -8.199219 12.902344 -6.136719 15.082031 -4.414062 C 16.917969 -2.925781 18.980469 -1.835938 21.273438 -1.089844 C 23.570312 -0.285156 25.976562 0.0585938 28.5 0.0585938 C 31.023438 0.0585938 33.375 -0.285156 35.667969 -1.089844 C 37.960938 -1.835938 40.027344 -2.925781 41.863281 -4.414062 C 44.039062 -6.136719 45.648438 -8.199219 46.792969 -10.609375 C 47.941406 -13.015625 48.515625 -15.65625 48.515625 -18.523438 L 48.515625 -51.953125 C 48.515625 -53.214844 48.972656 -54.421875 49.890625 -55.566406 C 50.121094 -55.855469 50.121094 -56.140625 49.949219 -56.484375 C 49.777344 -56.773438 49.488281 -56.945312 49.144531 -56.945312 Z M 49.144531 -56.945312 "/></g></g></g><g fill="#ffc1b2" fill-opacity="0.502"><g transform="translate(452.179505, 110.355738)"><g><path d="M 47.136719 -42.894531 L 46.851562 -43.238281 C 46.046875 -44.039062 45.53125 -44.957031 45.1875 -45.992188 C 44.15625 -49.203125 42.035156 -51.839844 38.9375 -53.90625 C 37.21875 -54.992188 35.265625 -55.855469 33.089844 -56.425781 C 30.910156 -57 28.671875 -57.289062 26.265625 -57.289062 C 23.855469 -57.289062 21.503906 -56.945312 19.269531 -56.371094 C 17.03125 -55.796875 15.023438 -54.9375 13.246094 -53.847656 C 10.839844 -52.355469 9.058594 -50.578125 7.800781 -48.457031 C 6.539062 -46.335938 5.964844 -44.039062 5.964844 -41.519531 C 5.964844 -36.699219 8.199219 -32.570312 12.789062 -29.1875 C 14.394531 -27.925781 16.113281 -26.894531 18.007812 -25.976562 C 19.898438 -25.058594 21.847656 -24.140625 23.796875 -23.339844 C 24.945312 -22.765625 26.207031 -22.191406 27.46875 -21.617188 C 28.730469 -21.046875 29.875 -20.414062 30.910156 -19.839844 C 31.941406 -19.210938 32.800781 -18.578125 33.488281 -17.949219 C 34.175781 -17.261719 34.523438 -16.628906 34.523438 -16 C 34.523438 -15.195312 34.234375 -14.449219 33.660156 -13.878906 C 33.089844 -13.304688 32.34375 -12.789062 31.480469 -12.445312 C 30.621094 -12.101562 29.703125 -11.8125 28.671875 -11.640625 C 27.640625 -11.410156 26.722656 -11.355469 25.804688 -11.355469 C 24.660156 -11.355469 23.511719 -11.46875 22.25 -11.753906 C 20.988281 -11.984375 19.898438 -12.445312 19.039062 -13.074219 C 18.808594 -13.246094 18.636719 -13.476562 18.636719 -13.761719 C 18.578125 -14.050781 18.636719 -14.277344 18.867188 -14.507812 L 18.925781 -14.566406 C 19.097656 -14.851562 19.097656 -15.140625 18.980469 -15.484375 C 18.808594 -15.828125 18.523438 -16 18.179688 -16 L 5.503906 -16 C 5.105469 -16 4.816406 -15.828125 4.703125 -15.484375 C 4.53125 -15.140625 4.53125 -14.851562 4.757812 -14.566406 L 4.988281 -14.335938 C 5.792969 -13.417969 6.308594 -12.445312 6.652344 -11.46875 C 7.683594 -8.144531 9.75 -5.503906 12.960938 -3.496094 C 14.679688 -2.351562 16.6875 -1.492188 18.867188 -0.917969 C 21.046875 -0.285156 23.398438 0 25.804688 0 C 28.671875 0 31.367188 -0.402344 33.832031 -1.203125 C 36.300781 -2.007812 38.421875 -3.097656 40.199219 -4.53125 C 41.976562 -5.90625 43.351562 -7.625 44.386719 -9.578125 C 45.359375 -11.527344 45.875 -13.648438 45.875 -16 C 45.875 -18.464844 45.300781 -20.644531 44.214844 -22.480469 C 43.125 -24.3125 41.746094 -25.921875 40.027344 -27.296875 C 38.304688 -28.671875 36.472656 -29.820312 34.40625 -30.851562 C 32.34375 -31.882812 30.335938 -32.800781 28.386719 -33.71875 C 27.066406 -34.292969 25.746094 -34.867188 24.429688 -35.496094 C 23.109375 -36.070312 21.90625 -36.699219 20.875 -37.390625 C 19.839844 -38.019531 18.980469 -38.707031 18.292969 -39.394531 C 17.605469 -40.085938 17.316406 -40.773438 17.316406 -41.519531 C 17.316406 -42.148438 17.546875 -42.722656 18.121094 -43.296875 C 18.636719 -43.867188 19.324219 -44.328125 20.183594 -44.730469 C 20.988281 -45.074219 21.964844 -45.359375 23.050781 -45.589844 C 24.085938 -45.820312 25.175781 -45.933594 26.265625 -45.933594 C 27.527344 -45.933594 28.789062 -45.761719 29.933594 -45.53125 C 31.082031 -45.246094 32 -44.84375 32.800781 -44.328125 C 33.03125 -44.15625 33.203125 -43.925781 33.203125 -43.640625 C 33.203125 -43.351562 33.144531 -43.125 32.972656 -42.953125 L 32.972656 -42.894531 C 32.742188 -42.550781 32.742188 -42.261719 32.917969 -41.976562 C 33.03125 -41.632812 33.316406 -41.519531 33.71875 -41.519531 L 46.390625 -41.519531 C 46.734375 -41.519531 47.023438 -41.632812 47.195312 -41.976562 C 47.308594 -42.261719 47.308594 -42.550781 47.136719 -42.894531 Z M 47.136719 -42.894531 "/></g></g></g><g fill="#d9d9d9" fill-opacity="1"><g transform="translate(299.682321, 111.000005)"><g><path d="M 41 -50.121094 C 39.167969 -52.296875 36.929688 -54.019531 34.40625 -55.222656 C 31.828125 -56.371094 29.015625 -57 26.035156 -57 L 7.742188 -57 C 7.339844 -57 7.054688 -56.828125 6.9375 -56.484375 C 6.765625 -56.140625 6.824219 -55.855469 7.109375 -55.566406 C 8.144531 -54.421875 8.714844 -53.042969 8.714844 -51.496094 L 8.714844 -5.503906 C 8.714844 -3.898438 8.144531 -2.582031 7.109375 -1.433594 C 6.824219 -1.089844 6.765625 -0.804688 6.9375 -0.457031 C 7.054688 -0.113281 7.339844 0 7.742188 0 L 20.703125 0 C 21.046875 0 21.332031 -0.113281 21.445312 -0.457031 C 21.5625 -0.804688 21.5625 -1.089844 21.332031 -1.433594 C 20.472656 -2.351562 20.070312 -3.382812 20.070312 -4.53125 L 20.070312 -12.902344 C 20.070312 -13.476562 20.242188 -13.992188 20.703125 -14.449219 C 21.101562 -14.851562 21.617188 -15.082031 22.25 -15.082031 L 26.035156 -15.082031 C 29.015625 -15.082031 31.828125 -15.65625 34.40625 -16.800781 C 36.929688 -17.949219 39.167969 -19.667969 41 -21.90625 C 42.550781 -23.796875 43.753906 -25.976562 44.558594 -28.386719 C 45.359375 -30.792969 45.820312 -33.316406 45.820312 -35.957031 C 45.820312 -38.59375 45.359375 -41.171875 44.558594 -43.582031 C 43.753906 -45.992188 42.550781 -48.167969 41 -50.121094 Z M 32.226562 -29.132812 C 30.792969 -27.296875 28.730469 -26.4375 26.035156 -26.4375 L 21.675781 -26.4375 C 21.21875 -26.4375 20.875 -26.550781 20.53125 -26.894531 C 20.183594 -27.179688 20.070312 -27.527344 20.070312 -27.984375 L 20.070312 -44.039062 C 20.070312 -44.441406 20.183594 -44.785156 20.53125 -45.128906 C 20.875 -45.472656 21.21875 -45.648438 21.675781 -45.648438 L 26.035156 -45.648438 C 28.097656 -45.648438 29.648438 -45.1875 30.792969 -44.269531 C 31.941406 -43.351562 32.742188 -42.320312 33.316406 -41.171875 C 33.832031 -40.027344 34.175781 -38.9375 34.292969 -37.90625 C 34.40625 -36.871094 34.464844 -36.183594 34.464844 -35.957031 C 34.464844 -34.578125 34.234375 -33.316406 33.890625 -32.171875 C 33.488281 -31.023438 32.917969 -29.992188 32.226562 -29.132812 Z M 32.226562 -29.132812 "/></g></g></g><g fill="#d9d9d9" fill-opacity="1"><g transform="translate(350.141437, 111.000005)"><g><path d="M 41.691406 -12.671875 L 41 -12.101562 C 40.371094 -11.527344 39.683594 -11.296875 38.9375 -11.296875 L 21.160156 -11.296875 C 20.757812 -11.296875 20.414062 -11.410156 20.183594 -11.640625 C 19.898438 -11.871094 19.785156 -12.214844 19.785156 -12.671875 L 19.785156 -51.898438 C 19.785156 -53.214844 20.242188 -54.421875 21.160156 -55.453125 L 21.21875 -55.511719 C 21.390625 -55.796875 21.390625 -56.082031 21.273438 -56.425781 C 21.101562 -56.714844 20.816406 -56.886719 20.472656 -56.886719 L 7.800781 -56.886719 C 7.398438 -56.886719 7.109375 -56.714844 6.996094 -56.425781 C 6.824219 -56.082031 6.824219 -55.796875 7.054688 -55.511719 C 7.972656 -54.476562 8.429688 -53.273438 8.429688 -51.953125 L 8.429688 -1.261719 C 8.429688 -0.859375 8.542969 -0.515625 8.832031 -0.285156 C 9.058594 0 9.40625 0.113281 9.804688 0.113281 L 38.9375 0.113281 C 39.683594 0.113281 40.371094 0.402344 41 0.917969 L 41.691406 1.492188 C 41.976562 1.71875 42.261719 1.71875 42.605469 1.546875 C 42.894531 1.433594 43.066406 1.148438 43.066406 0.746094 L 43.066406 -11.929688 C 43.066406 -12.273438 42.894531 -12.558594 42.605469 -12.730469 C 42.261719 -12.84375 41.976562 -12.84375 41.691406 -12.671875 Z M 41.691406 -12.671875 "/></g></g></g><g fill="#d9d9d9" fill-opacity="1"><g transform="translate(396.701437, 111.000005)"><g><path d="M 49.144531 -56.945312 L 36.472656 -56.945312 C 36.070312 -56.945312 35.785156 -56.773438 35.667969 -56.484375 C 35.496094 -56.140625 35.496094 -55.855469 35.726562 -55.566406 C 36.644531 -54.476562 37.160156 -53.273438 37.160156 -51.953125 L 37.160156 -18.523438 C 37.160156 -16.746094 36.699219 -15.367188 35.898438 -14.449219 C 35.09375 -13.476562 34.175781 -12.789062 33.144531 -12.328125 C 32.113281 -11.871094 31.136719 -11.582031 30.222656 -11.46875 C 29.304688 -11.355469 28.730469 -11.355469 28.5 -11.355469 C 28.269531 -11.355469 27.640625 -11.355469 26.722656 -11.46875 C 25.804688 -11.582031 24.832031 -11.871094 23.796875 -12.328125 C 22.765625 -12.789062 21.847656 -13.476562 21.046875 -14.449219 C 20.242188 -15.367188 19.839844 -16.746094 19.839844 -18.523438 L 19.839844 -51.953125 C 19.839844 -53.332031 20.300781 -54.535156 21.21875 -55.566406 C 21.390625 -55.855469 21.390625 -56.140625 21.273438 -56.484375 C 21.101562 -56.773438 20.816406 -56.945312 20.472656 -56.945312 L 7.800781 -56.945312 C 7.398438 -56.945312 7.109375 -56.773438 6.996094 -56.484375 C 6.824219 -56.140625 6.824219 -55.855469 7.054688 -55.566406 C 7.972656 -54.535156 8.429688 -53.332031 8.429688 -51.953125 L 8.429688 -18.523438 C 8.429688 -15.65625 9.003906 -13.015625 10.148438 -10.609375 C 11.296875 -8.199219 12.902344 -6.136719 15.082031 -4.414062 C 16.917969 -2.925781 18.980469 -1.835938 21.273438 -1.089844 C 23.570312 -0.285156 25.976562 0.0585938 28.5 0.0585938 C 31.023438 0.0585938 33.375 -0.285156 35.667969 -1.089844 C 37.960938 -1.835938 40.027344 -2.925781 41.863281 -4.414062 C 44.039062 -6.136719 45.648438 -8.199219 46.792969 -10.609375 C 47.941406 -13.015625 48.515625 -15.65625 48.515625 -18.523438 L 48.515625 -51.953125 C 48.515625 -53.214844 48.972656 -54.421875 49.890625 -55.566406 C 50.121094 -55.855469 50.121094 -56.140625 49.949219 -56.484375 C 49.777344 -56.773438 49.488281 -56.945312 49.144531 -56.945312 Z M 49.144531 -56.945312 "/></g></g></g><g fill="#d9d9d9" fill-opacity="1"><g transform="translate(453.697303, 111.000005)"><g><path d="M 47.136719 -42.894531 L 46.851562 -43.238281 C 46.046875 -44.039062 45.53125 -44.957031 45.1875 -45.992188 C 44.15625 -49.203125 42.035156 -51.839844 38.9375 -53.90625 C 37.21875 -54.992188 35.265625 -55.855469 33.089844 -56.425781 C 30.910156 -57 28.671875 -57.289062 26.265625 -57.289062 C 23.855469 -57.289062 21.503906 -56.945312 19.269531 -56.371094 C 17.03125 -55.796875 15.023438 -54.9375 13.246094 -53.847656 C 10.839844 -52.355469 9.058594 -50.578125 7.800781 -48.457031 C 6.539062 -46.335938 5.964844 -44.039062 5.964844 -41.519531 C 5.964844 -36.699219 8.199219 -32.570312 12.789062 -29.1875 C 14.394531 -27.925781 16.113281 -26.894531 18.007812 -25.976562 C 19.898438 -25.058594 21.847656 -24.140625 23.796875 -23.339844 C 24.945312 -22.765625 26.207031 -22.191406 27.46875 -21.617188 C 28.730469 -21.046875 29.875 -20.414062 30.910156 -19.839844 C 31.941406 -19.210938 32.800781 -18.578125 33.488281 -17.949219 C 34.175781 -17.261719 34.523438 -16.628906 34.523438 -16 C 34.523438 -15.195312 34.234375 -14.449219 33.660156 -13.878906 C 33.089844 -13.304688 32.34375 -12.789062 31.480469 -12.445312 C 30.621094 -12.101562 29.703125 -11.8125 28.671875 -11.640625 C 27.640625 -11.410156 26.722656 -11.355469 25.804688 -11.355469 C 24.660156 -11.355469 23.511719 -11.46875 22.25 -11.753906 C 20.988281 -11.984375 19.898438 -12.445312 19.039062 -13.074219 C 18.808594 -13.246094 18.636719 -13.476562 18.636719 -13.761719 C 18.578125 -14.050781 18.636719 -14.277344 18.867188 -14.507812 L 18.925781 -14.566406 C 19.097656 -14.851562 19.097656 -15.140625 18.980469 -15.484375 C 18.808594 -15.828125 18.523438 -16 18.179688 -16 L 5.503906 -16 C 5.105469 -16 4.816406 -15.828125 4.703125 -15.484375 C 4.53125 -15.140625 4.53125 -14.851562 4.757812 -14.566406 L 4.988281 -14.335938 C 5.792969 -13.417969 6.308594 -12.445312 6.652344 -11.46875 C 7.683594 -8.144531 9.75 -5.503906 12.960938 -3.496094 C 14.679688 -2.351562 16.6875 -1.492188 18.867188 -0.917969 C 21.046875 -0.285156 23.398438 0 25.804688 0 C 28.671875 0 31.367188 -0.402344 33.832031 -1.203125 C 36.300781 -2.007812 38.421875 -3.097656 40.199219 -4.53125 C 41.976562 -5.90625 43.351562 -7.625 44.386719 -9.578125 C 45.359375 -11.527344 45.875 -13.648438 45.875 -16 C 45.875 -18.464844 45.300781 -20.644531 44.214844 -22.480469 C 43.125 -24.3125 41.746094 -25.921875 40.027344 -27.296875 C 38.304688 -28.671875 36.472656 -29.820312 34.40625 -30.851562 C 32.34375 -31.882812 30.335938 -32.800781 28.386719 -33.71875 C 27.066406 -34.292969 25.746094 -34.867188 24.429688 -35.496094 C 23.109375 -36.070312 21.90625 -36.699219 20.875 -37.390625 C 19.839844 -38.019531 18.980469 -38.707031 18.292969 -39.394531 C 17.605469 -40.085938 17.316406 -40.773438 17.316406 -41.519531 C 17.316406 -42.148438 17.546875 -42.722656 18.121094 -43.296875 C 18.636719 -43.867188 19.324219 -44.328125 20.183594 -44.730469 C 20.988281 -45.074219 21.964844 -45.359375 23.050781 -45.589844 C 24.085938 -45.820312 25.175781 -45.933594 26.265625 -45.933594 C 27.527344 -45.933594 28.789062 -45.761719 29.933594 -45.53125 C 31.082031 -45.246094 32 -44.84375 32.800781 -44.328125 C 33.03125 -44.15625 33.203125 -43.925781 33.203125 -43.640625 C 33.203125 -43.351562 33.144531 -43.125 32.972656 -42.953125 L 32.972656 -42.894531 C 32.742188 -42.550781 32.742188 -42.261719 32.917969 -41.976562 C 33.03125 -41.632812 33.316406 -41.519531 33.71875 -41.519531 L 46.390625 -41.519531 C 46.734375 -41.519531 47.023438 -41.632812 47.195312 -41.976562 C 47.308594 -42.261719 47.308594 -42.550781 47.136719 -42.894531 Z M 47.136719 -42.894531 "/></g></g></g><g fill="#ffc1b2" fill-opacity="0.302"><g transform="translate(215.822509, 183.961471)"><g><path d="M 47.136719 -42.894531 L 46.851562 -43.238281 C 46.046875 -44.039062 45.53125 -44.957031 45.1875 -45.992188 C 44.15625 -49.203125 42.035156 -51.839844 38.9375 -53.90625 C 37.21875 -54.992188 35.265625 -55.855469 33.089844 -56.425781 C 30.910156 -57 28.671875 -57.289062 26.265625 -57.289062 C 23.855469 -57.289062 21.503906 -56.945312 19.269531 -56.371094 C 17.03125 -55.796875 15.023438 -54.9375 13.246094 -53.847656 C 10.839844 -52.355469 9.058594 -50.578125 7.800781 -48.457031 C 6.539062 -46.335938 5.964844 -44.039062 5.964844 -41.519531 C 5.964844 -36.699219 8.199219 -32.570312 12.789062 -29.1875 C 14.394531 -27.925781 16.113281 -26.894531 18.007812 -25.976562 C 19.898438 -25.058594 21.847656 -24.140625 23.796875 -23.339844 C 24.945312 -22.765625 26.207031 -22.191406 27.46875 -21.617188 C 28.730469 -21.046875 29.875 -20.414062 30.910156 -19.839844 C 31.941406 -19.210938 32.800781 -18.578125 33.488281 -17.949219 C 34.175781 -17.261719 34.523438 -16.628906 34.523438 -16 C 34.523438 -15.195312 34.234375 -14.449219 33.660156 -13.878906 C 33.089844 -13.304688 32.34375 -12.789062 31.480469 -12.445312 C 30.621094 -12.101562 29.703125 -11.8125 28.671875 -11.640625 C 27.640625 -11.410156 26.722656 -11.355469 25.804688 -11.355469 C 24.660156 -11.355469 23.511719 -11.46875 22.25 -11.753906 C 20.988281 -11.984375 19.898438 -12.445312 19.039062 -13.074219 C 18.808594 -13.246094 18.636719 -13.476562 18.636719 -13.761719 C 18.578125 -14.050781 18.636719 -14.277344 18.867188 -14.507812 L 18.925781 -14.566406 C 19.097656 -14.851562 19.097656 -15.140625 18.980469 -15.484375 C 18.808594 -15.828125 18.523438 -16 18.179688 -16 L 5.503906 -16 C 5.105469 -16 4.816406 -15.828125 4.703125 -15.484375 C 4.53125 -15.140625 4.53125 -14.851562 4.757812 -14.566406 L 4.988281 -14.335938 C 5.792969 -13.417969 6.308594 -12.445312 6.652344 -11.46875 C 7.683594 -8.144531 9.75 -5.503906 12.960938 -3.496094 C 14.679688 -2.351562 16.6875 -1.492188 18.867188 -0.917969 C 21.046875 -0.285156 23.398438 0 25.804688 0 C 28.671875 0 31.367188 -0.402344 33.832031 -1.203125 C 36.300781 -2.007812 38.421875 -3.097656 40.199219 -4.53125 C 41.976562 -5.90625 43.351562 -7.625 44.386719 -9.578125 C 45.359375 -11.527344 45.875 -13.648438 45.875 -16 C 45.875 -18.464844 45.300781 -20.644531 44.214844 -22.480469 C 43.125 -24.3125 41.746094 -25.921875 40.027344 -27.296875 C 38.304688 -28.671875 36.472656 -29.820312 34.40625 -30.851562 C 32.34375 -31.882812 30.335938 -32.800781 28.386719 -33.71875 C 27.066406 -34.292969 25.746094 -34.867188 24.429688 -35.496094 C 23.109375 -36.070312 21.90625 -36.699219 20.875 -37.390625 C 19.839844 -38.019531 18.980469 -38.707031 18.292969 -39.394531 C 17.605469 -40.085938 17.316406 -40.773438 17.316406 -41.519531 C 17.316406 -42.148438 17.546875 -42.722656 18.121094 -43.296875 C 18.636719 -43.867188 19.324219 -44.328125 20.183594 -44.730469 C 20.988281 -45.074219 21.964844 -45.359375 23.050781 -45.589844 C 24.085938 -45.820312 25.175781 -45.933594 26.265625 -45.933594 C 27.527344 -45.933594 28.789062 -45.761719 29.933594 -45.53125 C 31.082031 -45.246094 32 -44.84375 32.800781 -44.328125 C 33.03125 -44.15625 33.203125 -43.925781 33.203125 -43.640625 C 33.203125 -43.351562 33.144531 -43.125 32.972656 -42.953125 L 32.972656 -42.894531 C 32.742188 -42.550781 32.742188 -42.261719 32.917969 -41.976562 C 33.03125 -41.632812 33.316406 -41.519531 33.71875 -41.519531 L 46.390625 -41.519531 C 46.734375 -41.519531 47.023438 -41.632812 47.195312 -41.976562 C 47.308594 -42.261719 47.308594 -42.550781 47.136719 -42.894531 Z M 47.136719 -42.894531 "/></g></g></g><g fill="#ffc1b2" fill-opacity="0.302"><g transform="translate(267.715123, 183.961471)"><g><path d="M 43.351562 -48.054688 C 41.171875 -50.921875 38.59375 -53.101562 35.726562 -54.648438 C 32.800781 -56.140625 29.761719 -56.945312 26.550781 -56.945312 C 23.339844 -56.945312 20.242188 -56.140625 17.316406 -54.648438 C 14.394531 -53.101562 11.871094 -50.921875 9.691406 -48.054688 C 7.625 -45.359375 6.078125 -42.320312 5.046875 -38.996094 C 3.957031 -35.667969 3.441406 -32.113281 3.441406 -28.441406 C 3.441406 -24.773438 3.957031 -21.21875 5.046875 -17.890625 C 6.078125 -14.507812 7.625 -11.527344 9.691406 -8.886719 C 11.871094 -6.019531 14.394531 -3.785156 17.316406 -2.292969 C 20.242188 -0.746094 23.339844 0 26.550781 0 C 29.761719 0 32.800781 -0.746094 35.726562 -2.292969 C 38.59375 -3.785156 41.171875 -6.019531 43.351562 -8.886719 C 45.417969 -11.527344 46.964844 -14.507812 48.054688 -17.890625 C 49.085938 -21.21875 49.660156 -24.773438 49.660156 -28.441406 C 49.660156 -32.113281 49.085938 -35.667969 48.054688 -38.996094 C 46.964844 -42.320312 45.417969 -45.359375 43.351562 -48.054688 Z M 26.550781 -11.355469 C 24.945312 -11.355469 23.398438 -11.8125 22.019531 -12.730469 C 20.585938 -13.648438 19.324219 -14.851562 18.292969 -16.402344 C 17.203125 -17.949219 16.34375 -19.785156 15.710938 -21.847656 C 15.082031 -23.914062 14.796875 -26.09375 14.796875 -28.441406 C 14.796875 -30.738281 15.082031 -32.972656 15.710938 -35.039062 C 16.34375 -37.101562 17.203125 -38.878906 18.292969 -40.484375 C 19.324219 -42.035156 20.585938 -43.296875 22.019531 -44.214844 C 23.398438 -45.128906 24.945312 -45.589844 26.550781 -45.589844 C 28.15625 -45.589844 29.648438 -45.128906 31.082031 -44.214844 C 32.457031 -43.296875 33.71875 -42.035156 34.75 -40.484375 C 35.785156 -38.878906 36.644531 -37.101562 37.273438 -35.039062 C 37.90625 -32.972656 38.25 -30.738281 38.25 -28.441406 C 38.25 -26.09375 37.90625 -23.914062 37.273438 -21.847656 C 36.644531 -19.785156 35.785156 -17.949219 34.75 -16.402344 C 33.71875 -14.851562 32.457031 -13.648438 31.082031 -12.730469 C 29.648438 -11.8125 28.15625 -11.355469 26.550781 -11.355469 Z M 26.550781 -11.355469 "/></g></g></g><g fill="#ffc1b2" fill-opacity="0.302"><g transform="translate(320.811874, 183.961471)"><g><path d="M 46.910156 -1.433594 L 46.046875 -2.121094 C 45.128906 -2.867188 44.328125 -3.785156 43.695312 -4.816406 L 36.585938 -16.171875 C 36.355469 -16.515625 36.242188 -16.917969 36.355469 -17.375 C 36.472656 -17.777344 36.699219 -18.121094 37.101562 -18.40625 C 38.535156 -19.441406 39.796875 -20.585938 40.828125 -21.90625 C 42.378906 -23.796875 43.582031 -25.976562 44.386719 -28.386719 C 45.1875 -30.792969 45.648438 -33.316406 45.648438 -35.957031 C 45.648438 -38.59375 45.1875 -41.171875 44.386719 -43.582031 C 43.582031 -45.992188 42.378906 -48.167969 40.828125 -50.121094 C 38.996094 -52.296875 36.757812 -54.019531 34.234375 -55.222656 C 31.65625 -56.371094 28.84375 -57 25.863281 -57 L 7.742188 -57 C 7.339844 -57 7.054688 -56.828125 6.9375 -56.484375 C 6.765625 -56.140625 6.824219 -55.855469 7.109375 -55.566406 C 8.027344 -54.535156 8.542969 -53.332031 8.542969 -51.953125 L 8.542969 -4.933594 C 8.542969 -3.613281 8.085938 -2.464844 7.226562 -1.492188 C 6.882812 -1.148438 6.824219 -0.859375 6.996094 -0.515625 C 7.109375 -0.171875 7.398438 0 7.855469 0 L 20.703125 0 C 21.046875 0 21.332031 -0.113281 21.445312 -0.457031 C 21.5625 -0.804688 21.5625 -1.089844 21.332031 -1.433594 C 20.359375 -2.464844 19.898438 -3.613281 19.898438 -4.988281 L 19.898438 -13.363281 C 19.898438 -13.820312 20.011719 -14.222656 20.359375 -14.566406 C 20.703125 -14.910156 21.101562 -15.082031 21.5625 -15.082031 L 22.9375 -15.082031 C 23.511719 -15.082031 24.027344 -14.796875 24.371094 -14.277344 L 31.425781 -2.925781 C 31.710938 -2.410156 31.65625 -1.949219 31.308594 -1.492188 L 31.253906 -1.433594 C 31.023438 -1.089844 31.023438 -0.804688 31.195312 -0.457031 C 31.308594 -0.113281 31.597656 0 32 0 L 46.507812 0 C 46.910156 0 47.136719 -0.171875 47.253906 -0.515625 C 47.367188 -0.859375 47.253906 -1.148438 46.910156 -1.433594 Z M 32.054688 -29.132812 C 30.621094 -27.296875 28.558594 -26.4375 25.863281 -26.4375 L 21.5625 -26.4375 C 21.101562 -26.4375 20.703125 -26.550781 20.359375 -26.894531 C 20.011719 -27.238281 19.898438 -27.640625 19.898438 -28.097656 L 19.898438 -43.925781 C 19.898438 -44.386719 20.011719 -44.785156 20.359375 -45.128906 C 20.703125 -45.472656 21.101562 -45.648438 21.5625 -45.648438 L 25.863281 -45.648438 C 27.925781 -45.648438 29.476562 -45.1875 30.621094 -44.269531 C 31.769531 -43.351562 32.570312 -42.320312 33.144531 -41.171875 C 33.660156 -40.027344 34.003906 -38.9375 34.121094 -37.90625 C 34.234375 -36.871094 34.292969 -36.183594 34.292969 -35.957031 C 34.292969 -34.578125 34.0625 -33.316406 33.71875 -32.171875 C 33.316406 -31.023438 32.742188 -29.992188 32.054688 -29.132812 Z M 32.054688 -29.132812 "/></g></g></g><g fill="#ffc1b2" fill-opacity="0.302"><g transform="translate(374.998078, 183.961471)"><g><path d="M 44.902344 -58.433594 L 44.84375 -58.378906 C 43.8125 -57.460938 42.664062 -57 41.347656 -57 L 11.871094 -57 C 10.492188 -57 9.347656 -57.460938 8.316406 -58.378906 L 8.316406 -58.433594 C 7.972656 -58.605469 7.683594 -58.605469 7.339844 -58.433594 C 6.996094 -58.261719 6.882812 -58.03125 6.882812 -57.6875 L 6.882812 -44.957031 C 6.882812 -44.558594 6.996094 -44.269531 7.339844 -44.15625 C 7.683594 -43.984375 7.972656 -43.984375 8.316406 -44.214844 C 9.347656 -45.128906 10.492188 -45.648438 11.871094 -45.648438 L 19.785156 -45.648438 C 20.070312 -45.648438 20.359375 -45.53125 20.585938 -45.300781 C 20.816406 -45.074219 20.929688 -44.785156 20.929688 -44.5 L 20.929688 -5.046875 C 20.929688 -3.671875 20.472656 -2.464844 19.554688 -1.492188 L 19.496094 -1.433594 C 19.269531 -1.089844 19.269531 -0.804688 19.441406 -0.457031 C 19.554688 -0.113281 19.839844 0 20.242188 0 L 32.972656 0 C 33.316406 0 33.546875 -0.113281 33.71875 -0.457031 C 33.890625 -0.804688 33.890625 -1.089844 33.71875 -1.433594 C 32.742188 -2.464844 32.285156 -3.613281 32.285156 -4.988281 L 32.285156 -44.5 C 32.285156 -44.785156 32.398438 -45.074219 32.628906 -45.300781 C 32.859375 -45.53125 33.089844 -45.648438 33.433594 -45.648438 L 41.347656 -45.648438 C 42.722656 -45.648438 43.867188 -45.128906 44.84375 -44.214844 L 44.902344 -44.214844 C 45.1875 -43.984375 45.472656 -43.984375 45.820312 -44.15625 C 46.164062 -44.269531 46.335938 -44.558594 46.335938 -44.957031 L 46.335938 -57.6875 C 46.335938 -58.03125 46.164062 -58.261719 45.820312 -58.433594 C 45.472656 -58.605469 45.1875 -58.605469 44.902344 -58.433594 Z M 44.902344 -58.433594 "/></g></g></g><g fill="#ffc1b2" fill-opacity="0.302"><g transform="translate(428.20951, 183.961471)"><g><path d="M 41.746094 -57.402344 C 40.773438 -56.484375 39.625 -56.082031 38.363281 -56.082031 L 7.800781 -56.082031 C 7.398438 -56.082031 7.109375 -55.910156 6.996094 -55.566406 C 6.824219 -55.222656 6.824219 -54.9375 7.054688 -54.648438 L 7.226562 -54.476562 C 8.144531 -53.445312 8.601562 -52.242188 8.601562 -50.863281 L 8.601562 -4.300781 C 8.601562 -3.613281 8.488281 -2.980469 8.257812 -2.351562 C 8.027344 -1.71875 7.683594 -1.148438 7.226562 -0.6875 L 7.054688 -0.515625 C 6.824219 -0.171875 6.824219 0.113281 6.996094 0.457031 C 7.109375 0.804688 7.398438 0.917969 7.800781 0.917969 L 38.363281 0.917969 C 39.625 0.917969 40.773438 1.375 41.746094 2.238281 C 42.035156 2.523438 42.378906 2.582031 42.722656 2.410156 C 43.066406 2.292969 43.296875 2.007812 43.296875 1.546875 L 43.296875 -11.238281 C 43.296875 -11.582031 43.125 -11.871094 42.78125 -12.042969 C 42.433594 -12.15625 42.089844 -12.101562 41.863281 -11.871094 C 40.828125 -10.894531 39.625 -10.4375 38.25 -10.4375 L 21.390625 -10.4375 C 20.988281 -10.4375 20.644531 -10.550781 20.359375 -10.839844 C 20.070312 -11.066406 19.957031 -11.410156 19.957031 -11.871094 L 19.957031 -20.472656 C 19.957031 -20.875 20.070312 -21.21875 20.359375 -21.503906 C 20.644531 -21.734375 20.988281 -21.90625 21.390625 -21.90625 L 26.4375 -21.90625 C 27.8125 -21.90625 29.015625 -21.390625 30.046875 -20.472656 C 30.335938 -20.242188 30.621094 -20.242188 30.964844 -20.414062 C 31.308594 -20.585938 31.480469 -20.875 31.480469 -21.21875 L 31.480469 -33.949219 C 31.480469 -34.292969 31.308594 -34.523438 30.964844 -34.695312 C 30.621094 -34.867188 30.335938 -34.867188 30.046875 -34.695312 C 29.015625 -33.71875 27.8125 -33.261719 26.4375 -33.261719 L 21.390625 -33.261719 C 20.988281 -33.261719 20.644531 -33.375 20.359375 -33.660156 C 20.070312 -33.890625 19.957031 -34.234375 19.957031 -34.695312 L 19.957031 -43.296875 C 19.957031 -43.695312 20.070312 -44.039062 20.359375 -44.328125 C 20.644531 -44.558594 20.988281 -44.730469 21.390625 -44.730469 L 38.25 -44.730469 C 39.625 -44.730469 40.828125 -44.214844 41.863281 -43.296875 C 42.089844 -43.007812 42.433594 -42.953125 42.78125 -43.125 C 43.125 -43.238281 43.296875 -43.523438 43.296875 -43.925781 L 43.296875 -56.773438 C 43.296875 -57.117188 43.066406 -57.402344 42.722656 -57.574219 C 42.378906 -57.6875 42.035156 -57.632812 41.746094 -57.402344 Z M 41.746094 -57.402344 "/></g></g></g><g fill="#ffc1b2" fill-opacity="0.302"><g transform="translate(478.381916, 183.961471)"><g><path d="M 43.351562 -48.054688 C 41.171875 -50.921875 38.59375 -53.101562 35.726562 -54.648438 C 32.800781 -56.140625 29.761719 -56.945312 26.550781 -56.945312 C 23.339844 -56.945312 20.242188 -56.140625 17.316406 -54.648438 C 14.394531 -53.101562 11.871094 -50.921875 9.691406 -48.054688 C 7.625 -45.359375 6.078125 -42.320312 5.046875 -38.996094 C 3.957031 -35.667969 3.441406 -32.113281 3.441406 -28.441406 C 3.441406 -24.773438 3.957031 -21.21875 5.046875 -17.890625 C 6.078125 -14.507812 7.625 -11.527344 9.691406 -8.886719 C 11.871094 -6.019531 14.394531 -3.785156 17.316406 -2.292969 C 20.242188 -0.746094 23.339844 0 26.550781 0 C 29.761719 0 32.800781 -0.746094 35.726562 -2.292969 C 38.59375 -3.785156 41.171875 -6.019531 43.351562 -8.886719 C 45.417969 -11.527344 46.964844 -14.507812 48.054688 -17.890625 C 49.085938 -21.21875 49.660156 -24.773438 49.660156 -28.441406 C 49.660156 -32.113281 49.085938 -35.667969 48.054688 -38.996094 C 46.964844 -42.320312 45.417969 -45.359375 43.351562 -48.054688 Z M 26.550781 -11.355469 C 24.945312 -11.355469 23.398438 -11.8125 22.019531 -12.730469 C 20.585938 -13.648438 19.324219 -14.851562 18.292969 -16.402344 C 17.203125 -17.949219 16.34375 -19.785156 15.710938 -21.847656 C 15.082031 -23.914062 14.796875 -26.09375 14.796875 -28.441406 C 14.796875 -30.738281 15.082031 -32.972656 15.710938 -35.039062 C 16.34375 -37.101562 17.203125 -38.878906 18.292969 -40.484375 C 19.324219 -42.035156 20.585938 -43.296875 22.019531 -44.214844 C 23.398438 -45.128906 24.945312 -45.589844 26.550781 -45.589844 C 28.15625 -45.589844 29.648438 -45.128906 31.082031 -44.214844 C 32.457031 -43.296875 33.71875 -42.035156 34.75 -40.484375 C 35.785156 -38.878906 36.644531 -37.101562 37.273438 -35.039062 C 37.90625 -32.972656 38.25 -30.738281 38.25 -28.441406 C 38.25 -26.09375 37.90625 -23.914062 37.273438 -21.847656 C 36.644531 -19.785156 35.785156 -17.949219 34.75 -16.402344 C 33.71875 -14.851562 32.457031 -13.648438 31.082031 -12.730469 C 29.648438 -11.8125 28.15625 -11.355469 26.550781 -11.355469 Z M 26.550781 -11.355469 "/></g></g></g><g fill="#ffc1b2" fill-opacity="0.302"><g transform="translate(531.478655, 183.961471)"><g><path d="M 47.136719 -42.894531 L 46.851562 -43.238281 C 46.046875 -44.039062 45.53125 -44.957031 45.1875 -45.992188 C 44.15625 -49.203125 42.035156 -51.839844 38.9375 -53.90625 C 37.21875 -54.992188 35.265625 -55.855469 33.089844 -56.425781 C 30.910156 -57 28.671875 -57.289062 26.265625 -57.289062 C 23.855469 -57.289062 21.503906 -56.945312 19.269531 -56.371094 C 17.03125 -55.796875 15.023438 -54.9375 13.246094 -53.847656 C 10.839844 -52.355469 9.058594 -50.578125 7.800781 -48.457031 C 6.539062 -46.335938 5.964844 -44.039062 5.964844 -41.519531 C 5.964844 -36.699219 8.199219 -32.570312 12.789062 -29.1875 C 14.394531 -27.925781 16.113281 -26.894531 18.007812 -25.976562 C 19.898438 -25.058594 21.847656 -24.140625 23.796875 -23.339844 C 24.945312 -22.765625 26.207031 -22.191406 27.46875 -21.617188 C 28.730469 -21.046875 29.875 -20.414062 30.910156 -19.839844 C 31.941406 -19.210938 32.800781 -18.578125 33.488281 -17.949219 C 34.175781 -17.261719 34.523438 -16.628906 34.523438 -16 C 34.523438 -15.195312 34.234375 -14.449219 33.660156 -13.878906 C 33.089844 -13.304688 32.34375 -12.789062 31.480469 -12.445312 C 30.621094 -12.101562 29.703125 -11.8125 28.671875 -11.640625 C 27.640625 -11.410156 26.722656 -11.355469 25.804688 -11.355469 C 24.660156 -11.355469 23.511719 -11.46875 22.25 -11.753906 C 20.988281 -11.984375 19.898438 -12.445312 19.039062 -13.074219 C 18.808594 -13.246094 18.636719 -13.476562 18.636719 -13.761719 C 18.578125 -14.050781 18.636719 -14.277344 18.867188 -14.507812 L 18.925781 -14.566406 C 19.097656 -14.851562 19.097656 -15.140625 18.980469 -15.484375 C 18.808594 -15.828125 18.523438 -16 18.179688 -16 L 5.503906 -16 C 5.105469 -16 4.816406 -15.828125 4.703125 -15.484375 C 4.53125 -15.140625 4.53125 -14.851562 4.757812 -14.566406 L 4.988281 -14.335938 C 5.792969 -13.417969 6.308594 -12.445312 6.652344 -11.46875 C 7.683594 -8.144531 9.75 -5.503906 12.960938 -3.496094 C 14.679688 -2.351562 16.6875 -1.492188 18.867188 -0.917969 C 21.046875 -0.285156 23.398438 0 25.804688 0 C 28.671875 0 31.367188 -0.402344 33.832031 -1.203125 C 36.300781 -2.007812 38.421875 -3.097656 40.199219 -4.53125 C 41.976562 -5.90625 43.351562 -7.625 44.386719 -9.578125 C 45.359375 -11.527344 45.875 -13.648438 45.875 -16 C 45.875 -18.464844 45.300781 -20.644531 44.214844 -22.480469 C 43.125 -24.3125 41.746094 -25.921875 40.027344 -27.296875 C 38.304688 -28.671875 36.472656 -29.820312 34.40625 -30.851562 C 32.34375 -31.882812 30.335938 -32.800781 28.386719 -33.71875 C 27.066406 -34.292969 25.746094 -34.867188 24.429688 -35.496094 C 23.109375 -36.070312 21.90625 -36.699219 20.875 -37.390625 C 19.839844 -38.019531 18.980469 -38.707031 18.292969 -39.394531 C 17.605469 -40.085938 17.316406 -40.773438 17.316406 -41.519531 C 17.316406 -42.148438 17.546875 -42.722656 18.121094 -43.296875 C 18.636719 -43.867188 19.324219 -44.328125 20.183594 -44.730469 C 20.988281 -45.074219 21.964844 -45.359375 23.050781 -45.589844 C 24.085938 -45.820312 25.175781 -45.933594 26.265625 -45.933594 C 27.527344 -45.933594 28.789062 -45.761719 29.933594 -45.53125 C 31.082031 -45.246094 32 -44.84375 32.800781 -44.328125 C 33.03125 -44.15625 33.203125 -43.925781 33.203125 -43.640625 C 33.203125 -43.351562 33.144531 -43.125 32.972656 -42.953125 L 32.972656 -42.894531 C 32.742188 -42.550781 32.742188 -42.261719 32.917969 -41.976562 C 33.03125 -41.632812 33.316406 -41.519531 33.71875 -41.519531 L 46.390625 -41.519531 C 46.734375 -41.519531 47.023438 -41.632812 47.195312 -41.976562 C 47.308594 -42.261719 47.308594 -42.550781 47.136719 -42.894531 Z M 47.136719 -42.894531 "/></g></g></g><g fill="#ffc1b2" fill-opacity="0.502"><g transform="translate(217.340308, 184.605735)"><g><path d="M 47.136719 -42.894531 L 46.851562 -43.238281 C 46.046875 -44.039062 45.53125 -44.957031 45.1875 -45.992188 C 44.15625 -49.203125 42.035156 -51.839844 38.9375 -53.90625 C 37.21875 -54.992188 35.265625 -55.855469 33.089844 -56.425781 C 30.910156 -57 28.671875 -57.289062 26.265625 -57.289062 C 23.855469 -57.289062 21.503906 -56.945312 19.269531 -56.371094 C 17.03125 -55.796875 15.023438 -54.9375 13.246094 -53.847656 C 10.839844 -52.355469 9.058594 -50.578125 7.800781 -48.457031 C 6.539062 -46.335938 5.964844 -44.039062 5.964844 -41.519531 C 5.964844 -36.699219 8.199219 -32.570312 12.789062 -29.1875 C 14.394531 -27.925781 16.113281 -26.894531 18.007812 -25.976562 C 19.898438 -25.058594 21.847656 -24.140625 23.796875 -23.339844 C 24.945312 -22.765625 26.207031 -22.191406 27.46875 -21.617188 C 28.730469 -21.046875 29.875 -20.414062 30.910156 -19.839844 C 31.941406 -19.210938 32.800781 -18.578125 33.488281 -17.949219 C 34.175781 -17.261719 34.523438 -16.628906 34.523438 -16 C 34.523438 -15.195312 34.234375 -14.449219 33.660156 -13.878906 C 33.089844 -13.304688 32.34375 -12.789062 31.480469 -12.445312 C 30.621094 -12.101562 29.703125 -11.8125 28.671875 -11.640625 C 27.640625 -11.410156 26.722656 -11.355469 25.804688 -11.355469 C 24.660156 -11.355469 23.511719 -11.46875 22.25 -11.753906 C 20.988281 -11.984375 19.898438 -12.445312 19.039062 -13.074219 C 18.808594 -13.246094 18.636719 -13.476562 18.636719 -13.761719 C 18.578125 -14.050781 18.636719 -14.277344 18.867188 -14.507812 L 18.925781 -14.566406 C 19.097656 -14.851562 19.097656 -15.140625 18.980469 -15.484375 C 18.808594 -15.828125 18.523438 -16 18.179688 -16 L 5.503906 -16 C 5.105469 -16 4.816406 -15.828125 4.703125 -15.484375 C 4.53125 -15.140625 4.53125 -14.851562 4.757812 -14.566406 L 4.988281 -14.335938 C 5.792969 -13.417969 6.308594 -12.445312 6.652344 -11.46875 C 7.683594 -8.144531 9.75 -5.503906 12.960938 -3.496094 C 14.679688 -2.351562 16.6875 -1.492188 18.867188 -0.917969 C 21.046875 -0.285156 23.398438 0 25.804688 0 C 28.671875 0 31.367188 -0.402344 33.832031 -1.203125 C 36.300781 -2.007812 38.421875 -3.097656 40.199219 -4.53125 C 41.976562 -5.90625 43.351562 -7.625 44.386719 -9.578125 C 45.359375 -11.527344 45.875 -13.648438 45.875 -16 C 45.875 -18.464844 45.300781 -20.644531 44.214844 -22.480469 C 43.125 -24.3125 41.746094 -25.921875 40.027344 -27.296875 C 38.304688 -28.671875 36.472656 -29.820312 34.40625 -30.851562 C 32.34375 -31.882812 30.335938 -32.800781 28.386719 -33.71875 C 27.066406 -34.292969 25.746094 -34.867188 24.429688 -35.496094 C 23.109375 -36.070312 21.90625 -36.699219 20.875 -37.390625 C 19.839844 -38.019531 18.980469 -38.707031 18.292969 -39.394531 C 17.605469 -40.085938 17.316406 -40.773438 17.316406 -41.519531 C 17.316406 -42.148438 17.546875 -42.722656 18.121094 -43.296875 C 18.636719 -43.867188 19.324219 -44.328125 20.183594 -44.730469 C 20.988281 -45.074219 21.964844 -45.359375 23.050781 -45.589844 C 24.085938 -45.820312 25.175781 -45.933594 26.265625 -45.933594 C 27.527344 -45.933594 28.789062 -45.761719 29.933594 -45.53125 C 31.082031 -45.246094 32 -44.84375 32.800781 -44.328125 C 33.03125 -44.15625 33.203125 -43.925781 33.203125 -43.640625 C 33.203125 -43.351562 33.144531 -43.125 32.972656 -42.953125 L 32.972656 -42.894531 C 32.742188 -42.550781 32.742188 -42.261719 32.917969 -41.976562 C 33.03125 -41.632812 33.316406 -41.519531 33.71875 -41.519531 L 46.390625 -41.519531 C 46.734375 -41.519531 47.023438 -41.632812 47.195312 -41.976562 C 47.308594 -42.261719 47.308594 -42.550781 47.136719 -42.894531 Z M 47.136719 -42.894531 "/></g></g></g><g fill="#ffc1b2" fill-opacity="0.502"><g transform="translate(269.232922, 184.605735)"><g><path d="M 43.351562 -48.054688 C 41.171875 -50.921875 38.59375 -53.101562 35.726562 -54.648438 C 32.800781 -56.140625 29.761719 -56.945312 26.550781 -56.945312 C 23.339844 -56.945312 20.242188 -56.140625 17.316406 -54.648438 C 14.394531 -53.101562 11.871094 -50.921875 9.691406 -48.054688 C 7.625 -45.359375 6.078125 -42.320312 5.046875 -38.996094 C 3.957031 -35.667969 3.441406 -32.113281 3.441406 -28.441406 C 3.441406 -24.773438 3.957031 -21.21875 5.046875 -17.890625 C 6.078125 -14.507812 7.625 -11.527344 9.691406 -8.886719 C 11.871094 -6.019531 14.394531 -3.785156 17.316406 -2.292969 C 20.242188 -0.746094 23.339844 0 26.550781 0 C 29.761719 0 32.800781 -0.746094 35.726562 -2.292969 C 38.59375 -3.785156 41.171875 -6.019531 43.351562 -8.886719 C 45.417969 -11.527344 46.964844 -14.507812 48.054688 -17.890625 C 49.085938 -21.21875 49.660156 -24.773438 49.660156 -28.441406 C 49.660156 -32.113281 49.085938 -35.667969 48.054688 -38.996094 C 46.964844 -42.320312 45.417969 -45.359375 43.351562 -48.054688 Z M 26.550781 -11.355469 C 24.945312 -11.355469 23.398438 -11.8125 22.019531 -12.730469 C 20.585938 -13.648438 19.324219 -14.851562 18.292969 -16.402344 C 17.203125 -17.949219 16.34375 -19.785156 15.710938 -21.847656 C 15.082031 -23.914062 14.796875 -26.09375 14.796875 -28.441406 C 14.796875 -30.738281 15.082031 -32.972656 15.710938 -35.039062 C 16.34375 -37.101562 17.203125 -38.878906 18.292969 -40.484375 C 19.324219 -42.035156 20.585938 -43.296875 22.019531 -44.214844 C 23.398438 -45.128906 24.945312 -45.589844 26.550781 -45.589844 C 28.15625 -45.589844 29.648438 -45.128906 31.082031 -44.214844 C 32.457031 -43.296875 33.71875 -42.035156 34.75 -40.484375 C 35.785156 -38.878906 36.644531 -37.101562 37.273438 -35.039062 C 37.90625 -32.972656 38.25 -30.738281 38.25 -28.441406 C 38.25 -26.09375 37.90625 -23.914062 37.273438 -21.847656 C 36.644531 -19.785156 35.785156 -17.949219 34.75 -16.402344 C 33.71875 -14.851562 32.457031 -13.648438 31.082031 -12.730469 C 29.648438 -11.8125 28.15625 -11.355469 26.550781 -11.355469 Z M 26.550781 -11.355469 "/></g></g></g><g fill="#ffc1b2" fill-opacity="0.502"><g transform="translate(322.329672, 184.605735)"><g><path d="M 46.910156 -1.433594 L 46.046875 -2.121094 C 45.128906 -2.867188 44.328125 -3.785156 43.695312 -4.816406 L 36.585938 -16.171875 C 36.355469 -16.515625 36.242188 -16.917969 36.355469 -17.375 C 36.472656 -17.777344 36.699219 -18.121094 37.101562 -18.40625 C 38.535156 -19.441406 39.796875 -20.585938 40.828125 -21.90625 C 42.378906 -23.796875 43.582031 -25.976562 44.386719 -28.386719 C 45.1875 -30.792969 45.648438 -33.316406 45.648438 -35.957031 C 45.648438 -38.59375 45.1875 -41.171875 44.386719 -43.582031 C 43.582031 -45.992188 42.378906 -48.167969 40.828125 -50.121094 C 38.996094 -52.296875 36.757812 -54.019531 34.234375 -55.222656 C 31.65625 -56.371094 28.84375 -57 25.863281 -57 L 7.742188 -57 C 7.339844 -57 7.054688 -56.828125 6.9375 -56.484375 C 6.765625 -56.140625 6.824219 -55.855469 7.109375 -55.566406 C 8.027344 -54.535156 8.542969 -53.332031 8.542969 -51.953125 L 8.542969 -4.933594 C 8.542969 -3.613281 8.085938 -2.464844 7.226562 -1.492188 C 6.882812 -1.148438 6.824219 -0.859375 6.996094 -0.515625 C 7.109375 -0.171875 7.398438 0 7.855469 0 L 20.703125 0 C 21.046875 0 21.332031 -0.113281 21.445312 -0.457031 C 21.5625 -0.804688 21.5625 -1.089844 21.332031 -1.433594 C 20.359375 -2.464844 19.898438 -3.613281 19.898438 -4.988281 L 19.898438 -13.363281 C 19.898438 -13.820312 20.011719 -14.222656 20.359375 -14.566406 C 20.703125 -14.910156 21.101562 -15.082031 21.5625 -15.082031 L 22.9375 -15.082031 C 23.511719 -15.082031 24.027344 -14.796875 24.371094 -14.277344 L 31.425781 -2.925781 C 31.710938 -2.410156 31.65625 -1.949219 31.308594 -1.492188 L 31.253906 -1.433594 C 31.023438 -1.089844 31.023438 -0.804688 31.195312 -0.457031 C 31.308594 -0.113281 31.597656 0 32 0 L 46.507812 0 C 46.910156 0 47.136719 -0.171875 47.253906 -0.515625 C 47.367188 -0.859375 47.253906 -1.148438 46.910156 -1.433594 Z M 32.054688 -29.132812 C 30.621094 -27.296875 28.558594 -26.4375 25.863281 -26.4375 L 21.5625 -26.4375 C 21.101562 -26.4375 20.703125 -26.550781 20.359375 -26.894531 C 20.011719 -27.238281 19.898438 -27.640625 19.898438 -28.097656 L 19.898438 -43.925781 C 19.898438 -44.386719 20.011719 -44.785156 20.359375 -45.128906 C 20.703125 -45.472656 21.101562 -45.648438 21.5625 -45.648438 L 25.863281 -45.648438 C 27.925781 -45.648438 29.476562 -45.1875 30.621094 -44.269531 C 31.769531 -43.351562 32.570312 -42.320312 33.144531 -41.171875 C 33.660156 -40.027344 34.003906 -38.9375 34.121094 -37.90625 C 34.234375 -36.871094 34.292969 -36.183594 34.292969 -35.957031 C 34.292969 -34.578125 34.0625 -33.316406 33.71875 -32.171875 C 33.316406 -31.023438 32.742188 -29.992188 32.054688 -29.132812 Z M 32.054688 -29.132812 "/></g></g></g><g fill="#ffc1b2" fill-opacity="0.502"><g transform="translate(376.515877, 184.605735)"><g><path d="M 44.902344 -58.433594 L 44.84375 -58.378906 C 43.8125 -57.460938 42.664062 -57 41.347656 -57 L 11.871094 -57 C 10.492188 -57 9.347656 -57.460938 8.316406 -58.378906 L 8.316406 -58.433594 C 7.972656 -58.605469 7.683594 -58.605469 7.339844 -58.433594 C 6.996094 -58.261719 6.882812 -58.03125 6.882812 -57.6875 L 6.882812 -44.957031 C 6.882812 -44.558594 6.996094 -44.269531 7.339844 -44.15625 C 7.683594 -43.984375 7.972656 -43.984375 8.316406 -44.214844 C 9.347656 -45.128906 10.492188 -45.648438 11.871094 -45.648438 L 19.785156 -45.648438 C 20.070312 -45.648438 20.359375 -45.53125 20.585938 -45.300781 C 20.816406 -45.074219 20.929688 -44.785156 20.929688 -44.5 L 20.929688 -5.046875 C 20.929688 -3.671875 20.472656 -2.464844 19.554688 -1.492188 L 19.496094 -1.433594 C 19.269531 -1.089844 19.269531 -0.804688 19.441406 -0.457031 C 19.554688 -0.113281 19.839844 0 20.242188 0 L 32.972656 0 C 33.316406 0 33.546875 -0.113281 33.71875 -0.457031 C 33.890625 -0.804688 33.890625 -1.089844 33.71875 -1.433594 C 32.742188 -2.464844 32.285156 -3.613281 32.285156 -4.988281 L 32.285156 -44.5 C 32.285156 -44.785156 32.398438 -45.074219 32.628906 -45.300781 C 32.859375 -45.53125 33.089844 -45.648438 33.433594 -45.648438 L 41.347656 -45.648438 C 42.722656 -45.648438 43.867188 -45.128906 44.84375 -44.214844 L 44.902344 -44.214844 C 45.1875 -43.984375 45.472656 -43.984375 45.820312 -44.15625 C 46.164062 -44.269531 46.335938 -44.558594 46.335938 -44.957031 L 46.335938 -57.6875 C 46.335938 -58.03125 46.164062 -58.261719 45.820312 -58.433594 C 45.472656 -58.605469 45.1875 -58.605469 44.902344 -58.433594 Z M 44.902344 -58.433594 "/></g></g></g><g fill="#ffc1b2" fill-opacity="0.502"><g transform="translate(429.727308, 184.605735)"><g><path d="M 41.746094 -57.402344 C 40.773438 -56.484375 39.625 -56.082031 38.363281 -56.082031 L 7.800781 -56.082031 C 7.398438 -56.082031 7.109375 -55.910156 6.996094 -55.566406 C 6.824219 -55.222656 6.824219 -54.9375 7.054688 -54.648438 L 7.226562 -54.476562 C 8.144531 -53.445312 8.601562 -52.242188 8.601562 -50.863281 L 8.601562 -4.300781 C 8.601562 -3.613281 8.488281 -2.980469 8.257812 -2.351562 C 8.027344 -1.71875 7.683594 -1.148438 7.226562 -0.6875 L 7.054688 -0.515625 C 6.824219 -0.171875 6.824219 0.113281 6.996094 0.457031 C 7.109375 0.804688 7.398438 0.917969 7.800781 0.917969 L 38.363281 0.917969 C 39.625 0.917969 40.773438 1.375 41.746094 2.238281 C 42.035156 2.523438 42.378906 2.582031 42.722656 2.410156 C 43.066406 2.292969 43.296875 2.007812 43.296875 1.546875 L 43.296875 -11.238281 C 43.296875 -11.582031 43.125 -11.871094 42.78125 -12.042969 C 42.433594 -12.15625 42.089844 -12.101562 41.863281 -11.871094 C 40.828125 -10.894531 39.625 -10.4375 38.25 -10.4375 L 21.390625 -10.4375 C 20.988281 -10.4375 20.644531 -10.550781 20.359375 -10.839844 C 20.070312 -11.066406 19.957031 -11.410156 19.957031 -11.871094 L 19.957031 -20.472656 C 19.957031 -20.875 20.070312 -21.21875 20.359375 -21.503906 C 20.644531 -21.734375 20.988281 -21.90625 21.390625 -21.90625 L 26.4375 -21.90625 C 27.8125 -21.90625 29.015625 -21.390625 30.046875 -20.472656 C 30.335938 -20.242188 30.621094 -20.242188 30.964844 -20.414062 C 31.308594 -20.585938 31.480469 -20.875 31.480469 -21.21875 L 31.480469 -33.949219 C 31.480469 -34.292969 31.308594 -34.523438 30.964844 -34.695312 C 30.621094 -34.867188 30.335938 -34.867188 30.046875 -34.695312 C 29.015625 -33.71875 27.8125 -33.261719 26.4375 -33.261719 L 21.390625 -33.261719 C 20.988281 -33.261719 20.644531 -33.375 20.359375 -33.660156 C 20.070312 -33.890625 19.957031 -34.234375 19.957031 -34.695312 L 19.957031 -43.296875 C 19.957031 -43.695312 20.070312 -44.039062 20.359375 -44.328125 C 20.644531 -44.558594 20.988281 -44.730469 21.390625 -44.730469 L 38.25 -44.730469 C 39.625 -44.730469 40.828125 -44.214844 41.863281 -43.296875 C 42.089844 -43.007812 42.433594 -42.953125 42.78125 -43.125 C 43.125 -43.238281 43.296875 -43.523438 43.296875 -43.925781 L 43.296875 -56.773438 C 43.296875 -57.117188 43.066406 -57.402344 42.722656 -57.574219 C 42.378906 -57.6875 42.035156 -57.632812 41.746094 -57.402344 Z M 41.746094 -57.402344 "/></g></g></g><g fill="#ffc1b2" fill-opacity="0.502"><g transform="translate(479.899715, 184.605735)"><g><path d="M 43.351562 -48.054688 C 41.171875 -50.921875 38.59375 -53.101562 35.726562 -54.648438 C 32.800781 -56.140625 29.761719 -56.945312 26.550781 -56.945312 C 23.339844 -56.945312 20.242188 -56.140625 17.316406 -54.648438 C 14.394531 -53.101562 11.871094 -50.921875 9.691406 -48.054688 C 7.625 -45.359375 6.078125 -42.320312 5.046875 -38.996094 C 3.957031 -35.667969 3.441406 -32.113281 3.441406 -28.441406 C 3.441406 -24.773438 3.957031 -21.21875 5.046875 -17.890625 C 6.078125 -14.507812 7.625 -11.527344 9.691406 -8.886719 C 11.871094 -6.019531 14.394531 -3.785156 17.316406 -2.292969 C 20.242188 -0.746094 23.339844 0 26.550781 0 C 29.761719 0 32.800781 -0.746094 35.726562 -2.292969 C 38.59375 -3.785156 41.171875 -6.019531 43.351562 -8.886719 C 45.417969 -11.527344 46.964844 -14.507812 48.054688 -17.890625 C 49.085938 -21.21875 49.660156 -24.773438 49.660156 -28.441406 C 49.660156 -32.113281 49.085938 -35.667969 48.054688 -38.996094 C 46.964844 -42.320312 45.417969 -45.359375 43.351562 -48.054688 Z M 26.550781 -11.355469 C 24.945312 -11.355469 23.398438 -11.8125 22.019531 -12.730469 C 20.585938 -13.648438 19.324219 -14.851562 18.292969 -16.402344 C 17.203125 -17.949219 16.34375 -19.785156 15.710938 -21.847656 C 15.082031 -23.914062 14.796875 -26.09375 14.796875 -28.441406 C 14.796875 -30.738281 15.082031 -32.972656 15.710938 -35.039062 C 16.34375 -37.101562 17.203125 -38.878906 18.292969 -40.484375 C 19.324219 -42.035156 20.585938 -43.296875 22.019531 -44.214844 C 23.398438 -45.128906 24.945312 -45.589844 26.550781 -45.589844 C 28.15625 -45.589844 29.648438 -45.128906 31.082031 -44.214844 C 32.457031 -43.296875 33.71875 -42.035156 34.75 -40.484375 C 35.785156 -38.878906 36.644531 -37.101562 37.273438 -35.039062 C 37.90625 -32.972656 38.25 -30.738281 38.25 -28.441406 C 38.25 -26.09375 37.90625 -23.914062 37.273438 -21.847656 C 36.644531 -19.785156 35.785156 -17.949219 34.75 -16.402344 C 33.71875 -14.851562 32.457031 -13.648438 31.082031 -12.730469 C 29.648438 -11.8125 28.15625 -11.355469 26.550781 -11.355469 Z M 26.550781 -11.355469 "/></g></g></g><g fill="#ffc1b2" fill-opacity="0.502"><g transform="translate(532.996453, 184.605735)"><g><path d="M 47.136719 -42.894531 L 46.851562 -43.238281 C 46.046875 -44.039062 45.53125 -44.957031 45.1875 -45.992188 C 44.15625 -49.203125 42.035156 -51.839844 38.9375 -53.90625 C 37.21875 -54.992188 35.265625 -55.855469 33.089844 -56.425781 C 30.910156 -57 28.671875 -57.289062 26.265625 -57.289062 C 23.855469 -57.289062 21.503906 -56.945312 19.269531 -56.371094 C 17.03125 -55.796875 15.023438 -54.9375 13.246094 -53.847656 C 10.839844 -52.355469 9.058594 -50.578125 7.800781 -48.457031 C 6.539062 -46.335938 5.964844 -44.039062 5.964844 -41.519531 C 5.964844 -36.699219 8.199219 -32.570312 12.789062 -29.1875 C 14.394531 -27.925781 16.113281 -26.894531 18.007812 -25.976562 C 19.898438 -25.058594 21.847656 -24.140625 23.796875 -23.339844 C 24.945312 -22.765625 26.207031 -22.191406 27.46875 -21.617188 C 28.730469 -21.046875 29.875 -20.414062 30.910156 -19.839844 C 31.941406 -19.210938 32.800781 -18.578125 33.488281 -17.949219 C 34.175781 -17.261719 34.523438 -16.628906 34.523438 -16 C 34.523438 -15.195312 34.234375 -14.449219 33.660156 -13.878906 C 33.089844 -13.304688 32.34375 -12.789062 31.480469 -12.445312 C 30.621094 -12.101562 29.703125 -11.8125 28.671875 -11.640625 C 27.640625 -11.410156 26.722656 -11.355469 25.804688 -11.355469 C 24.660156 -11.355469 23.511719 -11.46875 22.25 -11.753906 C 20.988281 -11.984375 19.898438 -12.445312 19.039062 -13.074219 C 18.808594 -13.246094 18.636719 -13.476562 18.636719 -13.761719 C 18.578125 -14.050781 18.636719 -14.277344 18.867188 -14.507812 L 18.925781 -14.566406 C 19.097656 -14.851562 19.097656 -15.140625 18.980469 -15.484375 C 18.808594 -15.828125 18.523438 -16 18.179688 -16 L 5.503906 -16 C 5.105469 -16 4.816406 -15.828125 4.703125 -15.484375 C 4.53125 -15.140625 4.53125 -14.851562 4.757812 -14.566406 L 4.988281 -14.335938 C 5.792969 -13.417969 6.308594 -12.445312 6.652344 -11.46875 C 7.683594 -8.144531 9.75 -5.503906 12.960938 -3.496094 C 14.679688 -2.351562 16.6875 -1.492188 18.867188 -0.917969 C 21.046875 -0.285156 23.398438 0 25.804688 0 C 28.671875 0 31.367188 -0.402344 33.832031 -1.203125 C 36.300781 -2.007812 38.421875 -3.097656 40.199219 -4.53125 C 41.976562 -5.90625 43.351562 -7.625 44.386719 -9.578125 C 45.359375 -11.527344 45.875 -13.648438 45.875 -16 C 45.875 -18.464844 45.300781 -20.644531 44.214844 -22.480469 C 43.125 -24.3125 41.746094 -25.921875 40.027344 -27.296875 C 38.304688 -28.671875 36.472656 -29.820312 34.40625 -30.851562 C 32.34375 -31.882812 30.335938 -32.800781 28.386719 -33.71875 C 27.066406 -34.292969 25.746094 -34.867188 24.429688 -35.496094 C 23.109375 -36.070312 21.90625 -36.699219 20.875 -37.390625 C 19.839844 -38.019531 18.980469 -38.707031 18.292969 -39.394531 C 17.605469 -40.085938 17.316406 -40.773438 17.316406 -41.519531 C 17.316406 -42.148438 17.546875 -42.722656 18.121094 -43.296875 C 18.636719 -43.867188 19.324219 -44.328125 20.183594 -44.730469 C 20.988281 -45.074219 21.964844 -45.359375 23.050781 -45.589844 C 24.085938 -45.820312 25.175781 -45.933594 26.265625 -45.933594 C 27.527344 -45.933594 28.789062 -45.761719 29.933594 -45.53125 C 31.082031 -45.246094 32 -44.84375 32.800781 -44.328125 C 33.03125 -44.15625 33.203125 -43.925781 33.203125 -43.640625 C 33.203125 -43.351562 33.144531 -43.125 32.972656 -42.953125 L 32.972656 -42.894531 C 32.742188 -42.550781 32.742188 -42.261719 32.917969 -41.976562 C 33.03125 -41.632812 33.316406 -41.519531 33.71875 -41.519531 L 46.390625 -41.519531 C 46.734375 -41.519531 47.023438 -41.632812 47.195312 -41.976562 C 47.308594 -42.261719 47.308594 -42.550781 47.136719 -42.894531 Z M 47.136719 -42.894531 "/></g></g></g><g fill="#d9d9d9" fill-opacity="1"><g transform="translate(218.858106, 185.250002)"><g><path d="M 47.136719 -42.894531 L 46.851562 -43.238281 C 46.046875 -44.039062 45.53125 -44.957031 45.1875 -45.992188 C 44.15625 -49.203125 42.035156 -51.839844 38.9375 -53.90625 C 37.21875 -54.992188 35.265625 -55.855469 33.089844 -56.425781 C 30.910156 -57 28.671875 -57.289062 26.265625 -57.289062 C 23.855469 -57.289062 21.503906 -56.945312 19.269531 -56.371094 C 17.03125 -55.796875 15.023438 -54.9375 13.246094 -53.847656 C 10.839844 -52.355469 9.058594 -50.578125 7.800781 -48.457031 C 6.539062 -46.335938 5.964844 -44.039062 5.964844 -41.519531 C 5.964844 -36.699219 8.199219 -32.570312 12.789062 -29.1875 C 14.394531 -27.925781 16.113281 -26.894531 18.007812 -25.976562 C 19.898438 -25.058594 21.847656 -24.140625 23.796875 -23.339844 C 24.945312 -22.765625 26.207031 -22.191406 27.46875 -21.617188 C 28.730469 -21.046875 29.875 -20.414062 30.910156 -19.839844 C 31.941406 -19.210938 32.800781 -18.578125 33.488281 -17.949219 C 34.175781 -17.261719 34.523438 -16.628906 34.523438 -16 C 34.523438 -15.195312 34.234375 -14.449219 33.660156 -13.878906 C 33.089844 -13.304688 32.34375 -12.789062 31.480469 -12.445312 C 30.621094 -12.101562 29.703125 -11.8125 28.671875 -11.640625 C 27.640625 -11.410156 26.722656 -11.355469 25.804688 -11.355469 C 24.660156 -11.355469 23.511719 -11.46875 22.25 -11.753906 C 20.988281 -11.984375 19.898438 -12.445312 19.039062 -13.074219 C 18.808594 -13.246094 18.636719 -13.476562 18.636719 -13.761719 C 18.578125 -14.050781 18.636719 -14.277344 18.867188 -14.507812 L 18.925781 -14.566406 C 19.097656 -14.851562 19.097656 -15.140625 18.980469 -15.484375 C 18.808594 -15.828125 18.523438 -16 18.179688 -16 L 5.503906 -16 C 5.105469 -16 4.816406 -15.828125 4.703125 -15.484375 C 4.53125 -15.140625 4.53125 -14.851562 4.757812 -14.566406 L 4.988281 -14.335938 C 5.792969 -13.417969 6.308594 -12.445312 6.652344 -11.46875 C 7.683594 -8.144531 9.75 -5.503906 12.960938 -3.496094 C 14.679688 -2.351562 16.6875 -1.492188 18.867188 -0.917969 C 21.046875 -0.285156 23.398438 0 25.804688 0 C 28.671875 0 31.367188 -0.402344 33.832031 -1.203125 C 36.300781 -2.007812 38.421875 -3.097656 40.199219 -4.53125 C 41.976562 -5.90625 43.351562 -7.625 44.386719 -9.578125 C 45.359375 -11.527344 45.875 -13.648438 45.875 -16 C 45.875 -18.464844 45.300781 -20.644531 44.214844 -22.480469 C 43.125 -24.3125 41.746094 -25.921875 40.027344 -27.296875 C 38.304688 -28.671875 36.472656 -29.820312 34.40625 -30.851562 C 32.34375 -31.882812 30.335938 -32.800781 28.386719 -33.71875 C 27.066406 -34.292969 25.746094 -34.867188 24.429688 -35.496094 C 23.109375 -36.070312 21.90625 -36.699219 20.875 -37.390625 C 19.839844 -38.019531 18.980469 -38.707031 18.292969 -39.394531 C 17.605469 -40.085938 17.316406 -40.773438 17.316406 -41.519531 C 17.316406 -42.148438 17.546875 -42.722656 18.121094 -43.296875 C 18.636719 -43.867188 19.324219 -44.328125 20.183594 -44.730469 C 20.988281 -45.074219 21.964844 -45.359375 23.050781 -45.589844 C 24.085938 -45.820312 25.175781 -45.933594 26.265625 -45.933594 C 27.527344 -45.933594 28.789062 -45.761719 29.933594 -45.53125 C 31.082031 -45.246094 32 -44.84375 32.800781 -44.328125 C 33.03125 -44.15625 33.203125 -43.925781 33.203125 -43.640625 C 33.203125 -43.351562 33.144531 -43.125 32.972656 -42.953125 L 32.972656 -42.894531 C 32.742188 -42.550781 32.742188 -42.261719 32.917969 -41.976562 C 33.03125 -41.632812 33.316406 -41.519531 33.71875 -41.519531 L 46.390625 -41.519531 C 46.734375 -41.519531 47.023438 -41.632812 47.195312 -41.976562 C 47.308594 -42.261719 47.308594 -42.550781 47.136719 -42.894531 Z M 47.136719 -42.894531 "/></g></g></g><g fill="#d9d9d9" fill-opacity="1"><g transform="translate(270.75072, 185.250002)"><g><path d="M 43.351562 -48.054688 C 41.171875 -50.921875 38.59375 -53.101562 35.726562 -54.648438 C 32.800781 -56.140625 29.761719 -56.945312 26.550781 -56.945312 C 23.339844 -56.945312 20.242188 -56.140625 17.316406 -54.648438 C 14.394531 -53.101562 11.871094 -50.921875 9.691406 -48.054688 C 7.625 -45.359375 6.078125 -42.320312 5.046875 -38.996094 C 3.957031 -35.667969 3.441406 -32.113281 3.441406 -28.441406 C 3.441406 -24.773438 3.957031 -21.21875 5.046875 -17.890625 C 6.078125 -14.507812 7.625 -11.527344 9.691406 -8.886719 C 11.871094 -6.019531 14.394531 -3.785156 17.316406 -2.292969 C 20.242188 -0.746094 23.339844 0 26.550781 0 C 29.761719 0 32.800781 -0.746094 35.726562 -2.292969 C 38.59375 -3.785156 41.171875 -6.019531 43.351562 -8.886719 C 45.417969 -11.527344 46.964844 -14.507812 48.054688 -17.890625 C 49.085938 -21.21875 49.660156 -24.773438 49.660156 -28.441406 C 49.660156 -32.113281 49.085938 -35.667969 48.054688 -38.996094 C 46.964844 -42.320312 45.417969 -45.359375 43.351562 -48.054688 Z M 26.550781 -11.355469 C 24.945312 -11.355469 23.398438 -11.8125 22.019531 -12.730469 C 20.585938 -13.648438 19.324219 -14.851562 18.292969 -16.402344 C 17.203125 -17.949219 16.34375 -19.785156 15.710938 -21.847656 C 15.082031 -23.914062 14.796875 -26.09375 14.796875 -28.441406 C 14.796875 -30.738281 15.082031 -32.972656 15.710938 -35.039062 C 16.34375 -37.101562 17.203125 -38.878906 18.292969 -40.484375 C 19.324219 -42.035156 20.585938 -43.296875 22.019531 -44.214844 C 23.398438 -45.128906 24.945312 -45.589844 26.550781 -45.589844 C 28.15625 -45.589844 29.648438 -45.128906 31.082031 -44.214844 C 32.457031 -43.296875 33.71875 -42.035156 34.75 -40.484375 C 35.785156 -38.878906 36.644531 -37.101562 37.273438 -35.039062 C 37.90625 -32.972656 38.25 -30.738281 38.25 -28.441406 C 38.25 -26.09375 37.90625 -23.914062 37.273438 -21.847656 C 36.644531 -19.785156 35.785156 -17.949219 34.75 -16.402344 C 33.71875 -14.851562 32.457031 -13.648438 31.082031 -12.730469 C 29.648438 -11.8125 28.15625 -11.355469 26.550781 -11.355469 Z M 26.550781 -11.355469 "/></g></g></g><g fill="#d9d9d9" fill-opacity="1"><g transform="translate(323.84747, 185.250002)"><g><path d="M 46.910156 -1.433594 L 46.046875 -2.121094 C 45.128906 -2.867188 44.328125 -3.785156 43.695312 -4.816406 L 36.585938 -16.171875 C 36.355469 -16.515625 36.242188 -16.917969 36.355469 -17.375 C 36.472656 -17.777344 36.699219 -18.121094 37.101562 -18.40625 C 38.535156 -19.441406 39.796875 -20.585938 40.828125 -21.90625 C 42.378906 -23.796875 43.582031 -25.976562 44.386719 -28.386719 C 45.1875 -30.792969 45.648438 -33.316406 45.648438 -35.957031 C 45.648438 -38.59375 45.1875 -41.171875 44.386719 -43.582031 C 43.582031 -45.992188 42.378906 -48.167969 40.828125 -50.121094 C 38.996094 -52.296875 36.757812 -54.019531 34.234375 -55.222656 C 31.65625 -56.371094 28.84375 -57 25.863281 -57 L 7.742188 -57 C 7.339844 -57 7.054688 -56.828125 6.9375 -56.484375 C 6.765625 -56.140625 6.824219 -55.855469 7.109375 -55.566406 C 8.027344 -54.535156 8.542969 -53.332031 8.542969 -51.953125 L 8.542969 -4.933594 C 8.542969 -3.613281 8.085938 -2.464844 7.226562 -1.492188 C 6.882812 -1.148438 6.824219 -0.859375 6.996094 -0.515625 C 7.109375 -0.171875 7.398438 0 7.855469 0 L 20.703125 0 C 21.046875 0 21.332031 -0.113281 21.445312 -0.457031 C 21.5625 -0.804688 21.5625 -1.089844 21.332031 -1.433594 C 20.359375 -2.464844 19.898438 -3.613281 19.898438 -4.988281 L 19.898438 -13.363281 C 19.898438 -13.820312 20.011719 -14.222656 20.359375 -14.566406 C 20.703125 -14.910156 21.101562 -15.082031 21.5625 -15.082031 L 22.9375 -15.082031 C 23.511719 -15.082031 24.027344 -14.796875 24.371094 -14.277344 L 31.425781 -2.925781 C 31.710938 -2.410156 31.65625 -1.949219 31.308594 -1.492188 L 31.253906 -1.433594 C 31.023438 -1.089844 31.023438 -0.804688 31.195312 -0.457031 C 31.308594 -0.113281 31.597656 0 32 0 L 46.507812 0 C 46.910156 0 47.136719 -0.171875 47.253906 -0.515625 C 47.367188 -0.859375 47.253906 -1.148438 46.910156 -1.433594 Z M 32.054688 -29.132812 C 30.621094 -27.296875 28.558594 -26.4375 25.863281 -26.4375 L 21.5625 -26.4375 C 21.101562 -26.4375 20.703125 -26.550781 20.359375 -26.894531 C 20.011719 -27.238281 19.898438 -27.640625 19.898438 -28.097656 L 19.898438 -43.925781 C 19.898438 -44.386719 20.011719 -44.785156 20.359375 -45.128906 C 20.703125 -45.472656 21.101562 -45.648438 21.5625 -45.648438 L 25.863281 -45.648438 C 27.925781 -45.648438 29.476562 -45.1875 30.621094 -44.269531 C 31.769531 -43.351562 32.570312 -42.320312 33.144531 -41.171875 C 33.660156 -40.027344 34.003906 -38.9375 34.121094 -37.90625 C 34.234375 -36.871094 34.292969 -36.183594 34.292969 -35.957031 C 34.292969 -34.578125 34.0625 -33.316406 33.71875 -32.171875 C 33.316406 -31.023438 32.742188 -29.992188 32.054688 -29.132812 Z M 32.054688 -29.132812 "/></g></g></g><g fill="#d9d9d9" fill-opacity="1"><g transform="translate(378.033675, 185.250002)"><g><path d="M 44.902344 -58.433594 L 44.84375 -58.378906 C 43.8125 -57.460938 42.664062 -57 41.347656 -57 L 11.871094 -57 C 10.492188 -57 9.347656 -57.460938 8.316406 -58.378906 L 8.316406 -58.433594 C 7.972656 -58.605469 7.683594 -58.605469 7.339844 -58.433594 C 6.996094 -58.261719 6.882812 -58.03125 6.882812 -57.6875 L 6.882812 -44.957031 C 6.882812 -44.558594 6.996094 -44.269531 7.339844 -44.15625 C 7.683594 -43.984375 7.972656 -43.984375 8.316406 -44.214844 C 9.347656 -45.128906 10.492188 -45.648438 11.871094 -45.648438 L 19.785156 -45.648438 C 20.070312 -45.648438 20.359375 -45.53125 20.585938 -45.300781 C 20.816406 -45.074219 20.929688 -44.785156 20.929688 -44.5 L 20.929688 -5.046875 C 20.929688 -3.671875 20.472656 -2.464844 19.554688 -1.492188 L 19.496094 -1.433594 C 19.269531 -1.089844 19.269531 -0.804688 19.441406 -0.457031 C 19.554688 -0.113281 19.839844 0 20.242188 0 L 32.972656 0 C 33.316406 0 33.546875 -0.113281 33.71875 -0.457031 C 33.890625 -0.804688 33.890625 -1.089844 33.71875 -1.433594 C 32.742188 -2.464844 32.285156 -3.613281 32.285156 -4.988281 L 32.285156 -44.5 C 32.285156 -44.785156 32.398438 -45.074219 32.628906 -45.300781 C 32.859375 -45.53125 33.089844 -45.648438 33.433594 -45.648438 L 41.347656 -45.648438 C 42.722656 -45.648438 43.867188 -45.128906 44.84375 -44.214844 L 44.902344 -44.214844 C 45.1875 -43.984375 45.472656 -43.984375 45.820312 -44.15625 C 46.164062 -44.269531 46.335938 -44.558594 46.335938 -44.957031 L 46.335938 -57.6875 C 46.335938 -58.03125 46.164062 -58.261719 45.820312 -58.433594 C 45.472656 -58.605469 45.1875 -58.605469 44.902344 -58.433594 Z M 44.902344 -58.433594 "/></g></g></g><g fill="#d9d9d9" fill-opacity="1"><g transform="translate(431.245106, 185.250002)"><g><path d="M 41.746094 -57.402344 C 40.773438 -56.484375 39.625 -56.082031 38.363281 -56.082031 L 7.800781 -56.082031 C 7.398438 -56.082031 7.109375 -55.910156 6.996094 -55.566406 C 6.824219 -55.222656 6.824219 -54.9375 7.054688 -54.648438 L 7.226562 -54.476562 C 8.144531 -53.445312 8.601562 -52.242188 8.601562 -50.863281 L 8.601562 -4.300781 C 8.601562 -3.613281 8.488281 -2.980469 8.257812 -2.351562 C 8.027344 -1.71875 7.683594 -1.148438 7.226562 -0.6875 L 7.054688 -0.515625 C 6.824219 -0.171875 6.824219 0.113281 6.996094 0.457031 C 7.109375 0.804688 7.398438 0.917969 7.800781 0.917969 L 38.363281 0.917969 C 39.625 0.917969 40.773438 1.375 41.746094 2.238281 C 42.035156 2.523438 42.378906 2.582031 42.722656 2.410156 C 43.066406 2.292969 43.296875 2.007812 43.296875 1.546875 L 43.296875 -11.238281 C 43.296875 -11.582031 43.125 -11.871094 42.78125 -12.042969 C 42.433594 -12.15625 42.089844 -12.101562 41.863281 -11.871094 C 40.828125 -10.894531 39.625 -10.4375 38.25 -10.4375 L 21.390625 -10.4375 C 20.988281 -10.4375 20.644531 -10.550781 20.359375 -10.839844 C 20.070312 -11.066406 19.957031 -11.410156 19.957031 -11.871094 L 19.957031 -20.472656 C 19.957031 -20.875 20.070312 -21.21875 20.359375 -21.503906 C 20.644531 -21.734375 20.988281 -21.90625 21.390625 -21.90625 L 26.4375 -21.90625 C 27.8125 -21.90625 29.015625 -21.390625 30.046875 -20.472656 C 30.335938 -20.242188 30.621094 -20.242188 30.964844 -20.414062 C 31.308594 -20.585938 31.480469 -20.875 31.480469 -21.21875 L 31.480469 -33.949219 C 31.480469 -34.292969 31.308594 -34.523438 30.964844 -34.695312 C 30.621094 -34.867188 30.335938 -34.867188 30.046875 -34.695312 C 29.015625 -33.71875 27.8125 -33.261719 26.4375 -33.261719 L 21.390625 -33.261719 C 20.988281 -33.261719 20.644531 -33.375 20.359375 -33.660156 C 20.070312 -33.890625 19.957031 -34.234375 19.957031 -34.695312 L 19.957031 -43.296875 C 19.957031 -43.695312 20.070312 -44.039062 20.359375 -44.328125 C 20.644531 -44.558594 20.988281 -44.730469 21.390625 -44.730469 L 38.25 -44.730469 C 39.625 -44.730469 40.828125 -44.214844 41.863281 -43.296875 C 42.089844 -43.007812 42.433594 -42.953125 42.78125 -43.125 C 43.125 -43.238281 43.296875 -43.523438 43.296875 -43.925781 L 43.296875 -56.773438 C 43.296875 -57.117188 43.066406 -57.402344 42.722656 -57.574219 C 42.378906 -57.6875 42.035156 -57.632812 41.746094 -57.402344 Z M 41.746094 -57.402344 "/></g></g></g><g fill="#d9d9d9" fill-opacity="1"><g transform="translate(481.417513, 185.250002)"><g><path d="M 43.351562 -48.054688 C 41.171875 -50.921875 38.59375 -53.101562 35.726562 -54.648438 C 32.800781 -56.140625 29.761719 -56.945312 26.550781 -56.945312 C 23.339844 -56.945312 20.242188 -56.140625 17.316406 -54.648438 C 14.394531 -53.101562 11.871094 -50.921875 9.691406 -48.054688 C 7.625 -45.359375 6.078125 -42.320312 5.046875 -38.996094 C 3.957031 -35.667969 3.441406 -32.113281 3.441406 -28.441406 C 3.441406 -24.773438 3.957031 -21.21875 5.046875 -17.890625 C 6.078125 -14.507812 7.625 -11.527344 9.691406 -8.886719 C 11.871094 -6.019531 14.394531 -3.785156 17.316406 -2.292969 C 20.242188 -0.746094 23.339844 0 26.550781 0 C 29.761719 0 32.800781 -0.746094 35.726562 -2.292969 C 38.59375 -3.785156 41.171875 -6.019531 43.351562 -8.886719 C 45.417969 -11.527344 46.964844 -14.507812 48.054688 -17.890625 C 49.085938 -21.21875 49.660156 -24.773438 49.660156 -28.441406 C 49.660156 -32.113281 49.085938 -35.667969 48.054688 -38.996094 C 46.964844 -42.320312 45.417969 -45.359375 43.351562 -48.054688 Z M 26.550781 -11.355469 C 24.945312 -11.355469 23.398438 -11.8125 22.019531 -12.730469 C 20.585938 -13.648438 19.324219 -14.851562 18.292969 -16.402344 C 17.203125 -17.949219 16.34375 -19.785156 15.710938 -21.847656 C 15.082031 -23.914062 14.796875 -26.09375 14.796875 -28.441406 C 14.796875 -30.738281 15.082031 -32.972656 15.710938 -35.039062 C 16.34375 -37.101562 17.203125 -38.878906 18.292969 -40.484375 C 19.324219 -42.035156 20.585938 -43.296875 22.019531 -44.214844 C 23.398438 -45.128906 24.945312 -45.589844 26.550781 -45.589844 C 28.15625 -45.589844 29.648438 -45.128906 31.082031 -44.214844 C 32.457031 -43.296875 33.71875 -42.035156 34.75 -40.484375 C 35.785156 -38.878906 36.644531 -37.101562 37.273438 -35.039062 C 37.90625 -32.972656 38.25 -30.738281 38.25 -28.441406 C 38.25 -26.09375 37.90625 -23.914062 37.273438 -21.847656 C 36.644531 -19.785156 35.785156 -17.949219 34.75 -16.402344 C 33.71875 -14.851562 32.457031 -13.648438 31.082031 -12.730469 C 29.648438 -11.8125 28.15625 -11.355469 26.550781 -11.355469 Z M 26.550781 -11.355469 "/></g></g></g><g fill="#d9d9d9" fill-opacity="1"><g transform="translate(534.514251, 185.250002)"><g><path d="M 47.136719 -42.894531 L 46.851562 -43.238281 C 46.046875 -44.039062 45.53125 -44.957031 45.1875 -45.992188 C 44.15625 -49.203125 42.035156 -51.839844 38.9375 -53.90625 C 37.21875 -54.992188 35.265625 -55.855469 33.089844 -56.425781 C 30.910156 -57 28.671875 -57.289062 26.265625 -57.289062 C 23.855469 -57.289062 21.503906 -56.945312 19.269531 -56.371094 C 17.03125 -55.796875 15.023438 -54.9375 13.246094 -53.847656 C 10.839844 -52.355469 9.058594 -50.578125 7.800781 -48.457031 C 6.539062 -46.335938 5.964844 -44.039062 5.964844 -41.519531 C 5.964844 -36.699219 8.199219 -32.570312 12.789062 -29.1875 C 14.394531 -27.925781 16.113281 -26.894531 18.007812 -25.976562 C 19.898438 -25.058594 21.847656 -24.140625 23.796875 -23.339844 C 24.945312 -22.765625 26.207031 -22.191406 27.46875 -21.617188 C 28.730469 -21.046875 29.875 -20.414062 30.910156 -19.839844 C 31.941406 -19.210938 32.800781 -18.578125 33.488281 -17.949219 C 34.175781 -17.261719 34.523438 -16.628906 34.523438 -16 C 34.523438 -15.195312 34.234375 -14.449219 33.660156 -13.878906 C 33.089844 -13.304688 32.34375 -12.789062 31.480469 -12.445312 C 30.621094 -12.101562 29.703125 -11.8125 28.671875 -11.640625 C 27.640625 -11.410156 26.722656 -11.355469 25.804688 -11.355469 C 24.660156 -11.355469 23.511719 -11.46875 22.25 -11.753906 C 20.988281 -11.984375 19.898438 -12.445312 19.039062 -13.074219 C 18.808594 -13.246094 18.636719 -13.476562 18.636719 -13.761719 C 18.578125 -14.050781 18.636719 -14.277344 18.867188 -14.507812 L 18.925781 -14.566406 C 19.097656 -14.851562 19.097656 -15.140625 18.980469 -15.484375 C 18.808594 -15.828125 18.523438 -16 18.179688 -16 L 5.503906 -16 C 5.105469 -16 4.816406 -15.828125 4.703125 -15.484375 C 4.53125 -15.140625 4.53125 -14.851562 4.757812 -14.566406 L 4.988281 -14.335938 C 5.792969 -13.417969 6.308594 -12.445312 6.652344 -11.46875 C 7.683594 -8.144531 9.75 -5.503906 12.960938 -3.496094 C 14.679688 -2.351562 16.6875 -1.492188 18.867188 -0.917969 C 21.046875 -0.285156 23.398438 0 25.804688 0 C 28.671875 0 31.367188 -0.402344 33.832031 -1.203125 C 36.300781 -2.007812 38.421875 -3.097656 40.199219 -4.53125 C 41.976562 -5.90625 43.351562 -7.625 44.386719 -9.578125 C 45.359375 -11.527344 45.875 -13.648438 45.875 -16 C 45.875 -18.464844 45.300781 -20.644531 44.214844 -22.480469 C 43.125 -24.3125 41.746094 -25.921875 40.027344 -27.296875 C 38.304688 -28.671875 36.472656 -29.820312 34.40625 -30.851562 C 32.34375 -31.882812 30.335938 -32.800781 28.386719 -33.71875 C 27.066406 -34.292969 25.746094 -34.867188 24.429688 -35.496094 C 23.109375 -36.070312 21.90625 -36.699219 20.875 -37.390625 C 19.839844 -38.019531 18.980469 -38.707031 18.292969 -39.394531 C 17.605469 -40.085938 17.316406 -40.773438 17.316406 -41.519531 C 17.316406 -42.148438 17.546875 -42.722656 18.121094 -43.296875 C 18.636719 -43.867188 19.324219 -44.328125 20.183594 -44.730469 C 20.988281 -45.074219 21.964844 -45.359375 23.050781 -45.589844 C 24.085938 -45.820312 25.175781 -45.933594 26.265625 -45.933594 C 27.527344 -45.933594 28.789062 -45.761719 29.933594 -45.53125 C 31.082031 -45.246094 32 -44.84375 32.800781 -44.328125 C 33.03125 -44.15625 33.203125 -43.925781 33.203125 -43.640625 C 33.203125 -43.351562 33.144531 -43.125 32.972656 -42.953125 L 32.972656 -42.894531 C 32.742188 -42.550781 32.742188 -42.261719 32.917969 -41.976562 C 33.03125 -41.632812 33.316406 -41.519531 33.71875 -41.519531 L 46.390625 -41.519531 C 46.734375 -41.519531 47.023438 -41.632812 47.195312 -41.976562 C 47.308594 -42.261719 47.308594 -42.550781 47.136719 -42.894531 Z M 47.136719 -42.894531 "/></g></g></g></svg>