<svg xmlns="http://www.w3.org/2000/svg" xmlns:xlink="http://www.w3.org/1999/xlink" width="150" zoomAndPan="magnify" viewBox="0 0 112.5 38.999999" height="52" preserveAspectRatio="xMidYMid meet" version="1.0"><defs><clipPath id="id1"><path d="M 101 27 L 112.003906 27 L 112.003906 32 L 101 32 Z M 101 27 " clip-rule="nonzero"/></clipPath><clipPath id="id2"><path d="M 14 16 L 27 16 L 27 38.914062 L 14 38.914062 Z M 14 16 " clip-rule="nonzero"/></clipPath><clipPath id="id3"><path d="M 86 16 L 99 16 L 99 38.914062 L 86 38.914062 Z M 86 16 " clip-rule="nonzero"/></clipPath><clipPath id="id4"><path d="M 10 0.414062 L 15 0.414062 L 15 13 L 10 13 Z M 10 0.414062 " clip-rule="nonzero"/></clipPath><clipPath id="id5"><path d="M 28 0.414062 L 32 0.414062 L 32 13 L 28 13 Z M 28 0.414062 " clip-rule="nonzero"/></clipPath><clipPath id="id6"><path d="M 45 0.414062 L 50 0.414062 L 50 13 L 45 13 Z M 45 0.414062 " clip-rule="nonzero"/></clipPath><clipPath id="id7"><path d="M 63 0.414062 L 67 0.414062 L 67 13 L 63 13 Z M 63 0.414062 " clip-rule="nonzero"/></clipPath><clipPath id="id8"><path d="M 80 0.414062 L 85 0.414062 L 85 13 L 80 13 Z M 80 0.414062 " clip-rule="nonzero"/></clipPath><clipPath id="id9"><path d="M 98 0.414062 L 102 0.414062 L 102 13 L 98 13 Z M 98 0.414062 " clip-rule="nonzero"/></clipPath></defs><path fill="#e4eef6" d="M 82.617188 33.097656 L 29.882812 33.097656 L 29.882812 25.230469 L 82.617188 25.230469 L 82.617188 33.097656 " fill-opacity="1" fill-rule="nonzero"/><path fill="#d1d3d3" d="M 82.617188 30.550781 L 82.617188 33.097656 L 29.882812 33.097656 L 29.882812 30.550781 L 29.882812 34.097656 L 82.617188 34.097656 L 82.617188 30.550781 " fill-opacity="1" fill-rule="nonzero"/><path fill="#c1c7ce" d="M 82.617188 30.550781 L 29.882812 30.550781 L 29.882812 33.097656 L 82.617188 33.097656 L 82.617188 30.550781 " fill-opacity="1" fill-rule="nonzero"/><path fill="#2c3d53" d="M 0 29.664062 C 0 30.644531 0.785156 31.4375 1.757812 31.4375 L 10.648438 31.4375 C 10.742188 30.207031 10.902344 29.023438 11.128906 27.890625 L 1.757812 27.890625 C 0.785156 27.890625 0 28.6875 0 29.664062 " fill-opacity="1" fill-rule="nonzero"/><path fill="#2c3d53" d="M 29.882812 27.003906 L 82.617188 27.003906 L 82.617188 23.460938 L 29.882812 23.460938 L 29.882812 27.003906 " fill-opacity="1" fill-rule="nonzero"/><path fill="#2c3d53" d="M 29.882812 35.871094 L 82.617188 35.871094 L 82.617188 32.324219 L 29.882812 32.324219 L 29.882812 35.871094 " fill-opacity="1" fill-rule="nonzero"/><g clip-path="url(#id1)"><path fill="#2c3d53" d="M 110.742188 27.890625 L 101.371094 27.890625 C 101.597656 29.023438 101.757812 30.207031 101.847656 31.4375 L 110.742188 31.4375 C 111.714844 31.4375 112.5 30.644531 112.5 29.664062 C 112.5 28.683594 111.714844 27.890625 110.742188 27.890625 " fill-opacity="1" fill-rule="nonzero"/></g><g clip-path="url(#id2)"><path fill="#2c3d53" d="M 25.59375 16.671875 C 25.101562 16.34375 24.484375 16.28125 23.941406 16.5 C 17.570312 19.117188 14.0625 25.320312 14.0625 33.964844 L 14.0625 37.640625 C 14.0625 38.617188 14.851562 39.414062 15.820312 39.414062 L 24.609375 39.414062 C 25.074219 39.414062 25.523438 39.226562 25.847656 38.890625 C 26.183594 38.5625 26.367188 38.113281 26.367188 37.640625 L 26.367188 18.140625 C 26.367188 17.546875 26.078125 17 25.59375 16.671875 M 22.851562 35.867188 L 17.578125 35.867188 L 17.578125 33.964844 C 17.578125 29.648438 18.5625 24.230469 22.851562 21.121094 L 22.851562 35.867188 " fill-opacity="1" fill-rule="nonzero"/></g><path fill="#f35e52" d="M 22.851562 21.121094 L 22.851562 35.867188 L 17.578125 35.867188 L 17.578125 33.964844 C 17.578125 29.648438 18.5625 24.230469 22.851562 21.121094 " fill-opacity="1" fill-rule="nonzero"/><g clip-path="url(#id3)"><path fill="#2c3d53" d="M 88.550781 16.503906 C 88.015625 16.28125 87.398438 16.34375 86.90625 16.671875 C 86.421875 17 86.132812 17.546875 86.132812 18.140625 L 86.132812 37.640625 C 86.132812 38.617188 86.921875 39.414062 87.890625 39.414062 L 96.679688 39.414062 C 97.648438 39.414062 98.4375 38.617188 98.4375 37.640625 L 98.4375 33.964844 C 98.4375 25.320312 94.929688 19.117188 88.550781 16.503906 M 94.921875 35.867188 L 89.648438 35.867188 L 89.648438 21.121094 C 93.9375 24.230469 94.921875 29.648438 94.921875 33.964844 L 94.921875 35.867188 " fill-opacity="1" fill-rule="nonzero"/></g><path fill="#f35e52" d="M 94.921875 33.964844 L 94.921875 35.867188 L 89.648438 35.867188 L 89.648438 21.121094 C 93.9375 24.230469 94.921875 29.648438 94.921875 33.964844 " fill-opacity="1" fill-rule="nonzero"/><g clip-path="url(#id4)"><path fill="#2c3d53" d="M 14.0625 2.1875 C 14.0625 1.207031 13.277344 0.414062 12.304688 0.414062 C 11.332031 0.414062 10.546875 1.207031 10.546875 2.1875 L 10.546875 11.050781 C 10.546875 12.03125 11.332031 12.824219 12.304688 12.824219 C 13.277344 12.824219 14.0625 12.03125 14.0625 11.050781 L 14.0625 2.1875 " fill-opacity="1" fill-rule="nonzero"/></g><g clip-path="url(#id5)"><path fill="#2c3d53" d="M 31.640625 11.050781 L 31.640625 2.1875 C 31.640625 1.207031 30.855469 0.414062 29.882812 0.414062 C 28.910156 0.414062 28.125 1.207031 28.125 2.1875 L 28.125 11.050781 C 28.125 12.03125 28.910156 12.824219 29.882812 12.824219 C 30.855469 12.824219 31.640625 12.03125 31.640625 11.050781 " fill-opacity="1" fill-rule="nonzero"/></g><g clip-path="url(#id6)"><path fill="#2c3d53" d="M 47.460938 12.824219 C 48.433594 12.824219 49.21875 12.03125 49.21875 11.050781 L 49.21875 2.1875 C 49.21875 1.207031 48.433594 0.414062 47.460938 0.414062 C 46.488281 0.414062 45.703125 1.207031 45.703125 2.1875 L 45.703125 11.050781 C 45.703125 12.03125 46.488281 12.824219 47.460938 12.824219 " fill-opacity="1" fill-rule="nonzero"/></g><g clip-path="url(#id7)"><path fill="#2c3d53" d="M 65.039062 12.824219 C 66.007812 12.824219 66.796875 12.03125 66.796875 11.050781 L 66.796875 2.1875 C 66.796875 1.207031 66.007812 0.414062 65.039062 0.414062 C 64.070312 0.414062 63.28125 1.207031 63.28125 2.1875 L 63.28125 11.050781 C 63.28125 12.03125 64.070312 12.824219 65.039062 12.824219 " fill-opacity="1" fill-rule="nonzero"/></g><g clip-path="url(#id8)"><path fill="#2c3d53" d="M 82.617188 0.414062 C 81.644531 0.414062 80.859375 1.207031 80.859375 2.1875 L 80.859375 11.050781 C 80.859375 12.03125 81.644531 12.824219 82.617188 12.824219 C 83.585938 12.824219 84.375 12.03125 84.375 11.050781 L 84.375 2.1875 C 84.375 1.207031 83.585938 0.414062 82.617188 0.414062 " fill-opacity="1" fill-rule="nonzero"/></g><g clip-path="url(#id9)"><path fill="#2c3d53" d="M 101.953125 11.050781 L 101.953125 2.1875 C 101.953125 1.207031 101.167969 0.414062 100.195312 0.414062 C 99.222656 0.414062 98.4375 1.207031 98.4375 2.1875 L 98.4375 11.050781 C 98.4375 12.03125 99.222656 12.824219 100.195312 12.824219 C 101.167969 12.824219 101.953125 12.03125 101.953125 11.050781 " fill-opacity="1" fill-rule="nonzero"/></g><path fill="#f68179" d="M 22.851562 21.121094 C 18.5625 24.230469 17.578125 29.648438 17.578125 33.964844 L 17.578125 35.734375 L 17.578125 34.097656 L 17.628906 34.097656 C 17.871094 30.121094 19.089844 25.621094 22.851562 22.890625 L 22.851562 21.121094 " fill-opacity="1" fill-rule="nonzero"/><path fill="#d24d44" d="M 22.851562 34.097656 L 17.625 34.097656 C 17.59375 34.65625 17.578125 35.203125 17.578125 35.738281 L 17.578125 35.871094 L 22.851562 35.871094 L 22.851562 34.097656 " fill-opacity="1" fill-rule="nonzero"/><path fill="#d15c57" d="M 17.625 34.097656 L 17.578125 34.097656 L 17.578125 35.738281 C 17.578125 35.203125 17.59375 34.65625 17.625 34.097656 " fill-opacity="1" fill-rule="nonzero"/><path fill="#f68179" d="M 89.648438 21.121094 L 89.648438 22.894531 C 93.410156 25.621094 94.628906 30.121094 94.871094 34.097656 L 94.921875 34.097656 L 94.921875 33.964844 C 94.921875 29.648438 93.9375 24.230469 89.648438 21.121094 " fill-opacity="1" fill-rule="nonzero"/><path fill="#d24d44" d="M 94.871094 34.097656 L 89.648438 34.097656 L 89.648438 35.867188 L 94.921875 35.867188 L 94.921875 35.734375 C 94.921875 35.203125 94.90625 34.65625 94.871094 34.097656 " fill-opacity="1" fill-rule="nonzero"/><path fill="#d15c57" d="M 94.921875 34.097656 L 94.871094 34.097656 C 94.90625 34.65625 94.921875 35.203125 94.921875 35.734375 L 94.921875 34.097656 " fill-opacity="1" fill-rule="nonzero"/></svg>