<svg xmlns="http://www.w3.org/2000/svg" xmlns:xlink="http://www.w3.org/1999/xlink" width="150" zoomAndPan="magnify" viewBox="0 0 112.5 101.249998" height="135" preserveAspectRatio="xMidYMid meet" version="1.0"><defs><clipPath id="id1"><path d="M 1 5 L 111 5 L 111 97 L 1 97 Z M 1 5 " clip-rule="nonzero"/></clipPath><clipPath id="id2"><path d="M -3.019531 48.402344 L 87.203125 0.09375 L 115.386719 52.722656 L 25.164062 101.035156 Z M -3.019531 48.402344 " clip-rule="nonzero"/></clipPath><clipPath id="id3"><path d="M -3.019531 48.402344 L 87.203125 0.09375 L 115.386719 52.722656 L 25.164062 101.035156 Z M -3.019531 48.402344 " clip-rule="nonzero"/></clipPath><clipPath id="id4"><path d="M -3.019531 48.402344 L 87.203125 0.09375 L 115.386719 52.722656 L 25.164062 101.035156 Z M -3.019531 48.402344 " clip-rule="nonzero"/></clipPath><clipPath id="id5"><path d="M 14 16 L 98 16 L 98 86 L 14 86 Z M 14 16 " clip-rule="nonzero"/></clipPath><clipPath id="id6"><path d="M -3.019531 48.402344 L 87.203125 0.09375 L 115.386719 52.722656 L 25.164062 101.035156 Z M -3.019531 48.402344 " clip-rule="nonzero"/></clipPath><clipPath id="id7"><path d="M -3.019531 48.402344 L 87.203125 0.09375 L 115.386719 52.722656 L 25.164062 101.035156 Z M -3.019531 48.402344 " clip-rule="nonzero"/></clipPath><clipPath id="id8"><path d="M -3.019531 48.402344 L 87.203125 0.09375 L 115.386719 52.722656 L 25.164062 101.035156 Z M -3.019531 48.402344 " clip-rule="nonzero"/></clipPath><clipPath id="id9"><path d="M 10 11 L 103 11 L 103 90 L 10 90 Z M 10 11 " clip-rule="nonzero"/></clipPath><clipPath id="id10"><path d="M -3.019531 48.402344 L 87.203125 0.09375 L 115.386719 52.722656 L 25.164062 101.035156 Z M -3.019531 48.402344 " clip-rule="nonzero"/></clipPath><clipPath id="id11"><path d="M -3.019531 48.402344 L 87.203125 0.09375 L 115.386719 52.722656 L 25.164062 101.035156 Z M -3.019531 48.402344 " clip-rule="nonzero"/></clipPath><clipPath id="id12"><path d="M -3.019531 48.402344 L 87.203125 0.09375 L 115.386719 52.722656 L 25.164062 101.035156 Z M -3.019531 48.402344 " clip-rule="nonzero"/></clipPath><clipPath id="id13"><path d="M 28 32 L 81 32 L 81 68 L 28 68 Z M 28 32 " clip-rule="nonzero"/></clipPath><clipPath id="id14"><path d="M -3.019531 48.402344 L 87.203125 0.09375 L 115.386719 52.722656 L 25.164062 101.035156 Z M -3.019531 48.402344 " clip-rule="nonzero"/></clipPath><clipPath id="id15"><path d="M -3.019531 48.402344 L 87.203125 0.09375 L 115.386719 52.722656 L 25.164062 101.035156 Z M -3.019531 48.402344 " clip-rule="nonzero"/></clipPath><clipPath id="id16"><path d="M -3.019531 48.402344 L 87.203125 0.09375 L 115.386719 52.722656 L 25.164062 101.035156 Z M -3.019531 48.402344 " clip-rule="nonzero"/></clipPath><clipPath id="id17"><path d="M 28 25 L 85 25 L 85 77 L 28 77 Z M 28 25 " clip-rule="nonzero"/></clipPath><clipPath id="id18"><path d="M -3.019531 48.402344 L 87.203125 0.09375 L 115.386719 52.722656 L 25.164062 101.035156 Z M -3.019531 48.402344 " clip-rule="nonzero"/></clipPath><clipPath id="id19"><path d="M -3.019531 48.402344 L 87.203125 0.09375 L 115.386719 52.722656 L 25.164062 101.035156 Z M -3.019531 48.402344 " clip-rule="nonzero"/></clipPath><clipPath id="id20"><path d="M -3.019531 48.402344 L 87.203125 0.09375 L 115.386719 52.722656 L 25.164062 101.035156 Z M -3.019531 48.402344 " clip-rule="nonzero"/></clipPath><clipPath id="id21"><path d="M 80 66.191406 L 107.738281 66.191406 L 107.738281 96 L 80 96 Z M 80 66.191406 " clip-rule="nonzero"/></clipPath><clipPath id="id22"><path d="M 51.136719 66.191406 L 79 66.191406 L 79 96 L 51.136719 96 Z M 51.136719 66.191406 " clip-rule="nonzero"/></clipPath><clipPath id="id23"><path d="M 65 70 L 94 70 L 94 100.503906 L 65 100.503906 Z M 65 70 " clip-rule="nonzero"/></clipPath></defs><g clip-path="url(#id1)"><g clip-path="url(#id2)"><g clip-path="url(#id3)"><g clip-path="url(#id4)"><path fill="#cc9329" d="M 92.648438 10.933594 C 92.703125 10.90625 92.667969 10.925781 92.8125 10.847656 L 91.921875 9.1875 C 91.921875 9.1875 91.851562 9.226562 91.832031 9.234375 C 86.863281 11.894531 80.667969 10.054688 78 5.070312 C 77.988281 5.050781 77.960938 5.042969 77.960938 5.042969 L 5.988281 43.582031 C 5.988281 43.582031 6.015625 43.589844 6.027344 43.605469 C 8.6875 48.574219 6.863281 54.6875 1.933594 57.371094 L 2.84375 59.070312 C 4.679688 58.179688 6.894531 58.898438 7.871094 60.722656 C 8.847656 62.546875 8.222656 64.789062 6.46875 65.84375 L 7.195312 67.199219 C 9.03125 66.304688 11.246094 67.027344 12.226562 68.851562 C 13.203125 70.675781 12.574219 72.917969 10.8125 73.953125 L 11.535156 75.308594 C 13.375 74.414062 15.589844 75.136719 16.566406 76.960938 C 17.542969 78.785156 16.914062 81.027344 15.152344 82.0625 L 15.878906 83.417969 C 17.71875 82.523438 19.933594 83.246094 20.910156 85.070312 C 21.886719 86.894531 21.257812 89.136719 19.496094 90.171875 L 20.453125 91.960938 C 25.277344 89.421875 31.457031 91.273438 34.152344 96.21875 L 106.125 57.683594 C 103.5 52.695312 105.375 46.507812 110.324219 43.859375 C 110.34375 43.851562 110.398438 43.773438 110.398438 43.773438 L 109.429688 41.96875 C 109.285156 42.046875 109.320312 42.027344 109.269531 42.054688 C 107.414062 43.046875 105.054688 42.359375 104.058594 40.5 C 103.0625 38.640625 103.777344 36.304688 105.652344 35.300781 C 105.703125 35.273438 105.667969 35.292969 105.8125 35.214844 L 105.085938 33.859375 C 104.945312 33.9375 104.980469 33.917969 104.925781 33.945312 C 103.070312 34.9375 100.710938 34.25 99.714844 32.390625 C 98.71875 30.53125 99.4375 28.195312 101.308594 27.191406 C 101.363281 27.164062 101.328125 27.183594 101.46875 27.105469 L 100.746094 25.75 C 100.601562 25.828125 100.636719 25.808594 100.582031 25.835938 C 98.730469 26.828125 96.371094 26.140625 95.375 24.28125 C 94.378906 22.421875 95.09375 20.085938 96.964844 19.082031 C 97.019531 19.054688 96.984375 19.074219 97.128906 18.996094 L 96.402344 17.640625 C 96.257812 17.71875 96.292969 17.699219 96.242188 17.726562 C 94.386719 18.71875 92.027344 18.03125 91.03125 16.171875 C 90.050781 14.253906 90.796875 11.929688 92.648438 10.933594 Z M 92.648438 10.933594 " fill-opacity="1" fill-rule="nonzero"/></g></g></g></g><g clip-path="url(#id5)"><g clip-path="url(#id6)"><g clip-path="url(#id7)"><g clip-path="url(#id8)"><path fill="#e4bb5c" d="M 74.960938 16.132812 L 17.007812 47.164062 C 17.507812 50.21875 16.597656 53.355469 14.535156 55.644531 L 28.886719 82.449219 C 31.933594 82 35.035156 82.988281 37.308594 85.074219 L 95.277344 54.03125 C 94.785156 50.949219 95.753906 47.78125 97.84375 45.5 L 83.53125 18.769531 C 80.453125 19.253906 77.261719 18.269531 74.960938 16.132812 Z M 74.960938 16.132812 " fill-opacity="1" fill-rule="nonzero"/></g></g></g></g><g clip-path="url(#id9)"><g clip-path="url(#id10)"><g clip-path="url(#id11)"><g clip-path="url(#id12)"><path fill="#925c1a" d="M 85.136719 14.679688 C 81.824219 16.453125 77.691406 15.179688 75.914062 11.855469 C 75.902344 11.835938 75.875 11.785156 75.875 11.785156 L 12.882812 45.511719 C 12.882812 45.511719 12.910156 45.566406 12.921875 45.585938 C 14.691406 48.890625 13.496094 53.015625 10.210938 54.796875 L 27.203125 86.53125 C 30.5 84.8125 34.605469 86.078125 36.375 89.382812 C 36.382812 89.402344 36.402344 89.4375 36.402344 89.4375 L 99.375 55.71875 C 99.375 55.71875 99.359375 55.683594 99.347656 55.664062 C 97.578125 52.359375 98.808594 48.214844 102.121094 46.441406 C 102.140625 46.429688 102.15625 46.421875 102.175781 46.410156 L 85.171875 14.660156 C 85.171875 14.660156 85.15625 14.667969 85.136719 14.679688 Z M 97.851562 45.519531 C 95.746094 47.808594 94.804688 50.984375 95.289062 54.050781 L 37.316406 85.089844 C 35.035156 82.988281 31.945312 82.019531 28.894531 82.464844 L 14.542969 55.664062 C 16.605469 53.375 17.507812 50.21875 17.019531 47.179688 L 74.96875 16.148438 C 77.273438 18.285156 80.453125 19.253906 83.53125 18.769531 Z M 97.851562 45.519531 " fill-opacity="1" fill-rule="nonzero"/></g></g></g></g><g clip-path="url(#id13)"><g clip-path="url(#id14)"><g clip-path="url(#id15)"><g clip-path="url(#id16)"><path fill="#4c2d00" d="M 28.710938 58.722656 L 37.5625 53.980469 L 38.695312 56.09375 L 35.402344 57.855469 L 39.753906 65.984375 L 37.503906 67.1875 L 33.152344 59.0625 L 29.859375 60.824219 L 28.726562 58.710938 Z M 44.542969 63.421875 L 46.484375 62.378906 L 41 52.140625 L 39.058594 53.179688 Z M 48.765625 50.421875 C 49.648438 49.949219 50.535156 49.660156 51.402344 49.59375 L 51.949219 49.53125 L 51.707031 47.265625 L 51.179688 47.316406 C 50.011719 47.429688 48.84375 47.800781 47.675781 48.425781 C 46.109375 49.265625 45.148438 50.453125 44.800781 51.964844 C 44.511719 53.328125 44.761719 54.796875 45.566406 56.296875 C 46.378906 57.8125 47.488281 58.84375 48.808594 59.371094 C 50.160156 59.902344 51.535156 59.792969 52.894531 59.085938 C 54.265625 58.355469 55.355469 57.492188 56.113281 56.527344 L 56.421875 56.152344 L 54.753906 54.558594 L 54.40625 55.070312 C 53.851562 55.808594 53.082031 56.453125 52.09375 56.984375 C 51.230469 57.445312 50.390625 57.429688 49.527344 56.988281 C 48.792969 56.613281 48.246094 56.023438 47.800781 55.191406 C 47.316406 54.289062 47.101562 53.453125 47.160156 52.699219 C 47.230469 51.707031 47.742188 50.972656 48.765625 50.421875 Z M 61.300781 41.78125 L 58.675781 42.417969 L 56.816406 48.109375 L 54.96875 44.660156 L 52.863281 45.789062 L 58.34375 56.03125 L 60.453125 54.902344 L 58.304688 50.890625 L 58.457031 50.484375 L 64.742188 52.835938 L 66.46875 50.914062 L 59.246094 48.15625 Z M 67.34375 51.210938 L 73.949219 47.675781 L 72.816406 45.5625 L 68.605469 47.816406 L 67.398438 45.558594 L 70.996094 43.632812 L 69.867188 41.519531 L 66.265625 43.445312 L 65.375 41.785156 L 69.570312 39.539062 L 68.4375 37.425781 L 61.832031 40.960938 L 67.328125 51.21875 Z M 69.347656 36.960938 L 70.480469 39.074219 L 73.773438 37.3125 L 78.125 45.4375 L 80.375 44.234375 L 76.023438 36.105469 L 79.316406 34.34375 L 78.183594 32.230469 Z M 69.347656 36.960938 " fill-opacity="1" fill-rule="nonzero"/></g></g></g></g><g clip-path="url(#id17)"><g clip-path="url(#id18)"><g clip-path="url(#id19)"><g clip-path="url(#id20)"><path fill="#ffee8f" d="M 66.519531 30.039062 L 64.355469 29.410156 L 66.160156 28.070312 L 66.085938 25.808594 L 67.925781 27.125 L 70.042969 26.363281 L 69.363281 28.515625 L 70.761719 30.300781 L 68.496094 30.308594 L 67.234375 32.191406 Z M 57.085938 30.628906 L 57.164062 32.886719 L 55.355469 34.226562 L 57.523438 34.855469 L 58.234375 37.007812 L 59.496094 35.125 L 61.761719 35.121094 L 60.367188 33.335938 L 61.042969 31.183594 L 58.925781 31.945312 Z M 48.089844 35.445312 L 48.164062 37.707031 L 46.355469 39.046875 L 48.523438 39.675781 L 49.234375 41.828125 L 50.496094 39.945312 L 52.761719 39.9375 L 51.367188 38.152344 L 52.042969 36 L 49.929688 36.761719 Z M 39.089844 40.265625 L 39.164062 42.527344 L 37.359375 43.863281 L 39.523438 44.496094 L 40.238281 46.644531 L 41.496094 44.761719 L 43.765625 44.757812 L 42.367188 42.972656 L 43.046875 40.820312 L 40.929688 41.582031 Z M 45.226562 71.234375 L 43.386719 69.917969 L 43.464844 72.179688 L 41.65625 73.519531 L 43.824219 74.148438 L 44.535156 76.296875 L 45.796875 74.414062 L 48.0625 74.410156 L 46.667969 72.625 L 47.34375 70.472656 Z M 30.089844 45.082031 L 30.167969 47.34375 L 28.359375 48.683594 L 30.527344 49.3125 L 31.238281 51.464844 L 32.5 49.582031 L 34.765625 49.574219 L 33.371094 47.789062 L 34.046875 45.636719 L 31.929688 46.398438 Z M 54.226562 66.414062 L 52.386719 65.097656 L 52.460938 67.359375 L 50.65625 68.699219 L 52.824219 69.328125 L 53.535156 71.480469 L 54.796875 69.597656 L 57.0625 69.589844 L 55.664062 67.804688 L 56.34375 65.652344 Z M 63.226562 61.597656 L 61.386719 60.28125 L 61.460938 62.542969 L 59.65625 63.878906 L 61.820312 64.511719 L 62.535156 66.660156 L 63.792969 64.777344 L 66.0625 64.773438 L 64.664062 62.988281 L 65.34375 60.835938 Z M 72.222656 56.777344 L 70.386719 55.460938 L 70.460938 57.722656 L 68.652344 59.0625 L 70.820312 59.691406 L 71.53125 61.84375 L 72.792969 59.960938 L 75.058594 59.953125 L 73.664062 58.167969 L 74.339844 56.015625 Z M 81.222656 51.960938 L 79.382812 50.644531 L 79.460938 52.902344 L 77.652344 54.242188 L 79.820312 54.871094 L 80.53125 57.023438 L 81.792969 55.140625 L 84.058594 55.136719 L 82.664062 53.351562 L 83.339844 51.199219 Z M 81.222656 51.960938 " fill-opacity="1" fill-rule="nonzero"/></g></g></g></g><g clip-path="url(#id21)"><path fill="#287777" d="M 107.714844 91.464844 C 107.621094 88.921875 106.214844 86.613281 103.910156 84.90625 C 102.84375 84.121094 101.585938 83.464844 100.175781 82.972656 C 102.242188 81.234375 103.554688 78.621094 103.554688 75.703125 C 103.554688 70.464844 99.335938 66.21875 94.132812 66.21875 C 88.925781 66.21875 84.707031 70.464844 84.707031 75.703125 C 84.707031 78.621094 86.023438 81.234375 88.085938 82.972656 C 86.675781 83.464844 85.417969 84.121094 84.355469 84.90625 C 82.046875 86.609375 80.644531 88.921875 80.546875 91.464844 C 80.515625 92.359375 80.613281 93.109375 80.816406 93.75 C 84.34375 94.625 89.011719 95.160156 94.132812 95.160156 C 99.265625 95.160156 103.941406 94.625 107.46875 93.742188 C 107.660156 93.105469 107.746094 92.355469 107.714844 91.464844 " fill-opacity="1" fill-rule="nonzero"/></g><g clip-path="url(#id22)"><path fill="#287777" d="M 78.34375 91.464844 C 78.25 88.921875 76.847656 86.613281 74.539062 84.90625 C 73.476562 84.121094 72.21875 83.464844 70.808594 82.972656 C 72.871094 81.234375 74.183594 78.621094 74.183594 75.703125 C 74.183594 70.464844 69.964844 66.21875 64.761719 66.21875 C 59.558594 66.21875 55.339844 70.464844 55.339844 75.703125 C 55.339844 78.621094 56.652344 81.234375 58.714844 82.972656 C 57.304688 83.464844 56.050781 84.121094 54.984375 84.90625 C 52.679688 86.609375 51.273438 88.921875 51.179688 91.464844 C 51.144531 92.359375 51.242188 93.109375 51.449219 93.75 C 54.972656 94.625 59.640625 95.160156 64.761719 95.160156 C 69.894531 95.160156 74.574219 94.625 78.101562 93.742188 C 78.289062 93.105469 78.378906 92.355469 78.34375 91.464844 " fill-opacity="1" fill-rule="nonzero"/></g><g clip-path="url(#id23)"><path fill="#40bfbc" d="M 93.886719 97.144531 C 93.785156 94.441406 92.292969 91.984375 89.839844 90.171875 C 88.710938 89.335938 87.375 88.636719 85.875 88.117188 C 88.066406 86.269531 89.460938 83.492188 89.460938 80.386719 C 89.460938 74.820312 84.980469 70.304688 79.445312 70.304688 C 73.914062 70.304688 69.429688 74.820312 69.429688 80.386719 C 69.429688 83.492188 70.824219 86.269531 73.019531 88.117188 C 71.519531 88.636719 70.183594 89.335938 69.054688 90.171875 C 66.601562 91.984375 65.109375 94.441406 65.007812 97.144531 C 64.972656 98.09375 65.074219 98.894531 65.292969 99.574219 C 69.042969 100.503906 74.003906 101.070312 79.445312 101.070312 C 84.902344 101.070312 89.875 100.5 93.625 99.566406 C 93.828125 98.886719 93.921875 98.089844 93.886719 97.144531 " fill-opacity="1" fill-rule="nonzero"/></g></svg>