<svg xmlns="http://www.w3.org/2000/svg" xmlns:xlink="http://www.w3.org/1999/xlink" width="150" zoomAndPan="magnify" viewBox="0 0 112.5 101.249998" height="135" preserveAspectRatio="xMidYMid meet" version="1.0"><defs><clipPath id="id1"><path d="M 1 31 L 101 31 L 101 90.929688 L 1 90.929688 Z M 1 31 " clip-rule="nonzero"/></clipPath><clipPath id="id2"><path d="M 1 25 L 101.246094 25 L 101.246094 36 L 1 36 Z M 1 25 " clip-rule="nonzero"/></clipPath><clipPath id="id3"><path d="M 0.164062 2.652344 L 101 2.652344 L 101 26 L 0.164062 26 Z M 0.164062 2.652344 " clip-rule="nonzero"/></clipPath><clipPath id="id4"><path d="M 1 35 L 101.246094 35 L 101.246094 36 L 1 36 Z M 1 35 " clip-rule="nonzero"/></clipPath><clipPath id="id5"><path d="M 65.890625 43 L 79 43 L 79 93 L 65.890625 93 Z M 65.890625 43 " clip-rule="nonzero"/></clipPath><clipPath id="id6"><path d="M 87 29.363281 L 96 29.363281 L 96 39 L 87 39 Z M 87 29.363281 " clip-rule="nonzero"/></clipPath><clipPath id="id7"><path d="M 105 33 L 111.839844 33 L 111.839844 42 L 105 42 Z M 105 33 " clip-rule="nonzero"/></clipPath><clipPath id="id8"><path d="M 71 29.363281 L 80 29.363281 L 80 37 L 71 37 Z M 71 29.363281 " clip-rule="nonzero"/></clipPath><clipPath id="id9"><path d="M 105 39 L 111.839844 39 L 111.839844 47 L 105 47 Z M 105 39 " clip-rule="nonzero"/></clipPath><clipPath id="id10"><path d="M 106 40 L 111.839844 40 L 111.839844 44 L 106 44 Z M 106 40 " clip-rule="nonzero"/></clipPath></defs><path fill="#000000" d="M 1.484375 17.132812 L 1.484375 31.976562 C 1.484375 32.265625 1.542969 32.542969 1.652344 32.808594 C 1.761719 33.078125 1.921875 33.3125 2.128906 33.515625 C 2.332031 33.722656 2.570312 33.878906 2.839844 33.988281 C 3.105469 34.097656 3.386719 34.15625 3.675781 34.15625 L 9.726562 34.15625 C 10.019531 34.15625 10.296875 34.097656 10.566406 33.988281 C 10.835938 33.878906 11.070312 33.722656 11.277344 33.515625 C 11.480469 33.3125 11.640625 33.078125 11.75 32.808594 C 11.863281 32.542969 11.917969 32.265625 11.917969 31.976562 L 11.917969 17.132812 C 11.917969 16.84375 11.863281 16.566406 11.75 16.296875 C 11.640625 16.03125 11.480469 15.796875 11.277344 15.589844 C 11.070312 15.386719 10.835938 15.230469 10.566406 15.117188 C 10.296875 15.007812 10.019531 14.953125 9.726562 14.953125 L 3.675781 14.953125 C 3.386719 14.953125 3.105469 15.007812 2.839844 15.117188 C 2.570312 15.230469 2.332031 15.386719 2.128906 15.589844 C 1.921875 15.796875 1.761719 16.03125 1.652344 16.296875 C 1.542969 16.566406 1.484375 16.84375 1.484375 17.132812 " fill-opacity="1" fill-rule="evenodd"/><g clip-path="url(#id1)"><path fill="#000000" d="M 3.71875 31.820312 L 98.847656 31.820312 C 99.097656 31.820312 99.339844 31.867188 99.570312 31.960938 C 99.800781 32.058594 100.007812 32.195312 100.183594 32.371094 C 100.359375 32.550781 100.496094 32.753906 100.59375 32.984375 C 100.6875 33.214844 100.734375 33.457031 100.734375 33.707031 L 100.734375 89.042969 C 100.734375 89.292969 100.6875 89.535156 100.59375 89.765625 C 100.496094 90 100.359375 90.203125 100.183594 90.378906 C 100.007812 90.554688 99.800781 90.691406 99.570312 90.789062 C 99.339844 90.882812 99.097656 90.933594 98.847656 90.933594 L 3.71875 90.933594 C 3.46875 90.933594 3.226562 90.882812 2.996094 90.789062 C 2.765625 90.691406 2.5625 90.554688 2.386719 90.378906 C 2.207031 90.203125 2.070312 90 1.976562 89.765625 C 1.878906 89.535156 1.832031 89.292969 1.832031 89.042969 L 1.832031 33.707031 C 1.832031 33.457031 1.878906 33.214844 1.976562 32.984375 C 2.070312 32.753906 2.207031 32.550781 2.386719 32.371094 C 2.5625 32.195312 2.765625 32.058594 2.996094 31.960938 C 3.226562 31.867188 3.46875 31.820312 3.71875 31.820312 " fill-opacity="1" fill-rule="evenodd"/></g><g clip-path="url(#id2)"><path fill="#000000" d="M 1.371094 25.164062 L 101.195312 25.164062 L 101.195312 35.539062 L 1.371094 35.539062 Z M 1.371094 25.164062 " fill-opacity="1" fill-rule="evenodd"/></g><path fill="#ffffff" d="M 11.957031 34.960938 L 21.507812 34.960938 L 26.535156 25.742188 L 16.984375 25.742188 Z M 11.957031 34.960938 " fill-opacity="1" fill-rule="evenodd"/><path fill="#ffffff" d="M 36.414062 34.960938 L 45.964844 34.960938 L 50.992188 25.742188 L 41.441406 25.742188 Z M 36.414062 34.960938 " fill-opacity="1" fill-rule="evenodd"/><path fill="#ffffff" d="M 60.871094 34.960938 L 70.425781 34.960938 L 75.453125 25.742188 L 65.898438 25.742188 Z M 60.871094 34.960938 " fill-opacity="1" fill-rule="evenodd"/><path fill="#ffffff" d="M 85.332031 34.960938 L 94.882812 34.960938 L 99.910156 25.742188 L 90.359375 25.742188 Z M 85.332031 34.960938 " fill-opacity="1" fill-rule="evenodd"/><g clip-path="url(#id3)"><path fill="#000000" d="M 99.265625 2.65625 L 0.203125 14.914062 L 1.492188 25.210938 L 100.554688 12.949219 Z M 99.265625 2.65625 " fill-opacity="1" fill-rule="evenodd"/></g><path fill="#ffffff" d="M 99.222656 12.53125 L 89.742188 13.703125 L 83.609375 5.175781 L 93.089844 4.003906 Z M 99.222656 12.53125 " fill-opacity="1" fill-rule="evenodd"/><path fill="#ffffff" d="M 74.953125 15.535156 L 65.472656 16.707031 L 59.339844 8.179688 L 68.820312 7.007812 Z M 74.953125 15.535156 " fill-opacity="1" fill-rule="evenodd"/><path fill="#ffffff" d="M 50.679688 18.539062 L 41.203125 19.710938 L 35.070312 11.183594 L 44.546875 10.011719 Z M 50.679688 18.539062 " fill-opacity="1" fill-rule="evenodd"/><path fill="#ffffff" d="M 26.410156 21.542969 L 16.933594 22.714844 L 10.800781 14.1875 L 20.277344 13.015625 Z M 26.410156 21.542969 " fill-opacity="1" fill-rule="evenodd"/><path stroke-linecap="butt" transform="matrix(0.144941, -0.0179378, 0.0180358, 0.144154, -12.533406, -3.146409)" fill-opacity="1" fill="#ffffff" fill-rule="evenodd" stroke-linejoin="miter" d="M 125.710766 168.081102 C 125.717187 169.978748 125.381913 171.806777 124.648545 173.585269 C 123.945037 175.340379 122.913116 176.919134 121.559424 178.268164 C 120.232272 179.620497 118.676249 180.646274 116.914574 181.375482 C 115.152899 182.104691 113.328232 182.473789 111.414034 182.479476 C 109.526376 182.488464 107.685204 182.123868 105.917059 181.38899 C 104.175454 180.657414 102.632933 179.625437 101.292816 178.266375 C 99.9527 176.907313 98.907864 175.341115 98.184848 173.571082 C 97.485052 171.831036 97.120334 169.997196 97.143773 168.076168 C 97.110812 166.17522 97.472625 164.350493 98.205993 162.572001 C 98.909501 160.816891 99.938101 159.264821 101.291794 157.915791 C 102.622267 156.536774 104.17829 155.510997 105.939965 154.781788 C 107.6751 154.049277 109.526306 153.683481 111.413965 153.674493 C 113.328163 153.668806 115.169334 154.033403 116.910939 154.764978 C 118.679084 155.499857 120.218285 156.558518 121.561722 157.890895 C 122.901839 159.249957 123.946675 160.816156 124.643151 162.582886 C 125.366166 164.35292 125.730884 166.186759 125.710766 168.081102 Z M 125.710766 168.081102 " stroke="#ffffff" stroke-width="4" stroke-opacity="1" stroke-miterlimit="4"/><g clip-path="url(#id4)"><path stroke-linecap="butt" transform="matrix(0.210551, 0, 0, 0.210686, -27.671608, -56.953597)" fill="none" stroke-linejoin="miter" d="M 137.843836 439.062063 L 612.045831 439.062063 " stroke="#cccccc" stroke-width="0.692" stroke-opacity="1" stroke-miterlimit="4"/></g><path stroke-linecap="butt" transform="matrix(0.146059, 0, 0, 0.145266, -9.392194, -15.994061)" fill="none" stroke-linejoin="miter" d="M 104.126199 618.355388 L 726.70613 618.355388 " stroke="#ffffff" stroke-width="4" stroke-opacity="1" stroke-miterlimit="4"/><path stroke-linecap="butt" transform="matrix(0.146059, 0, 0, 0.145266, -12.427709, -15.994061)" fill="none" stroke-linejoin="miter" d="M 307.94676 713.143702 L 307.94676 619.323439 " stroke="#ffffff" stroke-width="4" stroke-opacity="1" stroke-miterlimit="4"/><path stroke-linecap="butt" transform="matrix(0.146059, 0, 0, 0.145266, -12.427709, -15.994061)" fill="none" stroke-linejoin="miter" d="M 564.424338 713.143702 L 564.424338 619.323439 " stroke="#ffffff" stroke-width="4" stroke-opacity="1" stroke-miterlimit="4"/><path stroke-linecap="butt" transform="matrix(0.146059, 0, 0, 0.145266, -9.392194, -15.994061)" fill="none" stroke-linejoin="miter" d="M 104.126199 524.481345 L 726.70613 524.481345 " stroke="#ffffff" stroke-width="4" stroke-opacity="1" stroke-miterlimit="4"/><path stroke-linecap="butt" transform="matrix(0.146059, 0, 0, 0.145266, -9.392194, -15.994061)" fill="none" stroke-linejoin="miter" d="M 104.126199 430.634191 L 726.70613 430.634191 " stroke="#ffffff" stroke-width="4" stroke-opacity="1" stroke-miterlimit="4"/><path fill="#f1dbb9" d="M 93.542969 41.542969 C 93.601562 41.632812 93.667969 41.726562 93.734375 41.820312 C 93.804688 41.914062 93.871094 42.015625 93.929688 42.117188 C 94.289062 43.09375 93.332031 44.410156 92.449219 44.53125 C 92.089844 44.558594 91.769531 44.65625 91.476562 44.796875 C 91.375 44.84375 91.28125 44.894531 91.183594 44.945312 C 91.007812 45.046875 90.8125 45.085938 90.613281 45.085938 C 89.691406 45.128906 88.890625 45.128906 88.011719 45.167969 C 87.734375 45.167969 87.609375 44.449219 87.296875 44.09375 C 87.222656 44 87.148438 43.910156 87.066406 43.828125 C 86.824219 43.574219 86.527344 43.355469 86.171875 43.175781 C 85.890625 43.054688 85.730469 42.777344 85.667969 42.441406 C 85.667969 42.347656 85.691406 42.257812 85.730469 42.179688 C 85.882812 41.929688 86.015625 41.6875 86.128906 41.441406 C 86.183594 41.320312 86.230469 41.199219 86.273438 41.078125 C 86.691406 40.1875 85.96875 38.433594 87.464844 38.605469 C 87.566406 38.589844 87.671875 38.5625 87.769531 38.515625 C 88.53125 38.078125 88.929688 36.960938 89.90625 36.949219 C 90.050781 36.921875 90.210938 36.960938 90.332031 37.039062 C 91.007812 37.320312 91.128906 38.355469 91.972656 38.433594 C 92.402344 38.433594 92.976562 38.40625 93.347656 38.703125 C 93.421875 38.761719 93.488281 38.835938 93.539062 38.925781 C 93.691406 39.152344 93.769531 39.390625 93.730469 39.667969 C 93.652344 40.1875 93.289062 40.667969 93.40625 41.183594 C 93.429688 41.308594 93.476562 41.429688 93.542969 41.542969 " fill-opacity="1" fill-rule="nonzero"/><path fill="#d9bd90" d="M 88.273438 42.675781 C 88.273438 42.675781 89.730469 41.699219 91.191406 42.816406 C 91.191406 42.816406 91.25 41.957031 91.929688 41.800781 C 92.609375 41.640625 91.53125 41.957031 91.171875 41.152344 C 90.8125 40.347656 90.289062 39.769531 90.550781 39.609375 C 90.8125 39.449219 90.011719 39.527344 89.230469 39.988281 C 88.449219 40.445312 87.890625 40.386719 87.851562 39.949219 C 87.8125 39.507812 87.570312 41.285156 88.273438 41.175781 C 88.96875 41.0625 89.511719 41.242188 89.3125 41.539062 C 89.109375 41.839844 88.070312 42.257812 88.273438 42.675781 " fill-opacity="1" fill-rule="nonzero"/><g clip-path="url(#id5)"><path fill="#c32435" d="M 78.230469 92.433594 C 76.898438 92.433594 75.566406 92.433594 74.234375 92.433594 C 71.449219 76.042969 68.664062 59.652344 65.882812 43.261719 C 68.007812 43.261719 70.136719 43.261719 72.261719 43.261719 C 74.253906 59.652344 76.242188 76.042969 78.230469 92.433594 " fill-opacity="1" fill-rule="nonzero"/></g><path fill="#f4f4f4" d="M 82.226562 92.433594 C 80.894531 92.433594 79.5625 92.433594 78.230469 92.433594 C 76.242188 76.042969 74.253906 59.652344 72.261719 43.261719 C 74.390625 43.261719 76.519531 43.261719 78.648438 43.261719 C 79.839844 59.652344 81.035156 76.042969 82.226562 92.433594 " fill-opacity="1" fill-rule="nonzero"/><path fill="#c32435" d="M 86.226562 92.433594 C 84.894531 92.433594 83.5625 92.433594 82.226562 92.433594 C 81.035156 76.042969 79.839844 59.652344 78.648438 43.261719 C 80.773438 43.261719 82.902344 43.261719 85.03125 43.261719 C 85.429688 59.652344 85.828125 76.042969 86.226562 92.433594 " fill-opacity="1" fill-rule="nonzero"/><path fill="#f4f4f4" d="M 90.222656 92.433594 C 88.890625 92.433594 87.558594 92.433594 86.226562 92.433594 C 85.828125 76.042969 85.429688 59.652344 85.03125 43.261719 C 87.160156 43.261719 89.285156 43.261719 91.414062 43.261719 C 91.015625 59.652344 90.617188 76.042969 90.222656 92.433594 " fill-opacity="1" fill-rule="nonzero"/><path fill="#c32435" d="M 94.21875 92.433594 C 92.886719 92.433594 91.554688 92.433594 90.222656 92.433594 C 90.617188 76.042969 91.015625 59.652344 91.414062 43.261719 C 93.542969 43.261719 95.671875 43.261719 97.800781 43.261719 C 96.605469 59.652344 95.410156 76.042969 94.21875 92.433594 " fill-opacity="1" fill-rule="nonzero"/><path fill="#c32435" d="M 102.210938 92.433594 C 100.878906 92.433594 99.546875 92.433594 98.214844 92.433594 C 100.203125 76.042969 102.191406 59.652344 104.183594 43.261719 C 106.3125 43.261719 108.441406 43.261719 110.566406 43.261719 C 107.78125 59.652344 104.996094 76.042969 102.210938 92.433594 " fill-opacity="1" fill-rule="nonzero"/><path fill="#f4f4f4" d="M 98.214844 92.433594 C 96.882812 92.433594 95.550781 92.433594 94.21875 92.433594 C 95.410156 76.042969 96.605469 59.652344 97.800781 43.261719 C 99.925781 43.261719 102.054688 43.261719 104.183594 43.261719 C 102.191406 59.652344 100.203125 76.042969 98.214844 92.433594 " fill-opacity="1" fill-rule="nonzero"/><path fill="#fde5c0" d="M 74.625 38.101562 C 74.683594 38.1875 74.75 38.28125 74.820312 38.375 C 74.886719 38.46875 74.953125 38.570312 75.015625 38.671875 C 75.375 39.648438 74.414062 40.964844 73.535156 41.082031 C 73.171875 41.113281 72.851562 41.210938 72.554688 41.351562 C 72.457031 41.398438 72.363281 41.449219 72.265625 41.5 C 72.09375 41.601562 71.894531 41.640625 71.695312 41.640625 C 70.773438 41.679688 69.972656 41.679688 69.09375 41.722656 C 68.8125 41.722656 68.695312 41.003906 68.378906 40.644531 C 68.308594 40.554688 68.230469 40.464844 68.148438 40.382812 C 67.90625 40.128906 67.613281 39.910156 67.253906 39.730469 C 66.972656 39.609375 66.8125 39.332031 66.75 38.996094 C 66.753906 38.902344 66.773438 38.8125 66.8125 38.734375 C 66.964844 38.484375 67.097656 38.242188 67.210938 37.996094 C 67.265625 37.875 67.3125 37.753906 67.355469 37.632812 C 67.773438 36.742188 67.054688 34.988281 68.550781 35.160156 C 68.648438 35.144531 68.753906 35.117188 68.851562 35.066406 C 69.613281 34.628906 70.015625 33.515625 70.992188 33.503906 C 71.132812 33.476562 71.292969 33.515625 71.414062 33.59375 C 72.09375 33.871094 72.214844 34.910156 73.050781 34.988281 C 73.484375 34.988281 74.058594 34.960938 74.429688 35.257812 C 74.503906 35.320312 74.570312 35.390625 74.625 35.480469 C 74.773438 35.707031 74.851562 35.945312 74.8125 36.222656 C 74.734375 36.742188 74.375 37.21875 74.488281 37.738281 C 74.511719 37.863281 74.558594 37.980469 74.625 38.101562 " fill-opacity="1" fill-rule="nonzero"/><path fill="#d9bd90" d="M 69.355469 39.230469 C 69.355469 39.230469 70.8125 38.253906 72.273438 39.371094 C 72.273438 39.371094 72.335938 38.515625 73.015625 38.355469 C 73.695312 38.195312 72.613281 38.511719 72.253906 37.707031 C 71.894531 36.902344 71.375 36.324219 71.632812 36.164062 C 71.894531 36.003906 71.09375 36.085938 70.3125 36.542969 C 69.535156 37 68.972656 36.941406 68.933594 36.5 C 68.894531 36.0625 68.652344 37.839844 69.355469 37.730469 C 70.054688 37.617188 70.59375 37.796875 70.394531 38.09375 C 70.195312 38.394531 69.152344 38.8125 69.355469 39.230469 " fill-opacity="1" fill-rule="nonzero"/><path fill="#fde5c0" d="M 73.414062 42.5625 C 73.496094 42.632812 73.570312 42.710938 73.628906 42.792969 C 73.691406 42.875 73.742188 42.960938 73.777344 43.050781 C 73.855469 43.230469 73.875 43.421875 73.792969 43.601562 C 73.59375 44.039062 72.996094 43.996094 72.632812 44.273438 C 72.527344 44.328125 72.425781 44.394531 72.324219 44.460938 C 71.925781 44.734375 71.574219 45.09375 71.234375 45.511719 C 71.113281 45.632812 70.914062 45.710938 70.746094 45.785156 C 70.625 45.835938 70.503906 45.878906 70.375 45.914062 C 70.125 45.984375 69.859375 46.023438 69.574219 46.023438 C 69.453125 46.023438 69.332031 46.015625 69.214844 46.011719 C 68.363281 46.160156 68.195312 45.519531 67.839844 44.980469 C 67.765625 44.875 67.6875 44.769531 67.597656 44.671875 C 67.195312 44.316406 66.394531 44.15625 66.433594 43.71875 C 66.515625 43.082031 67.433594 42.722656 67.757812 42.027344 C 67.816406 41.910156 67.871094 41.792969 67.921875 41.671875 C 68.125 41.191406 68.273438 40.671875 68.472656 40.175781 C 68.636719 39.816406 68.914062 39.535156 69.289062 39.335938 C 69.382812 39.289062 69.480469 39.246094 69.582031 39.214844 C 70.914062 38.777344 71.835938 40.015625 72.148438 41.128906 C 72.203125 41.253906 72.257812 41.375 72.324219 41.488281 C 72.519531 41.835938 72.792969 42.136719 73.195312 42.363281 C 73.261719 42.429688 73.332031 42.496094 73.414062 42.5625 " fill-opacity="1" fill-rule="nonzero"/><path fill="#d9bd90" d="M 66.714844 44.035156 C 66.714844 44.035156 67.097656 44.65625 68.515625 44.035156 C 69.933594 43.417969 69.445312 44.113281 69.882812 44.175781 C 70.316406 44.238281 70.695312 43.757812 71.695312 43.578125 C 72.695312 43.398438 72.496094 43.816406 72.496094 43.816406 C 72.496094 43.816406 70.433594 43.890625 70.714844 44.3125 C 70.996094 44.734375 70.054688 44.675781 70.09375 44.773438 C 70.136719 44.875 69.351562 44.785156 69.242188 45.277344 C 69.136719 45.769531 68.496094 45.140625 68.496094 44.859375 C 68.496094 44.574219 69.277344 44.335938 68.914062 44.277344 C 68.554688 44.214844 67.273438 45.011719 66.714844 44.035156 " fill-opacity="1" fill-rule="nonzero"/><path fill="#f1dbb9" d="M 77.796875 41.5 C 77.90625 41.507812 78 41.535156 78.074219 41.570312 C 78.148438 41.609375 78.210938 41.65625 78.253906 41.714844 C 78.34375 41.832031 78.371094 41.988281 78.359375 42.152344 C 78.355469 42.238281 78.335938 42.324219 78.3125 42.410156 C 78.296875 43.832031 77.378906 45.1875 75.773438 44.792969 C 75.675781 44.769531 75.578125 44.746094 75.476562 44.71875 C 75.378906 44.691406 75.277344 44.660156 75.179688 44.628906 C 75.089844 44.589844 75.003906 44.582031 74.925781 44.597656 C 74.339844 44.867188 73.535156 45.304688 73.058594 44.628906 C 72.78125 44.230469 72.9375 43.75 72.78125 43.3125 C 72.738281 43.195312 72.660156 43.113281 72.578125 43.035156 C 72.472656 42.949219 72.378906 42.851562 72.300781 42.746094 C 71.914062 42.21875 71.890625 41.484375 72.253906 40.90625 C 72.320312 40.800781 72.398438 40.695312 72.484375 40.597656 C 72.570312 40.5 72.664062 40.414062 72.773438 40.335938 C 73.023438 40.238281 73.222656 40.097656 73.386719 39.925781 C 73.472656 39.839844 73.546875 39.75 73.617188 39.652344 C 74.097656 39.089844 74.21875 37.894531 74.980469 37.976562 C 75.457031 38.054688 75.898438 38.492188 76.339844 38.792969 C 76.433594 38.835938 76.53125 38.871094 76.625 38.898438 C 77.179688 39.171875 77.820312 38.652344 78.296875 39.011719 C 78.738281 39.289062 78.9375 39.96875 78.53125 40.425781 C 78.445312 40.535156 78.347656 40.640625 78.246094 40.738281 C 78.148438 40.832031 78.046875 40.914062 77.945312 40.984375 C 77.84375 41.058594 77.734375 41.128906 77.621094 41.203125 C 77.621094 41.242188 77.621094 41.320312 77.613281 41.34375 C 77.640625 41.394531 77.699219 41.445312 77.796875 41.5 " fill-opacity="1" fill-rule="nonzero"/><path fill="#d9bd90" d="M 73.613281 41.578125 C 73.460938 41.632812 74.441406 41.886719 74.359375 42.921875 C 74.359375 42.921875 74.867188 42.578125 75.425781 42.921875 C 75.425781 42.921875 75.992188 42.019531 76.65625 41.886719 C 77.320312 41.753906 77.160156 41.300781 77.160156 40.742188 C 77.160156 40.1875 77.027344 40.929688 76.332031 40.742188 C 75.640625 40.558594 75.394531 41.273438 75.394531 41.273438 C 75.394531 41.273438 74.253906 41.222656 74.734375 40.292969 C 75.210938 39.363281 73.875 40.503906 73.972656 40.929688 C 74.066406 41.355469 74.09375 41.402344 73.613281 41.578125 " fill-opacity="1" fill-rule="nonzero"/><path fill="#fde5c0" d="M 74.351562 37.386719 C 74.269531 37.324219 74.175781 37.261719 74.078125 37.191406 C 73.984375 37.125 73.886719 37.054688 73.796875 36.976562 C 73.128906 36.175781 73.59375 34.617188 74.382812 34.210938 C 74.714844 34.0625 74.980469 33.867188 75.214844 33.636719 C 75.292969 33.558594 75.363281 33.480469 75.4375 33.398438 C 75.566406 33.246094 75.742188 33.140625 75.929688 33.074219 C 76.785156 32.730469 77.539062 32.464844 78.355469 32.136719 C 78.621094 32.042969 78.972656 32.679688 79.390625 32.914062 C 79.488281 32.976562 79.589844 33.035156 79.695312 33.085938 C 80.007812 33.246094 80.355469 33.351562 80.757812 33.402344 C 81.0625 33.421875 81.304688 33.632812 81.476562 33.925781 C 81.503906 34.015625 81.519531 34.105469 81.503906 34.195312 C 81.449219 34.480469 81.402344 34.753906 81.378906 35.019531 C 81.367188 35.152344 81.363281 35.285156 81.363281 35.414062 C 81.269531 36.390625 82.535156 37.804688 81.066406 38.140625 C 80.976562 38.1875 80.890625 38.246094 80.8125 38.328125 C 80.242188 38.992188 80.238281 40.175781 79.320312 40.515625 C 79.195312 40.585938 79.03125 40.601562 78.890625 40.566406 C 78.15625 40.53125 77.695312 39.59375 76.878906 39.796875 C 76.46875 39.941406 75.9375 40.160156 75.488281 40 C 75.398438 39.96875 75.3125 39.921875 75.234375 39.855469 C 75.015625 39.695312 74.863281 39.496094 74.804688 39.21875 C 74.707031 38.703125 74.886719 38.132812 74.605469 37.683594 C 74.539062 37.574219 74.457031 37.476562 74.351562 37.386719 " fill-opacity="1" fill-rule="nonzero"/><path fill="#d9bd90" d="M 78.785156 34.796875 C 78.785156 34.796875 77.734375 36.199219 75.984375 35.632812 C 75.984375 35.632812 76.214844 36.460938 75.628906 36.835938 C 75.042969 37.214844 75.953125 36.554688 76.5625 37.195312 C 77.171875 37.835938 77.855469 38.207031 77.660156 38.445312 C 77.472656 38.679688 78.199219 38.339844 78.78125 37.648438 C 79.363281 36.957031 79.910156 36.828125 80.097656 37.226562 C 80.28125 37.628906 79.910156 35.871094 79.285156 36.210938 C 78.664062 36.546875 78.097656 36.558594 78.183594 36.210938 C 78.273438 35.863281 79.113281 35.121094 78.785156 34.796875 " fill-opacity="1" fill-rule="nonzero"/><path fill="#fde5c0" d="M 76.75 44.207031 C 76.652344 44.171875 76.554688 44.121094 76.472656 44.066406 C 76.386719 44.007812 76.308594 43.941406 76.246094 43.871094 C 76.113281 43.726562 76.03125 43.554688 76.046875 43.359375 C 76.085938 42.878906 76.664062 42.71875 76.914062 42.339844 C 76.996094 42.25 77.070312 42.15625 77.144531 42.058594 C 77.429688 41.664062 77.636719 41.210938 77.816406 40.707031 C 77.890625 40.550781 78.050781 40.410156 78.1875 40.28125 C 78.28125 40.199219 78.382812 40.117188 78.492188 40.042969 C 78.707031 39.890625 78.941406 39.765625 79.210938 39.671875 C 79.324219 39.632812 79.441406 39.597656 79.554688 39.5625 C 80.304688 39.140625 80.679688 39.6875 81.195312 40.078125 C 81.300781 40.15625 81.410156 40.226562 81.527344 40.285156 C 82.027344 40.488281 82.832031 40.371094 82.945312 40.800781 C 83.082031 41.425781 82.335938 42.070312 82.261719 42.835938 C 82.246094 42.964844 82.234375 43.09375 82.226562 43.222656 C 82.199219 43.746094 82.230469 44.285156 82.207031 44.820312 C 82.175781 45.210938 82.007812 45.566406 81.722656 45.878906 C 81.648438 45.957031 81.570312 46.027344 81.484375 46.09375 C 80.375 46.945312 79.09375 46.085938 78.425781 45.140625 C 78.332031 45.039062 78.238281 44.945312 78.140625 44.859375 C 77.835938 44.597656 77.480469 44.402344 77.023438 44.328125 C 76.941406 44.285156 76.847656 44.246094 76.75 44.207031 " fill-opacity="1" fill-rule="nonzero"/><path fill="#d9bd90" d="M 82.414062 40.816406 C 82.414062 40.816406 81.847656 40.363281 80.714844 41.417969 C 79.585938 42.46875 79.8125 41.65625 79.382812 41.742188 C 78.953125 41.828125 78.753906 42.402344 77.871094 42.90625 C 76.988281 43.40625 77.035156 42.945312 77.035156 42.945312 C 77.035156 42.945312 78.957031 42.195312 78.550781 41.890625 C 78.144531 41.585938 79.050781 41.328125 78.976562 41.246094 C 78.910156 41.167969 79.675781 40.992188 79.613281 40.492188 C 79.550781 39.988281 80.363281 40.371094 80.460938 40.636719 C 80.554688 40.902344 79.898438 41.386719 80.257812 41.324219 C 80.617188 41.261719 81.558594 40.085938 82.414062 40.816406 " fill-opacity="1" fill-rule="nonzero"/><path fill="#f1dbb9" d="M 101.136719 40.535156 C 101.195312 40.625 101.261719 40.71875 101.328125 40.8125 C 101.398438 40.90625 101.46875 41.007812 101.523438 41.109375 C 101.886719 42.085938 100.925781 43.402344 100.042969 43.519531 C 99.683594 43.550781 99.363281 43.648438 99.070312 43.789062 C 98.96875 43.835938 98.875 43.886719 98.777344 43.9375 C 98.605469 44.039062 98.40625 44.078125 98.207031 44.078125 C 97.285156 44.117188 96.484375 44.117188 95.605469 44.160156 C 95.324219 44.160156 95.203125 43.441406 94.886719 43.082031 C 94.816406 42.992188 94.742188 42.902344 94.660156 42.816406 C 94.417969 42.5625 94.125 42.347656 93.761719 42.167969 C 93.484375 42.046875 93.324219 41.769531 93.261719 41.433594 C 93.261719 41.339844 93.28125 41.25 93.324219 41.171875 C 93.472656 40.921875 93.609375 40.679688 93.722656 40.433594 C 93.777344 40.3125 93.824219 40.191406 93.867188 40.070312 C 94.285156 39.179688 93.566406 37.425781 95.0625 37.597656 C 95.160156 37.582031 95.265625 37.554688 95.363281 37.507812 C 96.125 37.066406 96.523438 35.953125 97.503906 35.9375 C 97.644531 35.914062 97.804688 35.953125 97.925781 36.03125 C 98.605469 36.308594 98.722656 37.347656 99.5625 37.425781 C 99.996094 37.425781 100.570312 37.398438 100.941406 37.695312 C 101.015625 37.753906 101.082031 37.828125 101.136719 37.917969 C 101.285156 38.144531 101.363281 38.382812 101.324219 38.660156 C 101.246094 39.179688 100.886719 39.65625 101 40.175781 C 101.023438 40.300781 101.070312 40.417969 101.136719 40.535156 " fill-opacity="1" fill-rule="nonzero"/><path fill="#d9bd90" d="M 95.863281 41.667969 C 95.863281 41.667969 97.324219 40.691406 98.785156 41.808594 C 98.785156 41.808594 98.84375 40.953125 99.523438 40.792969 C 100.207031 40.632812 99.125 40.949219 98.765625 40.144531 C 98.40625 39.335938 97.886719 38.761719 98.144531 38.601562 C 98.40625 38.441406 97.605469 38.519531 96.824219 38.980469 C 96.046875 39.4375 95.484375 39.378906 95.445312 38.9375 C 95.402344 38.5 95.167969 40.277344 95.863281 40.164062 C 96.566406 40.054688 97.105469 40.234375 96.90625 40.53125 C 96.707031 40.832031 95.664062 41.25 95.863281 41.667969 " fill-opacity="1" fill-rule="nonzero"/><g clip-path="url(#id6)"><path fill="#fde5c0" d="M 94.808594 32.945312 C 94.890625 33.015625 94.984375 33.082031 95.078125 33.152344 C 95.171875 33.21875 95.269531 33.292969 95.351562 33.375 C 95.996094 34.195312 95.484375 35.738281 94.683594 36.121094 C 94.351562 36.257812 94.074219 36.449219 93.835938 36.671875 C 93.757812 36.746094 93.679688 36.820312 93.605469 36.902344 C 93.46875 37.050781 93.292969 37.148438 93.101562 37.210938 C 92.238281 37.527344 91.476562 37.769531 90.648438 38.078125 C 90.382812 38.160156 90.050781 37.515625 89.640625 37.269531 C 89.542969 37.203125 89.445312 37.140625 89.339844 37.085938 C 89.03125 36.917969 88.683594 36.800781 88.289062 36.738281 C 87.984375 36.710938 87.746094 36.492188 87.585938 36.191406 C 87.558594 36.101562 87.550781 36.011719 87.5625 35.921875 C 87.628906 35.640625 87.683594 35.367188 87.71875 35.101562 C 87.734375 34.96875 87.742188 34.839844 87.746094 34.707031 C 87.867188 33.734375 86.644531 32.285156 88.125 31.992188 C 88.214844 31.949219 88.304688 31.890625 88.386719 31.8125 C 88.976562 31.164062 89.011719 29.980469 89.945312 29.671875 C 90.066406 29.601562 90.234375 29.59375 90.371094 29.632812 C 91.105469 29.691406 91.535156 30.640625 92.359375 30.460938 C 92.773438 30.332031 93.308594 30.128906 93.753906 30.300781 C 93.84375 30.335938 93.929688 30.382812 94.003906 30.453125 C 94.21875 30.621094 94.367188 30.824219 94.414062 31.105469 C 94.496094 31.621094 94.300781 32.183594 94.570312 32.644531 C 94.628906 32.753906 94.710938 32.855469 94.808594 32.945312 " fill-opacity="1" fill-rule="nonzero"/></g><path fill="#d9bd90" d="M 90.101562 35.597656 C 90.101562 35.597656 91.195312 34.226562 92.925781 34.84375 C 92.925781 34.84375 92.71875 34.011719 93.316406 33.652344 C 93.917969 33.296875 92.988281 33.925781 92.398438 33.265625 C 91.808594 32.609375 91.136719 32.214844 91.332031 31.984375 C 91.53125 31.753906 90.792969 32.074219 90.191406 32.746094 C 89.589844 33.421875 89.039062 33.53125 88.863281 33.128906 C 88.691406 32.722656 89.007812 34.488281 89.640625 34.167969 C 90.273438 33.851562 90.84375 33.859375 90.742188 34.203125 C 90.644531 34.546875 89.78125 35.261719 90.101562 35.597656 " fill-opacity="1" fill-rule="nonzero"/><path fill="#fde5c0" d="M 89.148438 39.957031 C 89.183594 40.015625 89.230469 40.074219 89.273438 40.140625 C 89.320312 40.203125 89.363281 40.265625 89.40625 40.335938 C 89.640625 40.984375 89.007812 41.855469 88.421875 41.933594 C 88.183594 41.953125 87.972656 42.015625 87.777344 42.109375 C 87.710938 42.140625 87.648438 42.171875 87.585938 42.210938 C 87.46875 42.277344 87.339844 42.300781 87.203125 42.300781 C 86.597656 42.328125 86.066406 42.328125 85.484375 42.355469 C 85.296875 42.355469 85.21875 41.878906 85.011719 41.644531 C 84.960938 41.582031 84.910156 41.523438 84.859375 41.464844 C 84.699219 41.300781 84.503906 41.152344 84.265625 41.035156 C 84.082031 40.957031 83.972656 40.773438 83.933594 40.550781 C 83.933594 40.488281 83.945312 40.429688 83.972656 40.375 C 84.074219 40.210938 84.164062 40.050781 84.238281 39.890625 C 84.273438 39.808594 84.304688 39.726562 84.335938 39.644531 C 84.609375 39.058594 84.132812 37.898438 85.125 38.011719 C 85.191406 38 85.257812 37.984375 85.324219 37.949219 C 85.828125 37.660156 86.09375 36.921875 86.738281 36.910156 C 86.832031 36.894531 86.941406 36.921875 87.019531 36.972656 C 87.46875 37.15625 87.546875 37.84375 88.105469 37.898438 C 88.390625 37.898438 88.769531 37.878906 89.015625 38.074219 C 89.066406 38.113281 89.109375 38.164062 89.144531 38.222656 C 89.246094 38.371094 89.296875 38.53125 89.273438 38.714844 C 89.21875 39.058594 88.980469 39.375 89.058594 39.71875 C 89.070312 39.800781 89.101562 39.878906 89.148438 39.957031 " fill-opacity="1" fill-rule="nonzero"/><path fill="#d9bd90" d="M 85.625 40.738281 C 85.625 40.738281 86.589844 40.09375 87.558594 40.832031 C 87.558594 40.832031 87.597656 40.265625 88.046875 40.160156 C 88.496094 40.054688 87.78125 40.261719 87.542969 39.730469 C 87.304688 39.195312 86.960938 38.8125 87.132812 38.707031 C 87.304688 38.601562 86.777344 38.65625 86.257812 38.957031 C 85.742188 39.261719 85.371094 39.222656 85.34375 38.933594 C 85.320312 38.640625 85.160156 39.820312 85.625 39.746094 C 86.085938 39.671875 86.445312 39.789062 86.308594 39.988281 C 86.179688 40.183594 85.488281 40.460938 85.625 40.738281 " fill-opacity="1" fill-rule="nonzero"/><path fill="#fde5c0" d="M 96.535156 44.382812 C 96.617188 44.453125 96.691406 44.53125 96.753906 44.613281 C 96.8125 44.695312 96.863281 44.78125 96.902344 44.871094 C 96.976562 45.050781 96.996094 45.238281 96.917969 45.417969 C 96.71875 45.855469 96.117188 45.816406 95.757812 46.09375 C 95.652344 46.148438 95.546875 46.210938 95.449219 46.28125 C 95.046875 46.554688 94.699219 46.914062 94.359375 47.332031 C 94.238281 47.453125 94.039062 47.53125 93.867188 47.605469 C 93.746094 47.65625 93.628906 47.699219 93.496094 47.734375 C 93.25 47.804688 92.980469 47.84375 92.699219 47.84375 C 92.578125 47.84375 92.460938 47.835938 92.335938 47.832031 C 91.488281 47.980469 91.316406 47.339844 90.960938 46.800781 C 90.890625 46.691406 90.8125 46.585938 90.71875 46.492188 C 90.316406 46.136719 89.519531 45.976562 89.558594 45.539062 C 89.636719 44.902344 90.558594 44.542969 90.882812 43.84375 C 90.941406 43.730469 90.996094 43.613281 91.042969 43.488281 C 91.246094 43.007812 91.394531 42.492188 91.597656 41.992188 C 91.757812 41.632812 92.039062 41.355469 92.410156 41.15625 C 92.507812 41.105469 92.605469 41.066406 92.703125 41.03125 C 94.039062 40.597656 94.957031 41.832031 95.273438 42.949219 C 95.324219 43.074219 95.378906 43.195312 95.445312 43.308594 C 95.644531 43.65625 95.914062 43.957031 96.320312 44.179688 C 96.382812 44.246094 96.457031 44.316406 96.535156 44.382812 " fill-opacity="1" fill-rule="nonzero"/><path fill="#d9bd90" d="M 89.839844 45.855469 C 89.839844 45.855469 90.21875 46.472656 91.636719 45.855469 C 93.058594 45.238281 92.570312 45.929688 93.003906 45.996094 C 93.4375 46.054688 93.816406 45.578125 94.816406 45.398438 C 95.820312 45.21875 95.617188 45.636719 95.617188 45.636719 C 95.617188 45.636719 93.558594 45.707031 93.839844 46.132812 C 94.117188 46.554688 93.179688 46.492188 93.21875 46.59375 C 93.257812 46.691406 92.472656 46.605469 92.367188 47.097656 C 92.257812 47.589844 91.621094 46.960938 91.621094 46.679688 C 91.621094 46.394531 92.398438 46.15625 92.039062 46.097656 C 91.679688 46.035156 90.398438 46.832031 89.839844 45.855469 " fill-opacity="1" fill-rule="nonzero"/><path fill="#f1dbb9" d="M 102.109375 44.582031 C 102.222656 44.589844 102.316406 44.617188 102.390625 44.652344 C 102.464844 44.691406 102.523438 44.738281 102.566406 44.796875 C 102.65625 44.914062 102.6875 45.066406 102.675781 45.234375 C 102.667969 45.320312 102.652344 45.40625 102.625 45.492188 C 102.613281 46.914062 101.691406 48.269531 100.089844 47.875 C 99.988281 47.851562 99.890625 47.828125 99.792969 47.800781 C 99.691406 47.773438 99.59375 47.742188 99.492188 47.710938 C 99.402344 47.671875 99.316406 47.664062 99.238281 47.675781 C 98.652344 47.949219 97.851562 48.386719 97.375 47.710938 C 97.09375 47.3125 97.25 46.832031 97.09375 46.394531 C 97.054688 46.277344 96.972656 46.195312 96.894531 46.117188 C 96.785156 46.03125 96.691406 45.933594 96.617188 45.828125 C 96.226562 45.300781 96.203125 44.566406 96.570312 43.988281 C 96.636719 43.882812 96.710938 43.777344 96.796875 43.679688 C 96.882812 43.585938 96.976562 43.496094 97.089844 43.417969 C 97.335938 43.320312 97.539062 43.179688 97.703125 43.007812 C 97.785156 42.921875 97.863281 42.832031 97.929688 42.734375 C 98.414062 42.171875 98.53125 40.976562 99.292969 41.058594 C 99.773438 41.136719 100.214844 41.574219 100.652344 41.875 C 100.746094 41.917969 100.84375 41.953125 100.941406 41.980469 C 101.492188 42.253906 102.132812 41.734375 102.613281 42.089844 C 103.054688 42.371094 103.253906 43.050781 102.847656 43.507812 C 102.757812 43.617188 102.660156 43.722656 102.5625 43.816406 C 102.460938 43.914062 102.359375 43.996094 102.261719 44.066406 C 102.15625 44.140625 102.046875 44.210938 101.933594 44.285156 C 101.933594 44.324219 101.933594 44.402344 101.925781 44.429688 C 101.953125 44.476562 102.011719 44.523438 102.109375 44.582031 " fill-opacity="1" fill-rule="nonzero"/><path fill="#d9bd90" d="M 97.925781 44.660156 C 97.773438 44.714844 98.753906 44.96875 98.671875 46.003906 C 98.671875 46.003906 99.179688 45.65625 99.738281 46.003906 C 99.738281 46.003906 100.308594 45.101562 100.96875 44.96875 C 101.632812 44.832031 101.472656 44.382812 101.472656 43.824219 C 101.472656 43.265625 101.339844 44.011719 100.648438 43.824219 C 99.953125 43.640625 99.707031 44.355469 99.707031 44.355469 C 99.707031 44.355469 98.566406 44.300781 99.046875 43.375 C 99.527344 42.441406 98.191406 43.585938 98.285156 44.011719 C 98.378906 44.4375 98.40625 44.488281 97.925781 44.660156 " fill-opacity="1" fill-rule="nonzero"/><path fill="#f1dbb9" d="M 100.765625 39.925781 C 100.679688 39.859375 100.589844 39.796875 100.492188 39.730469 C 100.394531 39.660156 100.296875 39.589844 100.210938 39.515625 C 99.542969 38.710938 100.003906 37.152344 100.796875 36.746094 C 101.125 36.601562 101.394531 36.402344 101.628906 36.171875 C 101.703125 36.09375 101.777344 36.015625 101.847656 35.933594 C 101.980469 35.78125 102.152344 35.675781 102.34375 35.609375 C 103.195312 35.265625 103.953125 35 104.769531 34.671875 C 105.027344 34.578125 105.386719 35.214844 105.800781 35.449219 C 105.898438 35.511719 106 35.570312 106.105469 35.621094 C 106.421875 35.78125 106.769531 35.886719 107.167969 35.9375 C 107.472656 35.957031 107.714844 36.167969 107.886719 36.464844 C 107.917969 36.550781 107.929688 36.640625 107.917969 36.730469 C 107.859375 37.015625 107.8125 37.289062 107.789062 37.554688 C 107.777344 37.6875 107.773438 37.820312 107.773438 37.949219 C 107.679688 38.925781 108.945312 40.339844 107.480469 40.675781 C 107.386719 40.722656 107.300781 40.78125 107.222656 40.863281 C 106.652344 41.527344 106.648438 42.714844 105.730469 43.050781 C 105.609375 43.125 105.445312 43.136719 105.304688 43.105469 C 104.570312 43.066406 104.109375 42.128906 103.289062 42.332031 C 102.882812 42.476562 102.351562 42.695312 101.902344 42.539062 C 101.8125 42.503906 101.726562 42.457031 101.644531 42.394531 C 101.429688 42.230469 101.273438 42.03125 101.21875 41.753906 C 101.121094 41.242188 101.296875 40.671875 101.015625 40.21875 C 100.953125 40.109375 100.867188 40.011719 100.765625 39.925781 " fill-opacity="1" fill-rule="nonzero"/><path fill="#d9bd90" d="M 105.296875 37.230469 C 105.296875 37.230469 104.246094 38.636719 102.496094 38.070312 C 102.496094 38.070312 102.726562 38.898438 102.140625 39.273438 C 101.550781 39.652344 102.464844 38.992188 103.074219 39.632812 C 103.679688 40.273438 104.367188 40.644531 104.171875 40.882812 C 103.980469 41.117188 104.710938 40.777344 105.292969 40.085938 C 105.875 39.394531 106.421875 39.265625 106.605469 39.664062 C 106.789062 40.066406 106.421875 38.308594 105.796875 38.648438 C 105.175781 38.984375 104.609375 38.996094 104.695312 38.648438 C 104.785156 38.300781 105.625 37.558594 105.296875 37.230469 " fill-opacity="1" fill-rule="nonzero"/><path fill="#fde5c0" d="M 100.316406 44.734375 C 100.214844 44.695312 100.121094 44.648438 100.039062 44.589844 C 99.953125 44.53125 99.875 44.46875 99.808594 44.398438 C 99.675781 44.253906 99.59375 44.082031 99.609375 43.886719 C 99.652344 43.40625 100.230469 43.242188 100.480469 42.867188 C 100.558594 42.777344 100.636719 42.683594 100.707031 42.585938 C 100.992188 42.195312 101.203125 41.738281 101.382812 41.230469 C 101.457031 41.078125 101.617188 40.9375 101.753906 40.808594 C 101.847656 40.722656 101.949219 40.644531 102.054688 40.566406 C 102.269531 40.417969 102.507812 40.292969 102.777344 40.199219 C 102.890625 40.160156 103.003906 40.125 103.121094 40.089844 C 103.871094 39.667969 104.246094 40.214844 104.761719 40.605469 C 104.867188 40.683594 104.976562 40.753906 105.09375 40.8125 C 105.59375 41.015625 106.398438 40.902344 106.507812 41.328125 C 106.644531 41.953125 105.898438 42.597656 105.828125 43.363281 C 105.8125 43.488281 105.800781 43.621094 105.792969 43.75 C 105.761719 44.273438 105.796875 44.8125 105.773438 45.347656 C 105.742188 45.738281 105.570312 46.09375 105.285156 46.40625 C 105.214844 46.484375 105.136719 46.554688 105.050781 46.621094 C 103.941406 47.472656 102.660156 46.613281 101.988281 45.667969 C 101.898438 45.566406 101.804688 45.472656 101.703125 45.386719 C 101.402344 45.125 101.046875 44.929688 100.589844 44.855469 C 100.503906 44.8125 100.414062 44.773438 100.316406 44.734375 " fill-opacity="1" fill-rule="nonzero"/><path fill="#d9bd90" d="M 105.976562 41.34375 C 105.976562 41.34375 105.414062 40.890625 104.28125 41.941406 C 103.152344 42.996094 103.378906 42.179688 102.949219 42.265625 C 102.519531 42.351562 102.320312 42.929688 101.4375 43.429688 C 100.554688 43.933594 100.601562 43.472656 100.601562 43.472656 C 100.601562 43.472656 102.519531 42.722656 102.113281 42.414062 C 101.707031 42.109375 102.613281 41.855469 102.546875 41.773438 C 102.472656 41.695312 103.242188 41.515625 103.179688 41.015625 C 103.117188 40.515625 103.929688 40.894531 104.023438 41.164062 C 104.117188 41.429688 103.464844 41.914062 103.824219 41.851562 C 104.183594 41.789062 105.125 40.613281 105.976562 41.34375 " fill-opacity="1" fill-rule="nonzero"/><path fill="#f1dbb9" d="M 80.925781 40.921875 C 80.828125 40.921875 80.730469 40.914062 80.636719 40.894531 C 80.542969 40.871094 80.453125 40.84375 80.371094 40.800781 C 80.207031 40.722656 80.078125 40.601562 80.027344 40.429688 C 79.898438 40 80.34375 39.664062 80.429688 39.253906 C 80.464844 39.148438 80.5 39.042969 80.527344 38.933594 C 80.640625 38.496094 80.667969 38.035156 80.652344 37.535156 C 80.660156 37.378906 80.753906 37.199219 80.824219 37.046875 C 80.878906 36.9375 80.9375 36.832031 81.007812 36.734375 C 81.140625 36.53125 81.296875 36.339844 81.5 36.167969 C 81.582031 36.097656 81.671875 36.027344 81.757812 35.957031 C 82.265625 35.339844 82.773438 35.683594 83.355469 35.847656 C 83.472656 35.878906 83.589844 35.902344 83.710938 35.914062 C 84.210938 35.921875 84.871094 35.546875 85.109375 35.878906 C 85.445312 36.375 85.019531 37.183594 85.21875 37.867188 C 85.25 37.984375 85.28125 38.101562 85.320312 38.214844 C 85.472656 38.675781 85.683594 39.128906 85.847656 39.601562 C 85.957031 39.949219 85.933594 40.316406 85.789062 40.679688 C 85.757812 40.773438 85.710938 40.859375 85.660156 40.945312 C 84.992188 42.058594 83.59375 41.75 82.691406 41.160156 C 82.578125 41.105469 82.464844 41.054688 82.347656 41.011719 C 81.996094 40.890625 81.625 40.84375 81.203125 40.933594 C 81.117188 40.925781 81.023438 40.921875 80.925781 40.921875 " fill-opacity="1" fill-rule="nonzero"/><path fill="#d9bd90" d="M 84.609375 36.054688 C 84.609375 36.054688 83.964844 35.851562 83.347656 37.148438 C 82.734375 38.441406 82.648438 37.660156 82.308594 37.878906 C 81.964844 38.097656 81.992188 38.664062 81.402344 39.398438 C 80.808594 40.128906 80.695312 39.714844 80.695312 39.714844 C 80.695312 39.714844 82.09375 38.414062 81.640625 38.289062 C 81.1875 38.164062 81.878906 37.632812 81.792969 37.589844 C 81.703125 37.542969 82.308594 37.128906 82.082031 36.71875 C 81.855469 36.308594 82.6875 36.359375 82.859375 36.558594 C 83.035156 36.757812 82.632812 37.398438 82.921875 37.222656 C 83.210938 37.046875 83.621094 35.710938 84.609375 36.054688 " fill-opacity="1" fill-rule="nonzero"/><path fill="#f1dbb9" d="M 90.589844 40.484375 C 90.480469 40.511719 90.386719 40.515625 90.300781 40.507812 C 90.21875 40.496094 90.144531 40.472656 90.085938 40.429688 C 89.960938 40.351562 89.882812 40.214844 89.839844 40.054688 C 89.8125 39.972656 89.800781 39.886719 89.796875 39.792969 C 89.332031 38.449219 89.746094 36.871094 91.394531 36.707031 C 91.492188 36.695312 91.59375 36.683594 91.695312 36.675781 C 91.800781 36.671875 91.902344 36.664062 92.007812 36.664062 C 92.105469 36.667969 92.1875 36.648438 92.257812 36.609375 C 92.71875 36.160156 93.328125 35.480469 94.003906 35.957031 C 94.402344 36.242188 94.414062 36.746094 94.710938 37.105469 C 94.789062 37.203125 94.890625 37.253906 94.992188 37.300781 C 95.121094 37.347656 95.242188 37.410156 95.351562 37.484375 C 95.894531 37.851562 96.160156 38.535156 96.007812 39.199219 C 95.984375 39.324219 95.949219 39.445312 95.902344 39.566406 C 95.851562 39.683594 95.789062 39.800781 95.714844 39.910156 C 95.511719 40.085938 95.371094 40.285156 95.269531 40.5 C 95.21875 40.609375 95.179688 40.722656 95.148438 40.835938 C 94.882812 41.523438 95.171875 42.691406 94.425781 42.867188 C 93.945312 42.953125 93.386719 42.6875 92.867188 42.546875 C 92.765625 42.539062 92.664062 42.539062 92.566406 42.546875 C 91.949219 42.472656 91.523438 43.175781 90.949219 42.996094 C 90.441406 42.878906 90.027344 42.308594 90.257812 41.738281 C 90.300781 41.605469 90.359375 41.472656 90.417969 41.351562 C 90.480469 41.230469 90.550781 41.117188 90.617188 41.019531 C 90.695312 40.914062 90.773438 40.8125 90.855469 40.703125 C 90.84375 40.667969 90.816406 40.589844 90.8125 40.566406 C 90.773438 40.53125 90.699219 40.503906 90.589844 40.484375 " fill-opacity="1" fill-rule="nonzero"/><path fill="#d9bd90" d="M 94.347656 39.242188 C 94.472656 39.140625 93.464844 39.226562 93.191406 38.226562 C 93.191406 38.226562 92.832031 38.71875 92.1875 38.578125 C 92.1875 38.578125 91.957031 39.621094 91.375 39.964844 C 90.792969 40.3125 91.097656 40.683594 91.28125 41.210938 C 91.472656 41.734375 91.347656 40.988281 92.0625 40.933594 C 92.777344 40.878906 92.769531 40.121094 92.769531 40.121094 C 92.769531 40.121094 93.863281 39.792969 93.722656 40.828125 C 93.582031 41.863281 94.460938 40.34375 94.226562 39.976562 C 93.996094 39.605469 93.953125 39.566406 94.347656 39.242188 " fill-opacity="1" fill-rule="nonzero"/><g clip-path="url(#id7)"><path fill="#f1dbb9" d="M 106.300781 38.679688 C 106.195312 38.707031 106.097656 38.714844 106.015625 38.707031 C 105.929688 38.695312 105.859375 38.667969 105.796875 38.628906 C 105.675781 38.546875 105.59375 38.414062 105.550781 38.25 C 105.527344 38.171875 105.515625 38.082031 105.511719 37.992188 C 105.046875 36.648438 105.460938 35.066406 107.105469 34.90625 C 107.203125 34.890625 107.304688 34.882812 107.410156 34.875 C 107.511719 34.867188 107.617188 34.863281 107.722656 34.859375 C 107.816406 34.867188 107.902344 34.84375 107.972656 34.808594 C 108.429688 34.355469 109.039062 33.675781 109.71875 34.15625 C 110.117188 34.4375 110.128906 34.941406 110.425781 35.300781 C 110.503906 35.402344 110.605469 35.449219 110.707031 35.5 C 110.835938 35.546875 110.957031 35.605469 111.0625 35.679688 C 111.605469 36.050781 111.871094 36.730469 111.722656 37.394531 C 111.699219 37.523438 111.660156 37.644531 111.613281 37.765625 C 111.5625 37.882812 111.503906 38 111.425781 38.109375 C 111.222656 38.28125 111.082031 38.484375 110.984375 38.699219 C 110.933594 38.808594 110.894531 38.917969 110.863281 39.035156 C 110.59375 39.722656 110.882812 40.890625 110.136719 41.066406 C 109.660156 41.152344 109.097656 40.882812 108.582031 40.746094 C 108.476562 40.738281 108.378906 40.738281 108.277344 40.742188 C 107.664062 40.671875 107.234375 41.371094 106.660156 41.195312 C 106.152344 41.078125 105.738281 40.503906 105.96875 39.9375 C 106.011719 39.804688 106.070312 39.671875 106.132812 39.550781 C 106.195312 39.429688 106.261719 39.316406 106.332031 39.21875 C 106.40625 39.113281 106.488281 39.007812 106.570312 38.902344 C 106.554688 38.863281 106.527344 38.789062 106.527344 38.765625 C 106.484375 38.726562 106.410156 38.703125 106.300781 38.679688 " fill-opacity="1" fill-rule="nonzero"/></g><path fill="#d9bd90" d="M 110.058594 37.441406 C 110.183594 37.335938 109.175781 37.425781 108.90625 36.421875 C 108.90625 36.421875 108.542969 36.917969 107.902344 36.777344 C 107.902344 36.777344 107.667969 37.820312 107.085938 38.164062 C 106.507812 38.507812 106.808594 38.878906 106.996094 39.40625 C 107.183594 39.933594 107.058594 39.1875 107.773438 39.132812 C 108.492188 39.078125 108.480469 38.320312 108.480469 38.320312 C 108.480469 38.320312 109.578125 37.992188 109.433594 39.027344 C 109.292969 40.0625 110.171875 38.539062 109.9375 38.171875 C 109.707031 37.804688 109.667969 37.765625 110.058594 37.441406 " fill-opacity="1" fill-rule="nonzero"/><g clip-path="url(#id8)"><path fill="#f1dbb9" d="M 78.660156 33.1875 C 78.742188 33.257812 78.816406 33.332031 78.875 33.414062 C 78.9375 33.5 78.988281 33.585938 79.027344 33.675781 C 79.101562 33.855469 79.121094 34.042969 79.042969 34.222656 C 78.84375 34.660156 78.242188 34.621094 77.882812 34.894531 C 77.773438 34.953125 77.671875 35.015625 77.570312 35.085938 C 77.171875 35.359375 76.824219 35.71875 76.480469 36.132812 C 76.363281 36.253906 76.164062 36.335938 75.992188 36.410156 C 75.871094 36.460938 75.75 36.5 75.625 36.535156 C 75.371094 36.605469 75.105469 36.648438 74.820312 36.644531 C 74.703125 36.644531 74.582031 36.640625 74.460938 36.636719 C 73.613281 36.78125 73.441406 36.144531 73.085938 35.605469 C 73.015625 35.496094 72.9375 35.390625 72.84375 35.296875 C 72.441406 34.941406 71.640625 34.78125 71.679688 34.34375 C 71.761719 33.703125 72.683594 33.347656 73.007812 32.648438 C 73.0625 32.535156 73.117188 32.414062 73.167969 32.292969 C 73.371094 31.8125 73.523438 31.296875 73.722656 30.796875 C 73.882812 30.4375 74.164062 30.160156 74.539062 29.960938 C 74.632812 29.910156 74.726562 29.871094 74.828125 29.835938 C 76.164062 29.402344 77.082031 30.636719 77.398438 31.753906 C 77.449219 31.875 77.503906 31.996094 77.570312 32.113281 C 77.769531 32.460938 78.039062 32.761719 78.445312 32.984375 C 78.507812 33.050781 78.582031 33.121094 78.660156 33.1875 " fill-opacity="1" fill-rule="nonzero"/></g><path fill="#d9bd90" d="M 71.960938 34.660156 C 71.960938 34.660156 72.34375 35.277344 73.761719 34.660156 C 75.183594 34.042969 74.691406 34.734375 75.128906 34.796875 C 75.5625 34.859375 75.941406 34.382812 76.941406 34.203125 C 77.941406 34.023438 77.742188 34.441406 77.742188 34.441406 C 77.742188 34.441406 75.683594 34.511719 75.964844 34.933594 C 76.242188 35.355469 75.300781 35.296875 75.34375 35.398438 C 75.382812 35.496094 74.597656 35.40625 74.492188 35.898438 C 74.382812 36.394531 73.742188 35.765625 73.742188 35.480469 C 73.742188 35.199219 74.523438 34.960938 74.164062 34.898438 C 73.804688 34.839844 72.523438 35.636719 71.960938 34.660156 " fill-opacity="1" fill-rule="nonzero"/><path fill="#fde5c0" d="M 85.304688 33.652344 C 85.414062 33.664062 85.503906 33.6875 85.582031 33.722656 C 85.65625 33.761719 85.714844 33.808594 85.761719 33.867188 C 85.847656 33.984375 85.878906 34.136719 85.867188 34.304688 C 85.859375 34.390625 85.84375 34.476562 85.816406 34.566406 C 85.804688 35.984375 84.886719 37.335938 83.28125 36.941406 C 83.179688 36.921875 83.082031 36.898438 82.984375 36.871094 C 82.882812 36.84375 82.785156 36.8125 82.683594 36.78125 C 82.59375 36.742188 82.507812 36.734375 82.429688 36.75 C 81.84375 37.019531 81.042969 37.457031 80.5625 36.78125 C 80.285156 36.382812 80.445312 35.902344 80.285156 35.464844 C 80.246094 35.347656 80.164062 35.265625 80.085938 35.1875 C 79.976562 35.101562 79.886719 35.003906 79.808594 34.898438 C 79.417969 34.371094 79.398438 33.636719 79.761719 33.0625 C 79.828125 32.949219 79.902344 32.847656 79.988281 32.75 C 80.074219 32.652344 80.171875 32.566406 80.28125 32.488281 C 80.527344 32.390625 80.726562 32.25 80.894531 32.078125 C 80.980469 31.992188 81.054688 31.902344 81.121094 31.804688 C 81.605469 31.242188 81.722656 30.046875 82.484375 30.128906 C 82.964844 30.207031 83.402344 30.644531 83.847656 30.945312 C 83.9375 30.988281 84.035156 31.023438 84.128906 31.050781 C 84.6875 31.324219 85.324219 30.804688 85.804688 31.164062 C 86.246094 31.441406 86.445312 32.121094 86.039062 32.578125 C 85.949219 32.6875 85.851562 32.792969 85.753906 32.886719 C 85.652344 32.980469 85.550781 33.066406 85.453125 33.136719 C 85.347656 33.210938 85.238281 33.28125 85.125 33.355469 C 85.125 33.394531 85.125 33.472656 85.121094 33.496094 C 85.144531 33.546875 85.207031 33.59375 85.304688 33.652344 " fill-opacity="1" fill-rule="nonzero"/><path fill="#d9bd90" d="M 81.117188 33.730469 C 80.96875 33.785156 81.945312 34.039062 81.863281 35.074219 C 81.863281 35.074219 82.371094 34.726562 82.933594 35.074219 C 82.933594 35.074219 83.5 34.167969 84.164062 34.039062 C 84.828125 33.902344 84.667969 33.453125 84.667969 32.894531 C 84.667969 32.335938 84.53125 33.082031 83.839844 32.894531 C 83.144531 32.710938 82.902344 33.425781 82.902344 33.425781 C 82.902344 33.425781 81.757812 33.375 82.238281 32.445312 C 82.71875 31.511719 81.382812 32.65625 81.476562 33.082031 C 81.570312 33.507812 81.597656 33.558594 81.117188 33.730469 " fill-opacity="1" fill-rule="nonzero"/><path fill="#f1dbb9" d="M 83.246094 47.71875 C 83.164062 47.65625 83.066406 47.589844 82.972656 47.527344 C 82.875 47.457031 82.777344 47.386719 82.6875 47.3125 C 82.023438 46.507812 82.484375 44.949219 83.277344 44.542969 C 83.605469 44.394531 83.875 44.199219 84.105469 43.96875 C 84.183594 43.890625 84.257812 43.8125 84.328125 43.730469 C 84.460938 43.578125 84.632812 43.472656 84.824219 43.40625 C 85.675781 43.0625 86.429688 42.796875 87.246094 42.46875 C 87.511719 42.375 87.863281 43.011719 88.28125 43.242188 C 88.378906 43.304688 88.480469 43.363281 88.585938 43.417969 C 88.898438 43.574219 89.25 43.683594 89.648438 43.734375 C 89.953125 43.753906 90.195312 43.960938 90.367188 44.257812 C 90.398438 44.347656 90.410156 44.4375 90.398438 44.527344 C 90.339844 44.8125 90.292969 45.085938 90.269531 45.351562 C 90.261719 45.484375 90.253906 45.617188 90.253906 45.746094 C 90.160156 46.722656 91.425781 48.136719 89.957031 48.472656 C 89.867188 48.519531 89.78125 48.578125 89.703125 48.660156 C 89.132812 49.324219 89.128906 50.507812 88.210938 50.847656 C 88.085938 50.917969 87.921875 50.933594 87.78125 50.898438 C 87.046875 50.863281 86.589844 49.925781 85.769531 50.128906 C 85.363281 50.273438 84.832031 50.488281 84.378906 50.332031 C 84.292969 50.300781 84.207031 50.253906 84.125 50.1875 C 83.910156 50.027344 83.75 49.828125 83.695312 49.550781 C 83.597656 49.035156 83.777344 48.464844 83.496094 48.015625 C 83.429688 47.90625 83.347656 47.808594 83.246094 47.71875 " fill-opacity="1" fill-rule="nonzero"/><path fill="#d9bd90" d="M 87.675781 45.128906 C 87.675781 45.128906 86.625 46.53125 84.878906 45.964844 C 84.878906 45.964844 85.109375 46.792969 84.519531 47.167969 C 83.933594 47.546875 84.84375 46.886719 85.453125 47.527344 C 86.0625 48.167969 86.746094 48.539062 86.554688 48.777344 C 86.363281 49.011719 87.089844 48.671875 87.671875 47.980469 C 88.253906 47.289062 88.800781 47.160156 88.988281 47.558594 C 89.171875 47.957031 88.800781 46.203125 88.179688 46.542969 C 87.558594 46.878906 86.988281 46.890625 87.074219 46.542969 C 87.164062 46.195312 88.003906 45.453125 87.675781 45.128906 " fill-opacity="1" fill-rule="nonzero"/><g clip-path="url(#id9)"><path fill="#fde5c0" d="M 106.039062 44.421875 C 105.9375 44.382812 105.84375 44.335938 105.761719 44.277344 C 105.675781 44.21875 105.597656 44.15625 105.535156 44.082031 C 105.402344 43.9375 105.320312 43.765625 105.332031 43.570312 C 105.375 43.089844 105.953125 42.929688 106.203125 42.550781 C 106.28125 42.460938 106.359375 42.367188 106.429688 42.269531 C 106.714844 41.878906 106.925781 41.425781 107.105469 40.917969 C 107.179688 40.765625 107.339844 40.625 107.476562 40.496094 C 107.574219 40.410156 107.671875 40.328125 107.78125 40.253906 C 107.992188 40.105469 108.230469 39.976562 108.5 39.886719 C 108.613281 39.84375 108.730469 39.808594 108.84375 39.773438 C 109.59375 39.351562 109.96875 39.898438 110.488281 40.289062 C 110.589844 40.367188 110.699219 40.441406 110.816406 40.5 C 111.316406 40.703125 112.121094 40.585938 112.230469 41.011719 C 112.371094 41.640625 111.625 42.285156 111.550781 43.050781 C 111.535156 43.175781 111.523438 43.304688 111.515625 43.4375 C 111.488281 43.960938 111.519531 44.496094 111.496094 45.03125 C 111.464844 45.425781 111.296875 45.78125 111.007812 46.09375 C 110.9375 46.167969 110.859375 46.242188 110.773438 46.308594 C 109.664062 47.15625 108.382812 46.300781 107.714844 45.351562 C 107.621094 45.253906 107.527344 45.160156 107.425781 45.070312 C 107.125 44.808594 106.769531 44.613281 106.3125 44.539062 C 106.230469 44.496094 106.136719 44.457031 106.039062 44.421875 " fill-opacity="1" fill-rule="nonzero"/></g><g clip-path="url(#id10)"><path fill="#d9bd90" d="M 111.800781 40.933594 C 111.800781 40.933594 111.234375 40.476562 110.105469 41.53125 C 108.972656 42.585938 109.199219 41.769531 108.769531 41.855469 C 108.339844 41.941406 108.140625 42.519531 107.257812 43.019531 C 106.375 43.519531 106.425781 43.058594 106.425781 43.058594 C 106.425781 43.058594 108.34375 42.308594 107.9375 42.003906 C 107.53125 41.695312 108.4375 41.441406 108.367188 41.359375 C 108.296875 41.28125 109.066406 41.105469 109.003906 40.601562 C 108.941406 40.101562 109.753906 40.484375 109.847656 40.75 C 109.941406 41.015625 109.289062 41.5 109.648438 41.4375 C 110.003906 41.375 110.945312 40.199219 111.800781 40.933594 " fill-opacity="1" fill-rule="nonzero"/></g><path fill="#fde5c0" d="M 82.535156 43.652344 C 82.425781 43.679688 82.332031 43.6875 82.25 43.675781 C 82.164062 43.664062 82.09375 43.640625 82.03125 43.601562 C 81.910156 43.519531 81.828125 43.382812 81.785156 43.222656 C 81.761719 43.140625 81.75 43.054688 81.746094 42.964844 C 81.28125 41.621094 81.695312 40.039062 83.339844 39.875 C 83.4375 39.863281 83.539062 39.855469 83.640625 39.847656 C 83.746094 39.839844 83.847656 39.835938 83.953125 39.832031 C 84.050781 39.839844 84.132812 39.816406 84.207031 39.777344 C 84.667969 39.328125 85.273438 38.648438 85.953125 39.128906 C 86.351562 39.410156 86.359375 39.914062 86.65625 40.273438 C 86.734375 40.371094 86.835938 40.421875 86.9375 40.46875 C 87.070312 40.515625 87.1875 40.578125 87.296875 40.652344 C 87.839844 41.019531 88.109375 41.703125 87.957031 42.367188 C 87.929688 42.492188 87.894531 42.617188 87.847656 42.734375 C 87.796875 42.855469 87.738281 42.96875 87.660156 43.078125 C 87.457031 43.253906 87.316406 43.453125 87.214844 43.671875 C 87.167969 43.777344 87.125 43.890625 87.09375 44.003906 C 86.828125 44.695312 87.113281 45.859375 86.371094 46.039062 C 85.890625 46.121094 85.332031 45.855469 84.816406 45.71875 C 84.714844 45.707031 84.609375 45.707031 84.511719 45.714844 C 83.898438 45.640625 83.46875 46.34375 82.894531 46.164062 C 82.386719 46.046875 81.972656 45.476562 82.203125 44.910156 C 82.246094 44.773438 82.304688 44.644531 82.367188 44.519531 C 82.425781 44.398438 82.496094 44.285156 82.5625 44.1875 C 82.640625 44.082031 82.71875 43.980469 82.800781 43.871094 C 82.789062 43.835938 82.761719 43.761719 82.761719 43.734375 C 82.71875 43.699219 82.644531 43.671875 82.535156 43.652344 " fill-opacity="1" fill-rule="nonzero"/><path fill="#d9bd90" d="M 86.292969 42.410156 C 86.417969 42.308594 85.410156 42.398438 85.140625 41.394531 C 85.140625 41.394531 84.777344 41.886719 84.132812 41.75 C 84.132812 41.75 83.902344 42.789062 83.320312 43.132812 C 82.742188 43.480469 83.042969 43.851562 83.230469 44.378906 C 83.417969 44.902344 83.292969 44.160156 84.007812 44.101562 C 84.722656 44.046875 84.714844 43.289062 84.714844 43.289062 C 84.714844 43.289062 85.808594 42.960938 85.667969 43.996094 C 85.527344 45.03125 86.40625 43.511719 86.171875 43.144531 C 85.941406 42.773438 85.898438 42.734375 86.292969 42.410156 " fill-opacity="1" fill-rule="nonzero"/><path fill="#fde5c0" d="M 96.613281 35.734375 C 96.507812 35.761719 96.410156 35.769531 96.328125 35.757812 C 96.246094 35.75 96.171875 35.722656 96.113281 35.683594 C 95.988281 35.601562 95.910156 35.46875 95.863281 35.304688 C 95.839844 35.226562 95.828125 35.136719 95.824219 35.046875 C 95.359375 33.703125 95.773438 32.121094 97.417969 31.960938 C 97.519531 31.949219 97.621094 31.9375 97.722656 31.929688 C 97.824219 31.921875 97.929688 31.917969 98.035156 31.914062 C 98.132812 31.921875 98.210938 31.902344 98.285156 31.863281 C 98.746094 31.410156 99.355469 30.730469 100.03125 31.210938 C 100.429688 31.492188 100.4375 31.996094 100.734375 32.355469 C 100.8125 32.457031 100.917969 32.503906 101.019531 32.554688 C 101.148438 32.597656 101.269531 32.660156 101.375 32.734375 C 101.917969 33.105469 102.1875 33.785156 102.035156 34.449219 C 102.011719 34.574219 101.972656 34.699219 101.925781 34.816406 C 101.878906 34.9375 101.816406 35.054688 101.738281 35.160156 C 101.539062 35.335938 101.398438 35.539062 101.296875 35.753906 C 101.246094 35.859375 101.207031 35.972656 101.171875 36.089844 C 100.90625 36.777344 101.195312 37.941406 100.449219 38.121094 C 99.972656 38.207031 99.410156 37.9375 98.894531 37.800781 C 98.792969 37.792969 98.691406 37.789062 98.589844 37.796875 C 97.976562 37.726562 97.546875 38.425781 96.976562 38.246094 C 96.464844 38.128906 96.050781 37.558594 96.28125 36.992188 C 96.324219 36.855469 96.382812 36.726562 96.445312 36.605469 C 96.507812 36.484375 96.574219 36.371094 96.644531 36.269531 C 96.71875 36.167969 96.800781 36.0625 96.882812 35.957031 C 96.867188 35.917969 96.839844 35.84375 96.839844 35.820312 C 96.796875 35.78125 96.722656 35.757812 96.613281 35.734375 " fill-opacity="1" fill-rule="nonzero"/><path fill="#d9bd90" d="M 100.375 34.496094 C 100.496094 34.394531 99.492188 34.480469 99.21875 33.476562 C 99.21875 33.476562 98.859375 33.972656 98.210938 33.832031 C 98.210938 33.832031 97.980469 34.871094 97.398438 35.21875 C 96.820312 35.5625 97.121094 35.9375 97.308594 36.460938 C 97.496094 36.988281 97.375 36.242188 98.089844 36.1875 C 98.804688 36.132812 98.792969 35.375 98.792969 35.375 C 98.792969 35.375 99.886719 35.042969 99.746094 36.078125 C 99.605469 37.117188 100.484375 35.59375 100.253906 35.226562 C 100.019531 34.855469 99.980469 34.820312 100.375 34.496094 " fill-opacity="1" fill-rule="nonzero"/><path fill="#f1dbb9" d="M 86.910156 39.007812 C 86.851562 39.039062 86.785156 39.078125 86.71875 39.117188 C 86.652344 39.152344 86.582031 39.191406 86.511719 39.222656 C 85.847656 39.394531 85.054688 38.6875 85.03125 38.105469 C 85.035156 37.871094 84.992188 37.65625 84.921875 37.457031 C 84.898438 37.390625 84.871094 37.324219 84.839844 37.257812 C 84.785156 37.140625 84.773438 37.007812 84.785156 36.878906 C 84.820312 36.28125 84.871094 35.761719 84.902344 35.1875 C 84.921875 35.007812 85.398438 34.972656 85.652344 34.792969 C 85.714844 34.753906 85.777344 34.710938 85.839844 34.664062 C 86.023438 34.519531 86.183594 34.34375 86.324219 34.125 C 86.421875 33.949219 86.613281 33.863281 86.835938 33.847656 C 86.894531 33.851562 86.953125 33.871094 87.003906 33.902344 C 87.15625 34.015625 87.308594 34.117188 87.460938 34.207031 C 87.535156 34.25 87.613281 34.292969 87.6875 34.328125 C 88.242188 34.65625 89.433594 34.300781 89.222656 35.257812 C 89.230469 35.328125 89.238281 35.394531 89.265625 35.460938 C 89.503906 35.984375 90.207031 36.316406 90.152344 36.949219 C 90.160156 37.042969 90.125 37.144531 90.0625 37.21875 C 89.839844 37.640625 89.152344 37.652344 89.046875 38.191406 C 89.019531 38.472656 89 38.84375 88.78125 39.066406 C 88.738281 39.109375 88.683594 39.148438 88.625 39.175781 C 88.464844 39.257812 88.304688 39.296875 88.125 39.25 C 87.792969 39.167969 87.503906 38.902344 87.15625 38.941406 C 87.074219 38.949219 86.992188 38.972656 86.910156 39.007812 " fill-opacity="1" fill-rule="nonzero"/><path fill="#d9bd90" d="M 86.472656 35.6875 C 86.472656 35.6875 87.015625 36.699219 86.191406 37.570312 C 86.191406 37.570312 86.75 37.664062 86.808594 38.117188 C 86.867188 38.566406 86.730469 37.847656 87.28125 37.667969 C 87.832031 37.484375 88.242188 37.183594 88.328125 37.363281 C 88.417969 37.542969 88.417969 37.019531 88.167969 36.484375 C 87.917969 35.949219 87.996094 35.589844 88.285156 35.59375 C 88.570312 35.59375 87.425781 35.324219 87.453125 35.785156 C 87.480469 36.246094 87.328125 36.585938 87.148438 36.433594 C 86.964844 36.285156 86.757812 35.585938 86.472656 35.6875 " fill-opacity="1" fill-rule="nonzero"/><path fill="#fde5c0" d="M 76.378906 92.164062 C 76.433594 92.246094 76.492188 92.328125 76.554688 92.414062 C 76.617188 92.503906 76.679688 92.59375 76.730469 92.683594 C 77.058594 93.578125 76.1875 94.773438 75.386719 94.878906 C 75.058594 94.90625 74.769531 94.996094 74.496094 95.121094 C 74.410156 95.164062 74.324219 95.210938 74.234375 95.261719 C 74.078125 95.351562 73.894531 95.386719 73.714844 95.386719 C 72.878906 95.421875 72.148438 95.421875 71.351562 95.460938 C 71.09375 95.460938 70.984375 94.808594 70.699219 94.480469 C 70.636719 94.398438 70.566406 94.316406 70.492188 94.238281 C 70.269531 94.011719 70.003906 93.8125 69.675781 93.648438 C 69.421875 93.539062 69.277344 93.285156 69.21875 92.980469 C 69.21875 92.898438 69.238281 92.816406 69.277344 92.742188 C 69.410156 92.515625 69.535156 92.292969 69.636719 92.074219 C 69.6875 91.960938 69.734375 91.851562 69.769531 91.742188 C 70.148438 90.929688 69.492188 89.335938 70.855469 89.496094 C 70.945312 89.480469 71.039062 89.457031 71.132812 89.410156 C 71.820312 89.011719 72.1875 87.996094 73.074219 87.984375 C 73.203125 87.960938 73.351562 87.996094 73.457031 88.070312 C 74.078125 88.324219 74.1875 89.265625 74.949219 89.335938 C 75.34375 89.335938 75.867188 89.3125 76.203125 89.582031 C 76.269531 89.636719 76.332031 89.703125 76.378906 89.785156 C 76.515625 89.988281 76.585938 90.207031 76.550781 90.460938 C 76.476562 90.929688 76.152344 91.367188 76.257812 91.835938 C 76.277344 91.949219 76.320312 92.058594 76.378906 92.164062 " fill-opacity="1" fill-rule="nonzero"/><path fill="#d9bd90" d="M 71.675781 93.105469 C 71.675781 93.105469 73.003906 92.21875 74.332031 93.230469 C 74.332031 93.230469 74.386719 92.453125 75.007812 92.308594 C 75.625 92.164062 74.640625 92.453125 74.3125 91.71875 C 73.988281 90.984375 73.511719 90.460938 73.75 90.316406 C 73.988281 90.171875 73.257812 90.242188 72.546875 90.660156 C 71.839844 91.078125 71.332031 91.023438 71.292969 90.625 C 71.257812 90.226562 71.039062 91.839844 71.675781 91.738281 C 72.3125 91.636719 72.804688 91.800781 72.625 92.074219 C 72.441406 92.34375 71.496094 92.726562 71.675781 93.105469 " fill-opacity="1" fill-rule="nonzero"/><path fill="#f1dbb9" d="M 95.265625 92.214844 C 95.1875 92.15625 95.101562 92.097656 95.015625 92.039062 C 94.929688 91.976562 94.839844 91.914062 94.757812 91.84375 C 94.152344 91.113281 94.574219 89.695312 95.292969 89.328125 C 95.589844 89.191406 95.835938 89.011719 96.046875 88.804688 C 96.117188 88.734375 96.183594 88.664062 96.25 88.589844 C 96.367188 88.449219 96.527344 88.351562 96.699219 88.292969 C 97.476562 87.980469 98.160156 87.738281 98.90625 87.441406 C 99.144531 87.355469 99.464844 87.933594 99.84375 88.144531 C 99.933594 88.203125 100.027344 88.257812 100.121094 88.304688 C 100.40625 88.449219 100.726562 88.546875 101.089844 88.589844 C 101.363281 88.609375 101.585938 88.800781 101.742188 89.070312 C 101.769531 89.148438 101.78125 89.230469 101.769531 89.308594 C 101.714844 89.570312 101.675781 89.820312 101.652344 90.0625 C 101.640625 90.183594 101.636719 90.304688 101.636719 90.421875 C 101.554688 91.308594 102.703125 92.59375 101.367188 92.898438 C 101.285156 92.941406 101.207031 92.996094 101.136719 93.070312 C 100.617188 93.675781 100.617188 94.753906 99.78125 95.058594 C 99.667969 95.125 99.519531 95.136719 99.390625 95.105469 C 98.722656 95.074219 98.304688 94.222656 97.558594 94.40625 C 97.1875 94.539062 96.707031 94.734375 96.296875 94.589844 C 96.214844 94.566406 96.136719 94.523438 96.066406 94.460938 C 95.867188 94.3125 95.726562 94.132812 95.675781 93.878906 C 95.585938 93.414062 95.75 92.894531 95.492188 92.484375 C 95.433594 92.386719 95.359375 92.296875 95.265625 92.214844 " fill-opacity="1" fill-rule="nonzero"/><path fill="#d9bd90" d="M 99.382812 89.769531 C 99.382812 89.769531 98.429688 91.046875 96.839844 90.53125 C 96.839844 90.53125 97.046875 91.28125 96.515625 91.625 C 95.980469 91.96875 96.808594 91.367188 97.363281 91.953125 C 97.917969 92.535156 98.539062 92.871094 98.363281 93.085938 C 98.191406 93.300781 98.851562 92.992188 99.378906 92.363281 C 99.910156 91.734375 100.40625 91.617188 100.574219 91.980469 C 100.742188 92.34375 100.40625 90.746094 99.839844 91.054688 C 99.277344 91.363281 98.757812 91.371094 98.839844 91.054688 C 98.917969 90.738281 99.683594 90.066406 99.382812 89.769531 " fill-opacity="1" fill-rule="nonzero"/><path fill="#f1dbb9" d="M 78.714844 91.988281 C 78.808594 91.960938 78.902344 91.945312 78.996094 91.941406 C 79.089844 91.941406 79.183594 91.945312 79.269531 91.964844 C 79.445312 92 79.597656 92.078125 79.691406 92.230469 C 79.921875 92.605469 79.585938 93.035156 79.605469 93.445312 C 79.597656 93.554688 79.589844 93.664062 79.589844 93.773438 C 79.59375 94.214844 79.683594 94.660156 79.828125 95.128906 C 79.855469 95.277344 79.8125 95.46875 79.785156 95.632812 C 79.761719 95.75 79.730469 95.863281 79.691406 95.972656 C 79.617188 96.199219 79.511719 96.417969 79.363281 96.632812 C 79.304688 96.722656 79.238281 96.808594 79.171875 96.894531 C 78.847656 97.609375 78.277344 97.40625 77.691406 97.398438 C 77.570312 97.398438 77.453125 97.402344 77.332031 97.421875 C 76.859375 97.542969 76.332031 98.058594 76.019531 97.804688 C 75.578125 97.417969 75.777344 96.546875 75.417969 95.949219 C 75.359375 95.84375 75.296875 95.742188 75.234375 95.644531 C 74.972656 95.246094 74.660156 94.871094 74.382812 94.464844 C 74.195312 94.164062 74.128906 93.808594 74.167969 93.425781 C 74.179688 93.332031 74.199219 93.238281 74.226562 93.144531 C 74.578125 91.925781 75.984375 91.867188 76.988281 92.203125 C 77.105469 92.226562 77.226562 92.246094 77.347656 92.253906 C 77.707031 92.285156 78.074219 92.238281 78.453125 92.046875 C 78.535156 92.035156 78.621094 92.011719 78.714844 91.988281 " fill-opacity="1" fill-rule="nonzero"/><path fill="#d9bd90" d="M 76.378906 97.632812 C 76.378906 97.632812 77.039062 97.664062 77.300781 96.285156 C 77.558594 94.90625 77.832031 95.625 78.101562 95.332031 C 78.367188 95.039062 78.203125 94.511719 78.578125 93.667969 C 78.957031 92.828125 79.171875 93.191406 79.171875 93.191406 C 79.171875 93.191406 78.167969 94.769531 78.632812 94.777344 C 79.09375 94.78125 78.566406 95.457031 78.664062 95.476562 C 78.757812 95.5 78.292969 96.039062 78.605469 96.375 C 78.925781 96.707031 78.121094 96.863281 77.90625 96.71875 C 77.695312 96.574219 77.914062 95.867188 77.683594 96.105469 C 77.457031 96.347656 77.402344 97.714844 76.378906 97.632812 " fill-opacity="1" fill-rule="nonzero"/><path fill="#fde5c0" d="M 105.175781 88.359375 C 105.269531 88.328125 105.367188 88.316406 105.457031 88.3125 C 105.550781 88.308594 105.644531 88.3125 105.730469 88.332031 C 105.90625 88.367188 106.058594 88.449219 106.15625 88.601562 C 106.382812 88.972656 106.042969 89.402344 106.066406 89.8125 C 106.058594 89.921875 106.050781 90.03125 106.050781 90.140625 C 106.054688 90.582031 106.144531 91.027344 106.289062 91.496094 C 106.316406 91.648438 106.277344 91.835938 106.246094 92.003906 C 106.222656 92.117188 106.191406 92.230469 106.152344 92.34375 C 106.078125 92.566406 105.972656 92.789062 105.824219 93 C 105.761719 93.089844 105.699219 93.175781 105.632812 93.261719 C 105.308594 93.976562 104.742188 93.777344 104.152344 93.765625 C 104.035156 93.765625 103.914062 93.769531 103.796875 93.792969 C 103.320312 93.910156 102.792969 94.429688 102.480469 94.175781 C 102.039062 93.789062 102.238281 92.914062 101.878906 92.316406 C 101.820312 92.214844 101.761719 92.113281 101.695312 92.011719 C 101.433594 91.617188 101.121094 91.238281 100.847656 90.832031 C 100.65625 90.53125 100.589844 90.179688 100.628906 89.796875 C 100.640625 89.699219 100.660156 89.605469 100.6875 89.511719 C 101.042969 88.292969 102.445312 88.234375 103.445312 88.570312 C 103.566406 88.59375 103.6875 88.613281 103.808594 88.625 C 104.171875 88.652344 104.535156 88.605469 104.910156 88.414062 C 104.996094 88.402344 105.085938 88.382812 105.175781 88.359375 " fill-opacity="1" fill-rule="nonzero"/><path fill="#d9bd90" d="M 102.839844 94 C 102.839844 94 103.5 94.03125 103.761719 92.652344 C 104.019531 91.273438 104.292969 91.996094 104.5625 91.703125 C 104.832031 91.40625 104.664062 90.878906 105.042969 90.039062 C 105.417969 89.195312 105.632812 89.5625 105.632812 89.5625 C 105.632812 89.5625 104.628906 91.140625 105.09375 91.144531 C 105.554688 91.152344 105.027344 91.824219 105.125 91.847656 C 105.21875 91.867188 104.753906 92.410156 105.066406 92.742188 C 105.386719 93.074219 104.585938 93.230469 104.371094 93.089844 C 104.15625 92.945312 104.375 92.238281 104.144531 92.472656 C 103.917969 92.714844 103.863281 94.082031 102.839844 94 " fill-opacity="1" fill-rule="nonzero"/><path fill="#fde5c0" d="M 94.574219 94.230469 C 94.675781 94.238281 94.757812 94.265625 94.828125 94.296875 C 94.898438 94.332031 94.949219 94.375 94.992188 94.429688 C 95.070312 94.535156 95.097656 94.675781 95.089844 94.828125 C 95.082031 94.902344 95.066406 94.980469 95.042969 95.0625 C 95.03125 96.351562 94.195312 97.585938 92.738281 97.226562 C 92.644531 97.207031 92.558594 97.183594 92.464844 97.160156 C 92.375 97.136719 92.285156 97.109375 92.191406 97.078125 C 92.113281 97.042969 92.035156 97.035156 91.964844 97.046875 C 91.429688 97.292969 90.703125 97.695312 90.265625 97.078125 C 90.011719 96.714844 90.15625 96.28125 90.011719 95.882812 C 89.976562 95.773438 89.902344 95.703125 89.828125 95.628906 C 89.734375 95.550781 89.648438 95.460938 89.578125 95.367188 C 89.222656 94.886719 89.203125 94.21875 89.535156 93.695312 C 89.597656 93.59375 89.664062 93.5 89.742188 93.414062 C 89.820312 93.324219 89.90625 93.246094 90.007812 93.175781 C 90.234375 93.085938 90.414062 92.957031 90.566406 92.800781 C 90.640625 92.722656 90.710938 92.640625 90.773438 92.550781 C 91.210938 92.042969 91.320312 90.957031 92.011719 91.027344 C 92.449219 91.101562 92.847656 91.5 93.25 91.773438 C 93.335938 91.808594 93.421875 91.84375 93.511719 91.867188 C 94.011719 92.113281 94.597656 91.644531 95.03125 91.96875 C 95.433594 92.222656 95.613281 92.839844 95.242188 93.253906 C 95.164062 93.355469 95.078125 93.453125 94.984375 93.539062 C 94.894531 93.625 94.800781 93.699219 94.710938 93.765625 C 94.617188 93.832031 94.515625 93.894531 94.414062 93.960938 C 94.414062 94 94.414062 94.070312 94.40625 94.089844 C 94.433594 94.136719 94.488281 94.179688 94.574219 94.230469 " fill-opacity="1" fill-rule="nonzero"/><path fill="#d9bd90" d="M 90.859375 94.214844 C 90.722656 94.265625 91.613281 94.492188 91.539062 95.4375 C 91.539062 95.4375 92 95.121094 92.507812 95.4375 C 92.507812 95.4375 93.027344 94.613281 93.628906 94.492188 C 94.230469 94.375 94.085938 93.960938 94.085938 93.453125 C 94.085938 92.949219 93.964844 93.621094 93.332031 93.453125 C 92.703125 93.285156 92.480469 93.9375 92.480469 93.9375 C 92.480469 93.9375 91.441406 93.890625 91.878906 93.046875 C 92.3125 92.199219 91.097656 93.238281 91.183594 93.621094 C 91.273438 94.011719 91.296875 94.054688 90.859375 94.214844 " fill-opacity="1" fill-rule="nonzero"/></svg>