<svg xmlns="http://www.w3.org/2000/svg" xmlns:xlink="http://www.w3.org/1999/xlink" width="150" zoomAndPan="magnify" viewBox="0 0 112.5 101.249998" height="135" preserveAspectRatio="xMidYMid meet" version="1.0"><defs><clipPath id="id1"><path d="M 0.164062 17 L 47 17 L 47 100.503906 L 0.164062 100.503906 Z M 0.164062 17 " clip-rule="nonzero"/></clipPath><clipPath id="id2"><path d="M 64 0 L 111.839844 0 L 111.839844 85 L 64 85 Z M 64 0 " clip-rule="nonzero"/></clipPath></defs><g clip-path="url(#id1)"><path fill="#cceccd" d="M 45.839844 21.507812 C 46.175781 22.605469 46.210938 24.425781 45.984375 26.988281 C 45.054688 36.703125 44.039062 45.113281 42.976562 52.1875 C 42.609375 55.832031 41.949219 61.292969 41.019531 68.542969 C 40.40625 72.457031 39.910156 77.035156 39.507812 82.253906 C 39.570312 83.027344 39.554688 84.238281 39.425781 85.832031 C 39.21875 87.167969 38.929688 90.921875 38.59375 97.0625 C 38.429688 99.976562 37.144531 101.800781 34.75 102.539062 C 33.191406 103.007812 32.242188 103.234375 31.90625 103.1875 C 29.15625 102.863281 27.4375 101.542969 26.730469 99.207031 C 26.699219 99.109375 26.648438 98.769531 26.585938 98.222656 C 26.523438 97.65625 26.457031 97.273438 26.378906 97.046875 C 25.71875 95.289062 26.105469 91.488281 27.550781 85.625 C 28.226562 82.933594 29.238281 78.628906 30.539062 72.699219 C 31.296875 67.800781 32.421875 60.761719 33.960938 51.625 C 34.703125 48.5625 35.683594 43.953125 36.902344 37.816406 C 37.355469 34.804688 37.289062 32.371094 36.710938 30.46875 C 36.230469 28.824219 35.214844 28.003906 33.722656 27.96875 C 33.015625 27.9375 31.695312 28.210938 29.785156 28.792969 C 28.015625 29.339844 26.523438 29.984375 25.300781 30.789062 C 22.875 32.320312 20.640625 33.644531 18.632812 34.707031 C 18.117188 34.980469 16.816406 35.816406 14.742188 37.253906 C 13.152344 38.332031 11.785156 39.054688 10.644531 39.394531 C 5.328125 41.019531 1.980469 39.539062 0.617188 34.996094 C 0.230469 33.738281 0.230469 32.449219 0.582031 31.109375 C 0.664062 30.804688 0.90625 30.453125 1.324219 30.050781 C 2.945312 28.421875 4.425781 27.277344 5.742188 26.601562 C 7.0625 25.925781 9.117188 25.167969 11.882812 24.3125 L 18.777344 22.539062 C 20.238281 22.167969 22.152344 21.542969 24.5625 20.671875 C 27.390625 19.671875 29.320312 19.027344 30.347656 18.722656 C 33.207031 17.835938 36.4375 17.367188 39.972656 17.304688 C 41.324219 17.285156 42.59375 17.738281 43.78125 18.671875 C 44.828125 19.496094 45.519531 20.445312 45.839844 21.507812 " fill-opacity="1" fill-rule="nonzero"/></g><g clip-path="url(#id2)"><path fill="#cceccd" d="M 111.503906 53.945312 C 112.210938 56.28125 112.339844 57.828125 111.90625 58.585938 C 111.632812 59.101562 109.976562 59.855469 106.941406 60.890625 C 106.3125 61.324219 106.457031 63.082031 107.390625 66.15625 L 111.261719 76.050781 C 111.601562 77.148438 111.761719 77.984375 111.777344 78.582031 C 111.777344 79.160156 111.375 79.902344 110.570312 80.820312 C 110.265625 81.191406 109.765625 81.722656 109.0625 82.433594 C 107.921875 83.269531 106.777344 83.867188 105.621094 84.207031 C 102.710938 85.089844 100.738281 83.753906 99.660156 80.191406 L 97.1875 68.574219 C 96.71875 67.042969 96.445312 66.222656 96.363281 66.09375 C 95.867188 65.09375 95.144531 64.738281 94.210938 65.015625 C 91.882812 65.722656 88.761719 66.785156 84.875 68.21875 C 80.101562 69.976562 77.015625 71.105469 75.632812 71.554688 C 76.019531 71.441406 74.8125 71.472656 72.035156 71.652344 C 68.417969 71.910156 66.105469 70.363281 65.089844 66.996094 C 64.5625 65.289062 64.625 62.855469 65.234375 59.699219 C 65.574219 58.730469 66.023438 57.230469 66.601562 55.199219 C 68.515625 47.582031 70.167969 41.78125 71.535156 37.800781 C 71.585938 37.332031 71.695312 36.625 71.90625 35.6875 C 73.238281 32.03125 74.734375 27.519531 76.40625 22.152344 C 77.511719 18.027344 79.539062 11.421875 82.445312 2.320312 C 82.609375 1.835938 83.460938 1.367188 84.988281 0.898438 C 87.140625 0.257812 88.683594 0.015625 89.648438 0.175781 C 90.980469 0.433594 91.898438 1.449219 92.441406 3.203125 C 92.476562 3.269531 92.539062 3.816406 92.667969 4.816406 C 92.796875 5.832031 92.925781 6.554688 93.070312 7.007812 C 93.761719 9.519531 94.277344 11.9375 94.628906 14.257812 C 95.207031 18.027344 95.640625 20.640625 95.898438 22.105469 C 97.84375 32.226562 99.371094 39.105469 100.480469 42.746094 C 101.058594 44.679688 101.878906 46.933594 102.9375 49.511719 C 103.019531 49.53125 103.113281 49.59375 103.226562 49.707031 C 103.355469 49.820312 103.453125 49.917969 103.5 49.964844 C 104.207031 49.789062 105.316406 49.546875 106.777344 49.238281 C 107.664062 49.078125 108.660156 49.625 109.75 50.914062 C 110.621094 51.945312 111.199219 52.960938 111.503906 53.945312 Z M 88.441406 32.03125 L 86.304688 24.957031 C 85.726562 24.894531 85.390625 24.875 85.292969 24.910156 C 84.296875 25.199219 82.847656 30.144531 80.96875 39.699219 C 80.648438 40.683594 80.246094 41.972656 79.78125 43.582031 C 79.167969 46.179688 78.574219 48.773438 77.949219 51.382812 C 76.953125 55.667969 76.519531 58.070312 76.679688 58.585938 C 77.066406 59.839844 77.949219 60.246094 79.363281 59.824219 L 86.964844 57.3125 C 88.234375 56.75 90.097656 55.894531 92.570312 54.703125 C 92.683594 54.636719 92.765625 54.039062 92.796875 52.914062 C 92.8125 51.785156 92.796875 51.109375 92.734375 50.882812 L 91.382812 46.46875 C 91.398438 46.484375 91.191406 45.195312 90.757812 42.585938 C 90.339844 39.972656 89.953125 38.023438 89.617188 36.769531 C 89.488281 36.414062 89.308594 35.625 89.035156 34.367188 C 88.8125 33.351562 88.605469 32.578125 88.441406 32.03125 " fill-opacity="1" fill-rule="nonzero"/></g><path fill="#ed1c24" d="M 34.910156 44.90625 C 34.910156 45.582031 34.800781 45.902344 34.558594 45.902344 C 34.558594 45.902344 34.460938 45.902344 34.285156 45.886719 C 34.105469 45.871094 34.011719 45.855469 33.996094 45.855469 C 33.804688 45.855469 33.335938 45.96875 32.578125 46.160156 C 32.277344 46.242188 32.019531 46.308594 31.792969 46.371094 C 31.777344 46.386719 31.664062 46.4375 31.457031 46.515625 C 31.3125 46.597656 31.183594 46.628906 31.101562 46.628906 C 30.972656 46.628906 30.878906 46.515625 30.796875 46.308594 C 30.734375 46.128906 30.699219 45.96875 30.699219 45.789062 C 30.699219 45.546875 30.75 45.390625 30.863281 45.308594 C 30.941406 45.242188 31.085938 45.148438 31.265625 45.035156 C 31.503906 44.9375 31.746094 44.792969 31.988281 44.597656 C 32.261719 44.375 32.40625 44.148438 32.4375 43.9375 C 32.4375 43.90625 32.46875 43.824219 32.5 43.679688 C 32.550781 43.535156 32.566406 43.453125 32.566406 43.421875 L 32.566406 42.683594 C 32.566406 42.683594 32.578125 42.648438 32.597656 42.585938 C 32.613281 42.535156 32.613281 42.503906 32.613281 42.488281 C 32.613281 42.007812 32.628906 41.296875 32.664062 40.34375 C 32.675781 39.410156 32.695312 38.699219 32.695312 38.234375 C 32.675781 38.203125 32.664062 38.171875 32.628906 38.136719 C 32.519531 38.285156 32.324219 38.425781 32.082031 38.589844 C 32.019531 38.605469 31.9375 38.621094 31.859375 38.621094 C 31.695312 38.621094 31.550781 38.523438 31.421875 38.363281 C 31.3125 38.203125 31.265625 38.058594 31.265625 37.929688 C 31.265625 37.78125 31.296875 37.636719 31.375 37.507812 C 31.582031 37.21875 31.875 36.785156 32.226562 36.203125 C 32.277344 36.074219 32.371094 35.882812 32.519531 35.609375 C 32.578125 35.429688 32.664062 35.238281 32.726562 35.058594 C 32.820312 34.867188 32.964844 34.769531 33.175781 34.769531 C 33.546875 34.769531 33.867188 34.960938 34.15625 35.351562 C 34.1875 35.382812 34.203125 35.480469 34.203125 35.640625 L 33.882812 38.234375 L 33.867188 39.167969 L 33.738281 43.4375 C 33.738281 43.535156 33.789062 43.664062 33.867188 43.808594 C 33.949219 43.972656 34.042969 44.066406 34.140625 44.117188 C 34.253906 44.132812 34.398438 44.164062 34.589844 44.210938 C 34.800781 44.292969 34.910156 44.535156 34.910156 44.90625 " fill-opacity="1" fill-rule="nonzero"/><path fill="#ed1c24" d="M 44.632812 40.570312 C 44.632812 40.941406 44.601562 41.246094 44.523438 41.488281 C 44.523438 41.554688 44.523438 41.667969 44.503906 41.828125 C 44.488281 41.988281 44.441406 42.246094 44.359375 42.601562 C 44.3125 42.699219 44.265625 42.828125 44.183594 43.003906 C 44.183594 43.085938 44.152344 43.230469 44.101562 43.40625 C 43.957031 43.710938 43.703125 44.179688 43.300781 44.808594 C 43.21875 44.921875 43.125 45.082031 42.960938 45.277344 C 42.578125 45.660156 42.160156 45.984375 41.691406 46.226562 C 41.515625 46.324219 41.242188 46.453125 40.859375 46.597656 C 40.648438 46.644531 40.328125 46.679688 39.925781 46.679688 C 39.796875 46.679688 39.476562 46.613281 38.976562 46.515625 C 38.671875 46.453125 38.367188 46.308594 38.027344 46.066406 C 37.675781 45.824219 37.417969 45.546875 37.273438 45.277344 C 37.144531 45.113281 36.984375 44.871094 36.792969 44.566406 C 36.628906 44.246094 36.5 43.90625 36.390625 43.535156 C 36.359375 43.359375 36.308594 43.097656 36.261719 42.761719 C 36.277344 42.632812 36.277344 42.472656 36.277344 42.230469 C 36.230469 41.941406 36.214844 41.78125 36.214844 41.746094 C 36.214844 41.523438 36.230469 41.246094 36.261719 40.957031 C 36.292969 40.859375 36.339844 40.730469 36.390625 40.539062 C 36.484375 40.136719 36.550781 39.894531 36.582031 39.796875 C 36.695312 39.441406 36.839844 39.105469 37.015625 38.832031 C 37.066406 38.699219 37.160156 38.523438 37.304688 38.285156 C 37.355469 38.234375 37.433594 38.15625 37.53125 38.058594 C 37.5625 37.976562 37.644531 37.847656 37.753906 37.703125 C 37.949219 37.507812 38.238281 37.21875 38.625 36.800781 C 38.640625 36.769531 38.65625 36.71875 38.6875 36.65625 C 38.863281 36.476562 39.023438 36.347656 39.1875 36.269531 C 39.265625 36.21875 39.554688 36.109375 40.085938 35.929688 C 40.34375 35.835938 40.648438 35.785156 40.988281 35.785156 C 41.003906 35.785156 41.050781 35.800781 41.132812 35.816406 C 41.210938 35.851562 41.273438 35.851562 41.304688 35.851562 C 41.339844 35.851562 41.644531 35.929688 42.222656 36.09375 C 42.386719 36.140625 42.546875 36.21875 42.703125 36.347656 C 42.832031 36.445312 42.945312 36.558594 43.074219 36.65625 C 43.605469 37.042969 43.972656 37.542969 44.214844 38.15625 C 44.410156 38.652344 44.523438 39.105469 44.585938 39.507812 C 44.617188 39.796875 44.632812 40.152344 44.632812 40.570312 Z M 42.976562 41.101562 C 42.976562 40.765625 42.929688 40.34375 42.816406 39.859375 C 42.703125 39.347656 42.578125 38.992188 42.433594 38.78125 C 42.351562 38.636719 42.238281 38.460938 42.078125 38.25 C 41.691406 37.765625 41.210938 37.523438 40.648438 37.523438 C 40.390625 37.523438 40.070312 37.574219 39.667969 37.671875 C 39.460938 37.71875 39.234375 37.78125 38.976562 37.878906 C 38.816406 38.023438 38.59375 38.441406 38.320312 39.136719 C 38.285156 39.21875 38.238281 39.296875 38.207031 39.410156 C 37.996094 40.378906 37.882812 41.085938 37.882812 41.554688 C 37.882812 41.84375 37.933594 42.277344 38.042969 42.859375 C 38.078125 43.070312 38.125 43.292969 38.207031 43.503906 C 38.367188 44.035156 38.65625 44.46875 39.039062 44.824219 C 39.441406 45.179688 39.84375 45.355469 40.261719 45.355469 C 40.9375 45.355469 41.613281 44.871094 42.289062 43.890625 C 42.386719 43.777344 42.480469 43.550781 42.609375 43.246094 C 42.722656 43.003906 42.785156 42.761719 42.816406 42.519531 C 42.929688 41.90625 42.976562 41.425781 42.976562 41.101562 " fill-opacity="1" fill-rule="nonzero"/><path fill="#f46f36" d="M 62.875 22.507812 C 63.132812 22.992188 63.339844 23.605469 63.484375 24.3125 C 63.613281 24.972656 63.679688 25.535156 63.644531 25.988281 C 63.566406 26.808594 63.40625 27.582031 63.132812 28.308594 C 62.839844 29.066406 62.457031 29.757812 61.941406 30.386719 C 61.441406 31.015625 60.738281 31.515625 59.820312 31.902344 C 59.789062 31.917969 59.644531 31.949219 59.386719 32 C 59.128906 32.0625 58.96875 32.113281 58.871094 32.144531 C 57.8125 32.578125 56.734375 32.578125 55.691406 32.128906 C 54.597656 31.660156 53.988281 30.886719 53.792969 29.824219 C 53.714844 29.371094 53.761719 28.9375 53.921875 28.519531 C 54.082031 28.097656 54.324219 27.839844 54.628906 27.710938 C 54.886719 27.617188 55.191406 27.679688 55.496094 27.9375 C 55.804688 28.195312 56.09375 28.484375 56.414062 28.761719 C 56.605469 28.9375 57.105469 29.03125 57.875 29.117188 C 58.003906 29.128906 58.214844 29.082031 58.503906 28.953125 C 58.601562 28.921875 58.921875 28.761719 59.417969 28.46875 C 59.484375 28.421875 59.5625 28.308594 59.707031 28.195312 C 60.542969 27.535156 60.867188 26.34375 60.640625 24.714844 C 60.574219 24.199219 60.464844 23.765625 60.285156 23.34375 C 59.933594 22.523438 59.453125 21.894531 58.871094 21.476562 C 58.214844 20.992188 57.570312 20.914062 56.894531 21.203125 C 56.878906 21.21875 56.832031 21.21875 56.78125 21.21875 C 56.71875 21.21875 56.6875 21.234375 56.671875 21.234375 C 56.621094 21.25 56.589844 21.285156 56.558594 21.332031 C 56.15625 21.527344 55.820312 21.878906 55.640625 22.445312 C 55.53125 22.816406 55.464844 23.21875 55.367188 23.621094 C 55.320312 23.796875 55.128906 23.925781 54.824219 24.054688 C 54.613281 24.117188 54.371094 24.117188 54.113281 24.039062 C 53.8125 23.957031 53.632812 23.796875 53.585938 23.539062 C 53.570312 23.523438 53.585938 23.394531 53.601562 23.167969 C 53.601562 22.929688 53.617188 22.75 53.601562 22.636719 C 53.570312 22.074219 53.457031 21.398438 53.28125 20.625 C 53.054688 19.640625 52.925781 19.078125 52.894531 18.898438 C 52.878906 18.835938 52.84375 18.769531 52.796875 18.65625 C 52.75 18.542969 52.734375 18.496094 52.734375 18.480469 C 52.652344 18.15625 52.621094 17.835938 52.636719 17.527344 C 52.652344 17.414062 52.734375 17.304688 52.878906 17.207031 C 52.910156 17.175781 52.941406 17.15625 53.023438 17.140625 C 53.570312 16.980469 54.113281 16.835938 54.664062 16.691406 C 54.679688 16.691406 54.855469 16.628906 55.175781 16.496094 C 55.496094 16.386719 55.660156 16.320312 55.675781 16.320312 C 55.867188 16.253906 56.140625 16.191406 56.492188 16.109375 C 56.832031 16.03125 57.105469 15.96875 57.296875 15.886719 C 57.347656 15.871094 57.394531 15.855469 57.441406 15.804688 C 57.488281 15.773438 57.523438 15.757812 57.539062 15.757812 C 58.132812 15.546875 58.472656 15.449219 58.628906 15.46875 C 59 15.515625 59.289062 15.710938 59.46875 16.046875 C 59.546875 16.191406 59.546875 16.367188 59.5 16.5625 C 59.433594 16.789062 59.289062 16.933594 59.097656 17 C 59.082031 17.015625 58.984375 17.03125 58.808594 17.0625 C 58.601562 17.09375 58.457031 17.128906 58.375 17.140625 C 57.25 17.414062 56.429688 17.609375 55.882812 17.722656 C 55.351562 17.851562 55.128906 17.898438 55.191406 17.882812 C 54.917969 17.980469 54.664062 18.09375 54.4375 18.222656 C 54.355469 18.320312 54.324219 18.429688 54.371094 18.558594 C 54.371094 18.574219 54.421875 18.6875 54.5 18.914062 C 54.582031 19.125 54.628906 19.253906 54.628906 19.269531 C 54.710938 19.574219 54.808594 19.898438 54.902344 20.238281 C 54.917969 20.300781 55.015625 20.316406 55.207031 20.300781 C 55.222656 20.300781 55.289062 20.238281 55.402344 20.15625 C 55.511719 20.027344 55.609375 19.960938 55.660156 19.929688 C 56.042969 19.640625 56.398438 19.445312 56.703125 19.335938 C 56.863281 19.285156 57.25 19.222656 57.84375 19.171875 C 58.808594 19.078125 59.773438 19.398438 60.800781 20.140625 C 61.683594 20.800781 62.394531 21.574219 62.875 22.507812 " fill-opacity="1" fill-rule="nonzero"/><path fill="#66ccce" d="M 63.820312 90.246094 C 64.03125 91.890625 63.691406 92.761719 62.824219 92.890625 C 62.777344 92.890625 62.488281 92.855469 61.957031 92.792969 C 61.425781 92.730469 61.15625 92.695312 61.089844 92.695312 L 58.746094 93 C 58.679688 93.019531 58.601562 93.019531 58.503906 92.984375 C 58.40625 92.96875 58.359375 92.96875 58.328125 92.96875 C 56.847656 92.96875 55.449219 93.066406 54.164062 93.226562 L 47.878906 94.324219 C 47.125 94.421875 46.578125 94.386719 46.257812 94.210938 C 45.871094 93.96875 45.4375 93.390625 44.972656 92.453125 C 44.761719 92.050781 44.648438 91.761719 44.632812 91.617188 C 44.570312 91.164062 44.632812 90.8125 44.84375 90.535156 C 45.519531 89.601562 46.289062 88.667969 47.140625 87.71875 C 47.992188 86.785156 48.621094 86.042969 48.988281 85.527344 C 50.726562 83.175781 51.609375 81.964844 51.640625 81.917969 C 52.75 80.386719 53.601562 79.046875 54.226562 77.9375 C 54.613281 77.261719 55.046875 76.210938 55.496094 74.828125 C 56.027344 73.28125 56.207031 71.894531 56.042969 70.683594 C 55.882812 69.445312 55.449219 68.445312 54.726562 67.671875 C 53.9375 66.800781 52.957031 66.449219 51.816406 66.59375 C 50.578125 66.753906 49.566406 67.59375 48.765625 69.074219 C 48.203125 70.460938 47.636719 71.828125 47.078125 73.214844 C 46.820312 73.859375 46.195312 74.261719 45.195312 74.390625 C 44.84375 74.441406 44.539062 74.425781 44.296875 74.375 C 44.054688 74.3125 43.765625 74.101562 43.429688 73.714844 C 43.089844 73.34375 42.914062 73.054688 42.882812 72.828125 C 42.800781 72.152344 42.898438 71.507812 43.171875 70.878906 C 43.636719 69.832031 44.039062 69.074219 44.375 68.574219 C 44.875 67.867188 45.613281 67.027344 46.625 66.027344 C 47.703125 64.964844 48.570312 64.242188 49.246094 63.871094 C 50.371094 63.222656 51.542969 62.839844 52.78125 62.679688 C 52.992188 62.644531 53.632812 62.660156 54.726562 62.726562 C 56.589844 62.824219 58.003906 63.484375 58.921875 64.691406 C 59.195312 65.015625 59.5625 65.578125 60.0625 66.382812 C 60.398438 67.074219 60.59375 67.671875 60.65625 68.171875 C 60.800781 69.285156 60.753906 70.554688 60.511719 71.976562 C 60.414062 72.652344 60.207031 73.617188 59.886719 74.859375 C 59.144531 76.839844 57.777344 79.257812 55.722656 82.144531 C 52.269531 86.960938 50.484375 89.472656 50.371094 89.652344 C 50.304688 89.746094 50.113281 90.054688 49.792969 90.585938 C 50.902344 90.472656 52.605469 90.199219 54.917969 89.730469 L 60.429688 88.601562 C 60.480469 88.601562 60.671875 88.554688 61.027344 88.492188 C 61.363281 88.425781 61.554688 88.394531 61.621094 88.378906 C 62.890625 88.214844 63.628906 88.84375 63.820312 90.246094 " fill-opacity="1" fill-rule="nonzero"/><path fill="#66ccce" d="M 84.023438 76.855469 C 84.023438 76.808594 84.085938 77.4375 84.214844 78.726562 C 84.246094 79.160156 84.246094 79.691406 84.183594 80.289062 C 84.039062 81.804688 83.636719 83.15625 82.996094 84.382812 C 82.847656 84.769531 82.625 85.285156 82.320312 85.929688 C 82.175781 86.152344 81.742188 86.6875 81.003906 87.507812 C 80.472656 88.136719 79.699219 88.765625 78.6875 89.410156 C 77.625 90.070312 76.757812 90.457031 76.085938 90.535156 C 76.035156 90.550781 75.925781 90.550781 75.761719 90.535156 C 75.585938 90.535156 75.472656 90.535156 75.410156 90.535156 C 73.867188 90.792969 72.421875 90.570312 71.054688 89.894531 C 70.636719 89.667969 69.738281 89.085938 68.355469 88.136719 C 67.855469 87.765625 67.292969 86.878906 66.699219 85.460938 C 66.136719 84.140625 65.832031 83.109375 65.765625 82.382812 C 65.734375 81.933594 65.703125 81.207031 65.671875 80.222656 C 65.636719 79.289062 65.621094 78.824219 65.621094 78.804688 C 65.605469 78.726562 65.460938 78.519531 65.171875 78.179688 C 64.898438 77.839844 64.738281 77.550781 64.707031 77.359375 C 64.660156 76.9375 64.722656 76.535156 64.898438 76.148438 C 65.316406 75.585938 65.847656 74.746094 66.488281 73.652344 C 66.652344 73.296875 66.925781 72.28125 67.292969 70.605469 C 67.421875 70.027344 67.726562 69.027344 68.210938 67.59375 C 68.355469 67.316406 68.5625 66.945312 68.820312 66.464844 C 69.382812 65.238281 69.945312 64.03125 70.492188 62.808594 C 71.730469 60.535156 72.804688 59.328125 73.753906 59.199219 C 74.300781 59.132812 74.832031 59.230469 75.359375 59.519531 C 75.925781 59.824219 76.242188 60.246094 76.308594 60.773438 C 76.355469 61.050781 76.308594 61.277344 76.179688 61.484375 C 75.746094 61.96875 75.152344 62.726562 74.363281 63.757812 C 73.769531 64.609375 73.160156 65.640625 72.53125 66.882812 C 71.921875 68.089844 71.632812 68.882812 71.679688 69.234375 C 71.730469 69.574219 71.890625 69.71875 72.164062 69.6875 C 72.210938 69.6875 72.292969 69.636719 72.386719 69.574219 C 72.484375 69.507812 72.578125 69.476562 72.628906 69.445312 C 73.625 69.125 74.445312 68.914062 75.101562 68.832031 C 74.894531 68.867188 75.359375 68.882812 76.484375 68.898438 C 77.609375 68.929688 78.605469 69.203125 79.476562 69.734375 C 81.820312 71.167969 83.21875 73.152344 83.703125 75.664062 C 83.71875 75.777344 83.78125 76.003906 83.878906 76.324219 C 83.972656 76.632812 84.023438 76.808594 84.023438 76.855469 Z M 79.570312 77.726562 C 79.460938 76.792969 79.265625 76.050781 78.992188 75.535156 C 77.804688 73.152344 76.210938 72.085938 74.234375 72.347656 C 73.929688 72.378906 73.722656 72.425781 73.625 72.457031 C 72.902344 72.761719 72.53125 72.910156 72.515625 72.925781 C 72.003906 73.152344 71.617188 73.425781 71.359375 73.714844 C 71.152344 73.859375 70.925781 74.085938 70.667969 74.40625 C 70.441406 75.050781 70.296875 76.164062 70.21875 77.757812 C 70.140625 79.613281 70.089844 80.660156 70.121094 80.898438 C 70.3125 82.335938 70.78125 83.609375 71.535156 84.703125 C 72.5625 86.203125 73.832031 86.847656 75.375 86.636719 C 76.535156 86.492188 77.257812 86.203125 77.609375 85.75 C 79.089844 83.800781 79.765625 81.496094 79.605469 78.855469 C 79.605469 78.726562 79.605469 78.5 79.589844 78.195312 C 79.589844 77.921875 79.589844 77.773438 79.570312 77.726562 " fill-opacity="1" fill-rule="nonzero"/><path fill="#6e87cd" d="M 83.667969 31.917969 C 83.542969 32.289062 83.332031 32.675781 83.027344 33.078125 C 82.769531 33.449219 82.527344 33.707031 82.289062 33.882812 C 81.46875 34.511719 80.566406 34.867188 79.605469 34.929688 C 79.152344 34.980469 78.640625 34.898438 78.0625 34.707031 C 78.042969 34.691406 77.964844 34.65625 77.835938 34.578125 C 77.691406 34.511719 77.59375 34.464844 77.53125 34.449219 C 76.886719 34.207031 76.355469 33.820312 75.957031 33.253906 C 75.539062 32.675781 75.410156 32.09375 75.601562 31.53125 C 75.683594 31.289062 75.84375 31.097656 76.054688 30.96875 C 76.277344 30.824219 76.484375 30.789062 76.695312 30.871094 C 76.871094 30.917969 77.015625 31.097656 77.113281 31.351562 C 77.195312 31.613281 77.257812 31.871094 77.339844 32.128906 C 77.386719 32.273438 77.609375 32.53125 77.996094 32.867188 C 78.0625 32.933594 78.191406 32.996094 78.382812 33.0625 C 78.445312 33.09375 78.671875 33.144531 79.039062 33.222656 C 79.089844 33.222656 79.167969 33.222656 79.28125 33.222656 C 79.992188 33.289062 80.648438 32.882812 81.257812 32.015625 C 81.46875 31.722656 81.613281 31.433594 81.726562 31.144531 C 81.933594 30.5 81.980469 29.886719 81.855469 29.324219 C 81.707031 28.664062 81.339844 28.246094 80.746094 28.082031 C 80.730469 28.082031 80.695312 28.066406 80.664062 28.035156 C 80.632812 28.003906 80.601562 27.984375 80.585938 27.984375 C 80.535156 27.96875 80.503906 27.96875 80.472656 27.984375 C 80.101562 27.90625 79.71875 28.003906 79.347656 28.261719 C 79.121094 28.46875 78.878906 28.679688 78.640625 28.886719 C 78.542969 28.96875 78.382812 28.96875 78.140625 28.886719 C 77.980469 28.839844 77.835938 28.710938 77.691406 28.535156 C 77.546875 28.324219 77.5 28.132812 77.5625 27.9375 C 77.5625 27.921875 77.625 27.839844 77.722656 27.679688 C 77.835938 27.535156 77.898438 27.40625 77.949219 27.328125 C 78.171875 26.890625 78.398438 26.328125 78.625 25.617188 C 78.945312 24.632812 79.136719 24.054688 79.21875 23.863281 C 79.234375 23.796875 79.25 23.714844 79.28125 23.570312 C 79.296875 23.441406 79.3125 23.363281 79.3125 23.363281 C 79.441406 22.992188 79.589844 22.652344 79.78125 22.347656 C 79.863281 22.21875 79.972656 22.167969 80.148438 22.152344 C 80.179688 22.152344 80.230469 22.167969 80.292969 22.183594 L 81.835938 22.863281 C 81.855469 22.863281 82.03125 22.929688 82.351562 23.023438 C 82.671875 23.136719 82.847656 23.183594 82.867188 23.183594 C 83.058594 23.25 83.300781 23.363281 83.621094 23.523438 C 83.941406 23.683594 84.199219 23.796875 84.394531 23.878906 C 84.441406 23.894531 84.503906 23.894531 84.570312 23.894531 C 84.632812 23.894531 84.667969 23.894531 84.683594 23.894531 C 85.277344 24.105469 85.628906 24.261719 85.726562 24.375 C 85.96875 24.683594 86.015625 25.054688 85.855469 25.503906 C 85.792969 25.683594 85.664062 25.84375 85.46875 25.972656 C 85.242188 26.132812 85.050781 26.183594 84.859375 26.117188 C 84.84375 26.117188 84.761719 26.070312 84.617188 25.972656 C 84.441406 25.875 84.3125 25.8125 84.246094 25.777344 C 82.273438 24.8125 81.339844 24.34375 81.46875 24.394531 C 81.210938 24.296875 80.953125 24.246094 80.710938 24.234375 C 80.601562 24.261719 80.519531 24.359375 80.472656 24.488281 C 80.457031 24.503906 80.421875 24.632812 80.359375 24.875 C 80.292969 25.136719 80.261719 25.265625 80.261719 25.28125 L 79.925781 26.246094 C 79.910156 26.3125 79.957031 26.375 80.101562 26.472656 C 80.117188 26.472656 80.179688 26.472656 80.308594 26.457031 C 80.457031 26.441406 80.550781 26.441406 80.601562 26.441406 C 81.019531 26.441406 81.371094 26.488281 81.644531 26.582031 C 81.789062 26.632812 82.078125 26.808594 82.511719 27.132812 C 83.21875 27.617188 83.652344 28.40625 83.828125 29.46875 C 83.972656 30.355469 83.925781 31.175781 83.667969 31.917969 " fill-opacity="1" fill-rule="nonzero"/><path fill="#6e87cd" d="M 91.464844 35.480469 C 91.335938 35.851562 91.222656 36.058594 91.09375 36.109375 C 91.011719 36.15625 90.726562 36.09375 90.257812 35.945312 C 90.128906 35.945312 89.984375 36.1875 89.824219 36.65625 L 89.421875 38.265625 C 89.359375 38.441406 89.308594 38.554688 89.246094 38.636719 C 89.199219 38.71875 89.085938 38.78125 88.890625 38.8125 C 88.828125 38.832031 88.699219 38.863281 88.554688 38.878906 C 88.332031 38.878906 88.136719 38.863281 87.960938 38.796875 C 87.507812 38.636719 87.363281 38.285156 87.558594 37.734375 L 88.3125 36.027344 C 88.394531 35.800781 88.425781 35.671875 88.425781 35.640625 C 88.460938 35.464844 88.394531 35.367188 88.25 35.300781 C 87.894531 35.1875 87.398438 35.042969 86.769531 34.867188 C 86.015625 34.640625 85.519531 34.511719 85.292969 34.433594 C 85.355469 34.449219 85.195312 34.351562 84.84375 34.125 C 84.34375 33.820312 84.199219 33.417969 84.375 32.882812 C 84.457031 32.625 84.699219 32.320312 85.050781 31.984375 C 85.195312 31.886719 85.390625 31.742188 85.644531 31.53125 C 86.578125 30.742188 87.316406 30.144531 87.863281 29.777344 C 87.910156 29.710938 87.976562 29.628906 88.089844 29.535156 C 88.605469 29.195312 89.199219 28.761719 89.90625 28.226562 C 90.417969 27.808594 91.269531 27.148438 92.476562 26.261719 C 92.539062 26.214844 92.683594 26.230469 92.925781 26.3125 C 93.265625 26.425781 93.488281 26.539062 93.585938 26.648438 C 93.730469 26.808594 93.761719 27.019531 93.667969 27.292969 C 93.667969 27.292969 93.632812 27.375 93.554688 27.519531 C 93.472656 27.648438 93.425781 27.761719 93.410156 27.828125 C 93.265625 28.210938 93.101562 28.566406 92.941406 28.886719 C 92.667969 29.421875 92.476562 29.808594 92.378906 30 C 91.703125 31.464844 91.269531 32.480469 91.078125 33.046875 C 90.980469 33.351562 90.886719 33.707031 90.773438 34.140625 C 90.789062 34.140625 90.789062 34.15625 90.804688 34.191406 C 90.804688 34.222656 90.804688 34.238281 90.804688 34.253906 C 90.917969 34.285156 91.078125 34.351562 91.285156 34.449219 C 91.414062 34.511719 91.496094 34.675781 91.511719 34.929688 C 91.527344 35.140625 91.511719 35.332031 91.464844 35.480469 Z M 90.53125 30.582031 L 90.902344 29.484375 C 90.835938 29.4375 90.789062 29.402344 90.773438 29.386719 C 90.628906 29.339844 90 29.839844 88.875 30.871094 C 88.746094 30.96875 88.585938 31.097656 88.378906 31.257812 C 88.058594 31.53125 87.75 31.804688 87.429688 32.078125 C 86.914062 32.53125 86.640625 32.804688 86.609375 32.882812 C 86.546875 33.078125 86.625 33.207031 86.835938 33.289062 L 88.039062 33.660156 C 88.25 33.707031 88.570312 33.769531 88.988281 33.851562 C 89.003906 33.851562 89.070312 33.785156 89.179688 33.644531 C 89.277344 33.496094 89.34375 33.417969 89.359375 33.367188 L 89.585938 32.691406 C 89.585938 32.691406 89.679688 32.515625 89.855469 32.144531 C 90.046875 31.773438 90.175781 31.480469 90.242188 31.289062 C 90.273438 31.242188 90.324219 31.128906 90.386719 30.9375 C 90.453125 30.789062 90.5 30.675781 90.53125 30.582031 " fill-opacity="1" fill-rule="nonzero"/><path fill="#fff200" d="M 23.050781 32.820312 C 22.695312 34.253906 22.023438 35.542969 21.027344 36.6875 C 20.03125 37.832031 18.953125 38.570312 17.8125 38.910156 C 16.398438 39.332031 15.386719 39.523438 14.792969 39.523438 C 14.082031 39.507812 13.570312 39.476562 13.246094 39.394531 C 13.054688 39.347656 12.75 39.28125 12.347656 39.203125 C 11.960938 39.121094 11.65625 39.054688 11.449219 38.992188 C 10.484375 38.75 9.519531 38.265625 8.539062 37.523438 C 8.296875 37.378906 7.945312 37.125 7.464844 36.800781 C 6.882812 36.316406 6.273438 35.609375 5.628906 34.707031 C 4.941406 33.722656 4.570312 32.773438 4.539062 31.855469 C 4.539062 31.691406 4.585938 31.402344 4.683594 30.984375 C 4.84375 30.371094 5.179688 29.90625 5.695312 29.597656 C 6.195312 29.308594 6.707031 29.242188 7.285156 29.371094 C 7.78125 29.5 8.136719 29.921875 8.332031 30.628906 C 8.476562 31.226562 8.621094 31.804688 8.78125 32.398438 C 9.019531 32.949219 9.359375 33.609375 9.808594 34.382812 C 9.890625 34.464844 10.273438 34.722656 10.933594 35.171875 C 11.722656 35.671875 12.269531 35.964844 12.605469 36.042969 C 14.132812 36.429688 15.480469 36.269531 16.636719 35.609375 C 17.78125 34.929688 18.550781 33.851562 18.921875 32.355469 C 18.902344 32.398438 18.9375 32.03125 19 31.289062 C 19.097656 30.160156 19.019531 29.355469 18.746094 28.824219 C 18.535156 28.46875 18.375 28.179688 18.214844 27.96875 C 17.941406 27.566406 17.667969 27.292969 17.394531 27.132812 C 16.976562 26.90625 16.542969 26.746094 16.09375 26.632812 C 16.0625 26.617188 15.660156 26.566406 14.902344 26.488281 C 14.148438 26.390625 13.746094 26.34375 13.699219 26.34375 C 12.703125 26.085938 12.363281 25.34375 12.671875 24.117188 C 12.894531 23.152344 13.152344 22.558594 13.425781 22.332031 C 13.828125 22.347656 14.226562 22.378906 14.613281 22.425781 C 15.351562 22.523438 15.996094 22.476562 16.542969 22.28125 C 17.332031 21.992188 18.214844 21.429688 19.144531 20.589844 C 20.144531 19.703125 20.703125 18.914062 20.882812 18.238281 C 21.332031 16.433594 20.671875 15.304688 18.902344 14.871094 C 18.101562 14.679688 17.203125 14.773438 16.15625 15.175781 C 15.128906 15.578125 14.226562 16.191406 13.472656 17 C 13.28125 17.320312 12.972656 17.753906 12.574219 18.285156 C 12.332031 18.558594 11.960938 18.898438 11.511719 19.269531 C 11.449219 19.320312 11.257812 19.367188 10.933594 19.398438 C 10.613281 19.429688 10.402344 19.445312 10.339844 19.429688 C 9.824219 19.300781 9.4375 19.011719 9.164062 18.574219 C 8.878906 18.125 8.796875 17.65625 8.925781 17.15625 C 9.179688 16.125 10.324219 15 12.347656 13.757812 C 13.152344 13.277344 14.226562 12.886719 15.5625 12.597656 C 15.851562 12.515625 16.253906 12.40625 16.78125 12.277344 C 18.054688 12.101562 19.5625 12.210938 21.332031 12.664062 C 21.667969 12.742188 22.167969 12.984375 22.824219 13.40625 C 23.4375 13.789062 23.855469 14.113281 24.09375 14.386719 C 24.820312 15.191406 25.171875 16.109375 25.191406 17.175781 C 25.203125 17.59375 25.125 18.0625 24.996094 18.609375 C 24.964844 18.785156 24.738281 19.222656 24.320312 19.914062 C 23.628906 21.089844 22.136719 22.21875 19.855469 23.265625 C 19.578125 23.378906 19.304688 23.476562 19.03125 23.585938 C 18.839844 23.683594 18.730469 23.828125 18.679688 24.023438 C 18.617188 24.234375 18.664062 24.375 18.792969 24.457031 C 19.324219 24.714844 20.078125 25.152344 21.058594 25.761719 C 22.121094 26.648438 22.808594 27.808594 23.113281 29.226562 C 23.371094 30.417969 23.339844 31.613281 23.050781 32.820312 " fill-opacity="1" fill-rule="nonzero"/><path fill="#cce86e" d="M 35.972656 62.902344 C 35.90625 63.175781 35.683594 63.578125 35.296875 64.097656 C 33.835938 66.0625 32.535156 67.722656 31.375 69.105469 C 30.828125 69.832031 29.976562 70.910156 28.835938 72.347656 C 28.210938 73.101562 27.503906 74.019531 26.730469 75.082031 C 26.648438 75.261719 26.488281 75.519531 26.25 75.84375 C 26.023438 76.101562 25.476562 76.875 24.609375 78.144531 C 24.207031 78.742188 23.695312 78.953125 23.082031 78.804688 C 22.683594 78.710938 22.457031 78.628906 22.394531 78.582031 C 21.84375 78.144531 21.652344 77.644531 21.796875 77.050781 C 21.8125 77.019531 21.84375 76.953125 21.894531 76.824219 C 21.957031 76.695312 21.992188 76.597656 22.007812 76.550781 C 22.085938 76.085938 22.664062 75.308594 23.742188 74.246094 C 24.222656 73.761719 25.011719 72.972656 26.058594 71.878906 C 26.859375 70.910156 28.015625 69.558594 29.527344 67.800781 C 30.074219 67.253906 30.894531 66.382812 31.953125 65.238281 C 32.4375 64.644531 32.742188 64.113281 32.871094 63.644531 C 32.964844 63.222656 32.871094 62.917969 32.550781 62.710938 C 32.390625 62.613281 32.082031 62.5 31.582031 62.371094 C 31.152344 62.257812 30.75 62.210938 30.378906 62.210938 C 29.65625 62.226562 29.011719 62.210938 28.433594 62.175781 C 28.289062 62.175781 27.902344 62.195312 27.277344 62.226562 C 26.796875 62.242188 26.410156 62.226562 26.121094 62.144531 C 24.769531 61.792969 24.257812 61.050781 24.546875 59.890625 C 24.625 59.585938 24.789062 59.292969 25.042969 59.050781 C 25.105469 59.003906 25.203125 58.957031 25.332031 58.921875 C 25.894531 58.792969 26.359375 58.746094 26.730469 58.761719 C 27.101562 58.792969 27.632812 58.890625 28.339844 59.085938 L 30.042969 59.601562 C 30.410156 59.710938 30.910156 59.824219 31.535156 59.953125 C 32.261719 60.117188 32.757812 60.210938 33.015625 60.292969 C 33.753906 60.46875 34.492188 60.792969 35.265625 61.242188 C 35.554688 61.421875 35.777344 61.679688 35.90625 62.035156 C 36.019531 62.339844 36.054688 62.644531 35.972656 62.902344 " fill-opacity="1" fill-rule="nonzero"/><path fill="#f799d1" d="M 94.132812 60.164062 C 94.132812 61.210938 93.953125 61.726562 93.585938 61.726562 C 93.554688 61.726562 93.410156 61.726562 93.136719 61.695312 C 92.863281 61.679688 92.699219 61.664062 92.683594 61.664062 C 92.378906 61.664062 91.640625 61.824219 90.453125 62.128906 C 89.96875 62.257812 89.550781 62.371094 89.214844 62.46875 C 89.164062 62.484375 88.988281 62.566406 88.683594 62.710938 C 88.441406 62.824219 88.25 62.871094 88.105469 62.871094 C 87.910156 62.871094 87.75 62.710938 87.621094 62.355469 C 87.527344 62.097656 87.480469 61.824219 87.480469 61.550781 C 87.480469 61.164062 87.558594 60.921875 87.71875 60.792969 C 87.863281 60.679688 88.074219 60.535156 88.363281 60.359375 C 88.746094 60.210938 89.132812 59.988281 89.503906 59.679688 C 89.9375 59.308594 90.175781 58.957031 90.210938 58.617188 C 90.226562 58.566406 90.257812 58.421875 90.324219 58.214844 C 90.386719 57.988281 90.433594 57.84375 90.433594 57.8125 L 90.433594 56.652344 C 90.433594 56.617188 90.433594 56.570312 90.46875 56.488281 C 90.5 56.410156 90.5 56.359375 90.5 56.328125 C 90.5 55.554688 90.53125 54.429688 90.5625 52.945312 C 90.613281 51.460938 90.628906 50.351562 90.628906 49.59375 C 90.613281 49.5625 90.5625 49.511719 90.53125 49.464844 C 90.339844 49.675781 90.046875 49.902344 89.664062 50.171875 C 89.550781 50.207031 89.421875 50.222656 89.292969 50.222656 C 89.054688 50.222656 88.828125 50.078125 88.621094 49.804688 C 88.441406 49.5625 88.363281 49.335938 88.363281 49.125 C 88.363281 48.886719 88.425781 48.675781 88.554688 48.449219 C 88.875 48 89.328125 47.320312 89.890625 46.402344 C 89.96875 46.210938 90.128906 45.886719 90.355469 45.453125 C 90.453125 45.164062 90.5625 44.871094 90.675781 44.582031 C 90.835938 44.277344 91.0625 44.117188 91.382812 44.117188 C 91.960938 44.117188 92.492188 44.421875 92.941406 45.035156 C 92.972656 45.097656 93.007812 45.242188 93.007812 45.5 L 92.507812 49.59375 L 92.476562 51.078125 L 92.28125 57.828125 C 92.28125 57.988281 92.347656 58.183594 92.476562 58.421875 C 92.605469 58.679688 92.75 58.828125 92.910156 58.890625 C 93.085938 58.921875 93.328125 58.972656 93.632812 59.050781 C 93.96875 59.179688 94.132812 59.550781 94.132812 60.164062 " fill-opacity="1" fill-rule="nonzero"/><path fill="#f799d1" d="M 108.59375 57.101562 C 108.59375 58.988281 107.855469 60.488281 106.394531 61.613281 C 105.058594 62.644531 103.421875 63.160156 101.492188 63.160156 C 100.0625 63.160156 98.855469 62.757812 97.875 61.96875 C 96.816406 61.097656 96.285156 59.96875 96.285156 58.566406 C 96.285156 58.3125 96.300781 57.957031 96.363281 57.519531 C 96.414062 56.941406 96.492188 56.652344 96.574219 56.636719 C 96.734375 55.8125 97.410156 54.847656 98.585938 53.734375 L 98.585938 53.605469 L 98.484375 53.332031 C 98.019531 53.074219 97.652344 52.589844 97.394531 51.898438 C 97.152344 51.304688 97.039062 50.691406 97.039062 50.078125 C 97.039062 48.644531 97.667969 47.484375 98.9375 46.550781 C 100.078125 45.726562 101.378906 45.308594 102.859375 45.308594 C 104.046875 45.308594 105.074219 45.679688 105.929688 46.402344 C 106.828125 47.175781 107.277344 48.160156 107.277344 49.320312 C 107.277344 49.949219 107.132812 50.542969 106.84375 51.109375 C 106.652344 51.460938 106.375 51.847656 106.007812 52.253906 C 105.71875 52.609375 105.574219 52.800781 105.574219 52.863281 C 105.574219 52.960938 105.71875 53.074219 105.992188 53.21875 C 106.167969 53.300781 106.359375 53.382812 106.554688 53.476562 C 107.070312 53.78125 107.46875 54.121094 107.792969 54.523438 C 108.324219 55.199219 108.59375 56.070312 108.59375 57.101562 Z M 104.675781 49.578125 C 104.675781 48.964844 104.496094 48.433594 104.144531 47.949219 C 103.773438 47.417969 103.308594 47.160156 102.710938 47.160156 C 101.863281 47.160156 101.171875 47.417969 100.6875 47.933594 C 100.207031 48.464844 99.949219 49.15625 99.949219 50.046875 C 99.949219 50.671875 100.207031 51.207031 100.6875 51.625 C 101.171875 52.042969 101.71875 52.253906 102.34375 52.253906 C 102.988281 52.253906 103.546875 51.960938 104.015625 51.398438 C 104.449219 50.851562 104.675781 50.253906 104.675781 49.578125 Z M 105.507812 57.84375 C 105.507812 56.828125 105.203125 55.992188 104.625 55.3125 C 104 54.605469 103.195312 54.25 102.214844 54.25 C 101.265625 54.25 100.480469 54.605469 99.867188 55.3125 C 99.289062 55.992188 99 56.8125 99 57.761719 C 99 58.761719 99.257812 59.585938 99.757812 60.210938 C 100.320312 60.921875 101.074219 61.257812 102.054688 61.257812 C 103.082031 61.257812 103.933594 60.953125 104.5625 60.339844 C 105.1875 59.710938 105.507812 58.890625 105.507812 57.84375 " fill-opacity="1" fill-rule="nonzero"/></svg>